<svg id="Layer_2" data-name="Layer 2" xmlns="http://www.w3.org/2000/svg" viewBox="0 0 382.97 322.88"><defs><style>.cls-1{fill:#685a52;}.cls-2{fill:#805d52;}.cls-3{fill:#b28353;}.cls-4{fill:#d4ba9a;}.cls-5{fill:#a38a70;}.cls-6{fill:#d6b182;}.cls-7{fill:#dcbb8a;}.cls-8{fill:none;}.cls-9{fill:#cfa97a;}.cls-10{fill:#e9ceaa;}.cls-11{fill:#dec196;}.cls-12{fill:#a37446;}.cls-13{fill:#e4c999;}.cls-14{fill:#997a56;}</style></defs><title>open diary</title><polygon class="cls-1" points="165.37 315.6 166.05 319.12 175.07 318.46 175.12 315.2 165.37 315.6"/><path class="cls-2" d="M246.49,117.81l-8-2.3-3,5.41L233,139.34c-3.38,1.69-1.65,9.43-1.65,9.43l-8.47,98.82-8.2,85.1-2.75,29.37-.18,8.78c-2.88,7.84,3.15,7.91,3.15,7.91l72.74,9,35.92,3.78,30.67,5.68,23.76,5.3c6.73.71,6.23,1.93,6.23,1.93l-7.36,1.09c7.29,4.94,60.59,4.2,60.59,4.2l145-3.8,10.82-1.44c2.16-2.2-1.78-47.85-1.78-47.85L580.4,169.79l-173.83,7.46Z" transform="translate(-210.94 -86.85)"/><polygon class="cls-3" points="55.99 31.93 41.02 26.81 16.34 282.95 91.75 289.57 55.99 31.93"/><polygon class="cls-4" points="40.84 28.22 27.18 34.5 4.66 288.43 16.34 282.95 40.84 28.22"/><path class="cls-5" d="M215.55,376.12l78.69,7.69,31.87,2.92c11.22,1.18,34.79,6.8,34.79,6.8,15.78,1.91,31.09,8.3,31.09,8.3l9.89-1.66L332.32,336l-105,33.81Z" transform="translate(-210.94 -86.85)"/><polygon class="cls-6" points="99.63 45.82 44.09 24.35 18.46 282.67 147.46 301.88 184.73 307.2 99.63 45.82"/><path class="cls-7" d="M306.85,86.85s59.83,59,66.15,62.33,23.93,17,23.93,17l9.21,7.48-4.26,226.55-69.06-22.51-53.08-20.75c-16.12-72.59,1.12-172.46,1.12-172.46Q293.85,135.65,306.85,86.85Z" transform="translate(-210.94 -86.85)"/><polyline class="cls-8" points="193.16 87.21 195.14 86.43 191.35 313.67"/><path class="cls-9" d="M575,161.3l4.51,10.06L592.6,392a13,13,0,0,1-.67,5.82,13.24,13.24,0,0,1-1.25,2.53l-1,.41q-1.62-3.76-3.23-7.53l-.69-6Q580.42,274.27,575,161.3Z" transform="translate(-210.94 -86.85)"/><polygon class="cls-10" points="288.76 79.15 364.25 74.41 379.92 305.64 266.3 310.19 288.76 79.15"/><path class="cls-11" d="M406.17,173.27a167.06,167.06,0,0,1,17.28-4.69c11-2.37,21.4-3.43,38.24-3.83,20.37-.48,19.83.73,43.72.6,20.75-.11,35.41-1.1,40.4-1.46,11.64-.83,21.39-1.91,28.46-2.78l11.82,224.06-48.46,7.58c-30.13,4.64-84.2,4.59-84.2,4.59l-42.22,1.88-12.58.54c4.21-130.4,5.57-179.33,5.63-189.77,0-1.78,0-9.81.65-20.64C405.3,182.61,405.79,177.05,406.17,173.27Z" transform="translate(-210.94 -86.85)"/><path class="cls-12" d="M401.88,400.17l-2-.69,2.56-119.82,2.43-106.1,1.17-.28Z" transform="translate(-210.94 -86.85)"/><path class="cls-13" d="M400.66,373a.3.3,0,0,1,.23,0c1.08.71.7,8.14.7,8.14l-.95-.31Z" transform="translate(-210.94 -86.85)"/><path class="cls-13" d="M401.4,334.38a.29.29,0,0,1,.24.05c1.07.7.7,8.13.7,8.13l-1-.31Z" transform="translate(-210.94 -86.85)"/><path class="cls-13" d="M401.93,301.82a.33.33,0,0,1,.24,0c1.07.71.7,8.14.7,8.14l-1-.31Z" transform="translate(-210.94 -86.85)"/><path class="cls-13" d="M402.87,269a.3.3,0,0,1,.24.05c1.07.7.69,8.13.69,8.13l-.95-.31Z" transform="translate(-210.94 -86.85)"/><path class="cls-13" d="M403.45,237.53a.31.31,0,0,1,.23,0c1.07.71.7,8.14.7,8.14l-1-.31Z" transform="translate(-210.94 -86.85)"/><path class="cls-13" d="M404.1,206.68a.29.29,0,0,1,.24,0c1.07.7.69,8.13.69,8.13l-.95-.31Z" transform="translate(-210.94 -86.85)"/><path class="cls-8" d="M603.6,159.21" transform="translate(-210.94 -86.85)"/><path class="cls-14" d="M400.39,400c3.31.56,7.7,4.86,7.7,4.86l68.05-1.42,113.21-2.15c2.34-1,2-5.1,2-5.1a3.81,3.81,0,0,0-1.85-3.34Z" transform="translate(-210.94 -86.85)"/></svg>