<svg id="Layer_2" data-name="Layer 2" xmlns="http://www.w3.org/2000/svg" viewBox="0 0 402.43 416.34"><defs><style>.cls-1{fill:#f5db9b;}.cls-2{fill:#d1b078;}.cls-3{fill:#ecce9e;}.cls-4{fill:#c9973a;}.cls-5{fill:#95642c;}.cls-6{fill:#4a2c16;}.cls-7{fill:#c9ac68;}.cls-8{fill:#412713;}.cls-14,.cls-9{fill:#b37a2c;}.cls-10{fill:none;stroke:#231f20;stroke-miterlimit:10;}.cls-11{fill:#1f1010;}.cls-12{fill:#b89a6d;}.cls-13{fill:#f7d676;}.cls-14{font-size:67.64px;font-family:CommercialScriptBT-Regular, CommercialScript BT;}</style></defs><title>diary</title><path class="cls-1" d="M658.7,412.94l1.78,3.05,1.6,2.75a3.1,3.1,0,0,1,.72,2.11c-.19,2.08-3.17,3.18-7.5,5-7.91,3.35-14.95,6.87-14.95,6.87L429.49,532.48l-4.29,2.08c-4.71,3.18-9.59,3.66-11.58,1.87a8.4,8.4,0,0,1-1.77-2.5,7.52,7.52,0,0,1-.64-3.46,7.92,7.92,0,0,1,1.27-3.75,11.06,11.06,0,0,1,2.61-2.88,17,17,0,0,1,4-2.48L571,453Z" transform="translate(-272.42 -121.13)"/><path class="cls-2" d="M411.54,532.55c-3.53-3.73,2.29-10.65-1.09-17.91a13,13,0,0,0-3.85-4.73L656.58,403l1.78,10.37,3.26,5.92L421.7,532.42a1.21,1.21,0,0,1,.18,1c-.33,1-2.64,1.1-3.43,1.12C417.27,534.52,413.52,534.62,411.54,532.55Z" transform="translate(-272.42 -121.13)"/><path class="cls-3" d="M277.55,210.87a7.81,7.81,0,0,1,2.5-2.82,6.85,6.85,0,0,1,1.78-.74c1-.42,70.38-27.94,217.27-86.18Q587,263.32,674.85,405.51L426.16,518a40.79,40.79,0,0,0-9.91,5,13.5,13.5,0,0,0-3.49,3.55,6.83,6.83,0,0,0-1.4,3.92,5.45,5.45,0,0,0,.35,1.79l0,.08v0C411.36,533.25,277.29,211.38,277.55,210.87Z" transform="translate(-272.42 -121.13)"/><path class="cls-4" d="M605.32,264c1.81,2.35-5.23,21.3-5.23,21.3l-7.22-11.73-9.56,4.15v5.59l-41.68,17.86c-3.79,2.89-9-7.57-9-7.57l-28.15-48c-1.44-8.3,45.47-22.92,45.47-22.92,3.83-1.88,7.78-3.76,11.84-5.61,2.57-1.18,5.12-2.31,7.65-3.41Z" transform="translate(-272.42 -121.13)"/><path class="cls-5" d="M507.36,241.17c8.69,6.65,33.79,54.93,33.79,54.93.86,2.25-.75,5.47-.75,5.47l-1.82-.11c-2.68-1.07-5.58-6.65-5.58-6.65l-8.15-14.59L513.8,261.44l-8.48-14.05-1.07-2C504.25,243.21,507.36,241.17,507.36,241.17Z" transform="translate(-272.42 -121.13)"/><path class="cls-6" d="M550.38,222.18c2.58-1.18,6,2.25,6,2.25l30.26,47c.1,2.58-3.33,6.23-3.33,6.23l-8.69-11.91-12.34-19-8.8-15-3.22-9Z" transform="translate(-272.42 -121.13)"/><polygon class="cls-7" points="332.78 147.19 329.78 148.58 326.24 161.78 327.85 164.35 332.78 147.19"/><path class="cls-8" d="M557.29,249.68c2.28,1.15,3.31,4.15,3.42,6.22.25,4.58-3.78,9.34-8.93,9.84a10.14,10.14,0,0,1-10.41-7.08,8.51,8.51,0,0,1,0-4.19c.79-3.51,3.73-7.07,6.59-7,.77,0,.72.28,2.31.85C553.93,249.65,555.43,248.74,557.29,249.68Z" transform="translate(-272.42 -121.13)"/><path class="cls-9" d="M560.65,253.86a9.21,9.21,0,0,1-4.62,8.48,9.35,9.35,0,0,1-6.33,1.07,9.66,9.66,0,0,1-7.61-7.51,8.45,8.45,0,0,1,.43-4.61A9.44,9.44,0,0,1,551,245.6C555.58,245.53,560.24,249.08,560.65,253.86Z" transform="translate(-272.42 -121.13)"/><path class="cls-10" d="M525.06,213.7" transform="translate(-272.42 -121.13)"/><path class="cls-11" d="M540.14,263.07a4,4,0,1,1-1.84-5.63A4,4,0,0,1,540.14,263.07Z" transform="translate(-272.42 -121.13)"/><ellipse class="cls-11" cx="530.57" cy="264.31" rx="3.54" ry="1.56" transform="translate(-334.48 130.79) rotate(-25.28)"/><path class="cls-12" d="M425.29,517.23l.59,1.29-4.18,2.94-5.92,5c-.89,1.19-1.78,2.37-2.66,3.56v6.22c-10.67-24.18-41.95-95.07-52.6-119.25,0,0-80.12-182.5-87.18-198a6,6,0,0,1-.72-1.61,6.38,6.38,0,0,1-.18-2,7,7,0,0,1,1.85-3.92c1.13-1.3,2.31-1.87,4.45-2.93a28,28,0,0,1,4.41-1.74Z" transform="translate(-272.42 -121.13)"/><polygon class="cls-13" points="268.23 173.48 309.27 155.92 310.98 157.16 310.52 158.25 269.17 175.66 268.23 173.48"/><polygon class="cls-13" points="314.22 150.3 330.73 143.01 332.9 142.89 332.78 147.19 311.61 155.92 314.22 150.3"/><text class="cls-14" transform="matrix(0.64, -0.31, 0.43, 0.9, 88.43, 192.47)">Dear<tspan x="0" y="62.07" xml:space="preserve">  Diary</tspan></text></svg>