<svg xmlns="http://www.w3.org/2000/svg" xmlns:xlink="http://www.w3.org/1999/xlink" viewBox="0 0 1233.11 649.81"><defs><style>.cls-1{fill:none;}.cls-2{fill:#3d3b3b;}.cls-3{fill:#b3c8c8;}.cls-3,.cls-4{stroke:#000;stroke-miterlimit:10;}.cls-4{fill:#fff;}.cls-5{font-size:48px;font-family:Consolas;}.cls-6{clip-path:url(#clip-path);}</style><clipPath id="clip-path" transform="translate(1.77 -142.04)"><rect class="cls-1" x="1.1" y="11.92" width="1222.86" height="685.58"/></clipPath></defs><g id="Layer_3" data-name="Layer 3"><rect class="cls-2" x="285.23" y="150" width="13.75" height="444.21" transform="translate(629.77 563.17) rotate(172.89)"/><rect class="cls-3" x="143.98" y="158.88" width="275.42" height="195.4" transform="translate(-27.8 -105.22) rotate(-7.11)"/><rect class="cls-2" x="985.79" y="221.11" width="13.75" height="444.21" transform="translate(1934.07 847.9) rotate(-173.87)"/><rect class="cls-4" x="893.78" y="229.64" width="235.19" height="156.14" transform="translate(40.44 -248.33) rotate(6.13)"/><rect class="cls-2" x="653.03" y="226.08" width="13.75" height="444.21" transform="translate(1261.88 831.59) rotate(-172.98)"/><rect class="cls-4" x="563.11" y="234.91" width="235.19" height="156.14" transform="translate(45.11 -222.87) rotate(7.02)"/><text class="cls-5" transform="translate(162.43 106.73) rotate(-8.07)">USE PAPER <tspan x="0" y="57.6">WISELY</tspan></text></g><g id="Layer_2" data-name="Layer 2"><g class="cls-6"><path class="cls-2" d="M551.89,563.86c-3.37-54.38,29.82-60.55,29.82-60.55,33.76-5.61,52.88,11.77,52.88,11.77,16.88,27.48-6.75,103.72-6.75,103.72-19.69,31.4-49.51,14-49.51,14C551.89,599.74,551.89,563.86,551.89,563.86Z" transform="translate(1.77 -142.04)"/><path class="cls-2" d="M454.56,512.84l13.51-9.53L485.51,468c6.75-15.7,8.43-20.74,8.43-29.71S496.2,417,496.2,417c1.68-2.24,9.56-1.68,9.56-1.68l9-10.09c6.75,0,9.56,3.92,9.56,3.92,5.63-1.12,9,5.05,9,5.05a37.13,37.13,0,0,1,5.62,1.68,63.49,63.49,0,0,1,6.75-4.48l3.38,14.57-3.94,22.43c-11.25,3.92-24.75,17.38-24.75,17.38-10.13,9-12.94,26.35-12.94,26.35l-5.63,39.8-9,47.1,38.82,43.73,7.88-1.68,28.69-11.78a79.77,79.77,0,0,0,12.94,14c6.17,5.24,9.35,6.28,11.25,6.73a21.47,21.47,0,0,0,11.25-.57c7.73-2.12,12.35-5.55,15.19-8.4,4.24-4.27,9-11.78,9-11.78h0l10.69,6.17,2.81,6.73,10.69-.56,7.88-2.81,14.2-5.85,2.12-.88,19.12-20.74,1.13-11.21,7.31-5C692.54,534.71,691.42,514,691.42,514l2.25,2.81s-3.94-26.91-9.57-39.25-20.25-28.59-20.25-37,7.31-20.74,7.31-20.74-2.25-.57,1.13-5.61,9-2.8,9-2.8l5.63,1.12,2.25,1.68,4.5-1.12c3.37,0,7.31,7.85,7.31,7.85s0-2.25,5.06,1.68,6.75,4.48,6.75,6.73,0,8.41.57,14-6.19,18.5-6.19,18.5c-1.13,8.41,20.25,55.51,20.25,55.51l9-3.93s1.69,20.75,2.25,31.4,5.63,23.54,6.19,28-1.12,25.23-1.12,25.23l1.69,13.45L735.3,616c-12.94,24.67-35.45,62.23-35.45,62.23L706.61,704l-204.23,2.24c-17.44-60.55-52.32-100.91-52.32-100.91-3.52-15.55,2.86-49,5.45-61.54.11-.51.43-1.73.74-3.5A59.84,59.84,0,0,0,454.56,512.84Z" transform="translate(1.77 -142.04)"/><path class="cls-2" d="M680.31,538.6a39.27,39.27,0,0,1,2.69-9.82s-12.4,21.82,1.83-.73S706,496.41,716.58,494.6s5.1-5.46,19.7-1.46,22.26,6.55,26.64,16.73,0,2.54,4.74,13.09-.36,3.27,4.75,14.55,8.76,4.72,4.38,15.63-6.21,6.91-6.21,16,0,14.55,3.65,19.28,6.57-2.91,4,6.91-16.79,8.36-2.56,9.82,24.82,12,24.82,12C826.42,651.69,830.07,691,830.07,691a78.11,78.11,0,0,1,3.28,15.63l-175.19.2c-.7-4.7-1.53-11.26-2-19.14a179.06,179.06,0,0,1,1-35.6c1.71-12.51,2.66-18.88,7.24-24.37,5.49-6.57,13-9.11,17.52-10.18a64.7,64.7,0,0,0,13.14-1.82c6.33-1.55,9.49-2.32,10.58-3.63C713,603.12,675.61,573,680.31,538.6Z" transform="translate(1.77 -142.04)"/><path class="cls-2" d="M351.24,520.47a43.79,43.79,0,0,1,3-10.93s-13.81,24.29,2-.81,23.56-35.21,35.33-37.24,5.69-6.07,21.94-1.62,24.78,7.29,29.65,18.62,0,2.84,5.28,14.57-.41,3.65,5.28,16.2,9.75,5.26,4.87,17.4-6.9,7.69-6.9,17.81,0,16.19,4.06,21.45,7.31-3.24,4.47,7.69-18.69,9.31-2.84,10.93S485,607.9,485,607.9c28.83,38.45,32.9,82.17,32.9,82.17,3.24,10.92,3.65,17.4,3.65,17.4l-195,.21c-.79-5.22-1.71-12.53-2.26-21.3a200.07,200.07,0,0,1,1.13-39.62c1.91-13.93,3-21,8.06-27.12,6.11-7.32,14.43-10.15,19.5-11.34a71.39,71.39,0,0,0,14.62-2c7.05-1.73,10.57-2.59,11.78-4C387.65,592.29,346,558.74,351.24,520.47Z" transform="translate(1.77 -142.04)"/><path class="cls-2" d="M74.23,526.14C54.63,524.42,44,539.16,44,544s-5.5,19.19-.69,29.47,14.1,26.05,17.2,31.53,6.88,5.83,5.5,11S53.25,631,53.25,631c-39.89,8.91-47.46,31.53-47.46,31.53-7.56,17.83-7.56,44.22-7.56,44.22l168.18-2.06c2.43-34.31-22.39-63.78-28.09-70.06-.73-.81-1.15-1.23-1.15-1.23s-9.28,1.71-11.35-.68-1.72,3.42,8.6-15.77,4.13-54.49,4.13-54.49c-1-30.16-33.71-41.82-33.71-41.82-16.85-11.31-26.48-4.8-26.48-4.8Z" transform="translate(1.77 -142.04)"/><path class="cls-2" d="M833.21,423.67c-10-.87-30.58,2.61-30.58,2.61-7,2.61-6.55,20.46-6.55,20.46-1.75,9.14-7.42,19.59-7.42,19.59-6.12,9.14-6.12,27-6.12,27l-3.06.44-24.46,84c-5.24,5.66-7.86,7-6.55,10S752.83,600,752.83,600s-15.72,90.12-10.92,98.39,6.56,8.27,6.56,8.27l139.78-.44s-2.18-7.4-3.93-10-12.67-5.66-12.67-5.66l-10.48-3.92c23.59-23.07,25.34-39.18,25.34-39.18,0-5.65-1.75-8.27-1.75-12.62s3.49-7,3.49-10.88,2.19-18.29,1.31-25.69-10.48-19.59-17.91-21.76-15.72-7.4-27.95-5.23-29.27,11.76-32.77,17-5.68,15.24-6.55,23.51a145.71,145.71,0,0,1-3.93,21.33c-1.31,4.79-5.24,12.19-5.24,12.19l-.44-29.17-.87-30.91,11.35-89.67S807,476.34,810.5,472s9.17-2.18,20.53-13.49,14.85-13.5,14.41-18.72-2.18-6.1-2.18-8.27,2.62,1.3,0-2.18-7.43,1.74-7.43,1.74Z" transform="translate(1.77 -142.04)"/><path class="cls-2" d="M881.71,699.65c12.23-16.54,48.93-30.91,48.93-30.91,3.93-4.79,23.59-10,23.59-10s15.72,1.74,14.85.87,0-14.36,0-14.36c-3.93,1.74-11.36-16.55-11.36-16.55s-3.06-8.27-3.06-11.75,6.12-7.84,8.3-3.92-7-29.6-3.93-36.13,14.86-23.07,22.28-23.51,26.21-9.57,35.39-5.66,28,18.72,29.7,28.3-3.06,14.8-3.06,23.07.88,10,0,13.5,1.75-.44,3.06-.44,2.19.44,2.19,4.35-6.12,12.19-6.12,14.81,4.37,11.31,2.62,13.05-4.8-.87-4.8-.87c.87,8.71-5.68,21.33-5.68,21.33s3.05-4.35,10.48-4.35,23.59,7.4,23.59,7.4A33.07,33.07,0,0,1,1084,683.11c5.68,11.32,4.8,20,4.8,20L880,704Z" transform="translate(1.77 -142.04)"/><path class="cls-2" d="M1139.13,422.32c10-.87,30.57,2.61,30.57,2.61,7,2.61,6.56,20.46,6.56,20.46,1.74,9.14,7.42,19.59,7.42,19.59,6.12,9.14,6.12,27,6.12,27l3.06.44,24.46,84c5.24,5.66,7.86,7,6.55,10s-4.37,12.19-4.37,12.19,15.73,90.11,10.92,98.38-6.55,8.27-6.55,8.27l-139.79-.44s2.19-7.4,3.94-10,12.66-5.66,12.66-5.66l10.49-3.92c-23.59-23.07-25.34-39.17-25.34-39.17,0-5.66,1.75-8.28,1.75-12.63s-3.5-7-3.5-10.88-2.18-18.28-1.31-25.69,10.49-19.58,17.91-21.76,15.73-7.4,28-5.23,29.27,11.76,32.76,17,5.68,15.24,6.56,23.51a145.71,145.71,0,0,0,3.93,21.33c1.31,4.79,5.24,12.19,5.24,12.19l.44-29.17.87-30.91-11.36-89.67s-1.74-19.16-5.24-23.51-9.17-2.17-20.53-13.49-14.85-13.5-14.42-18.72,2.19-6.1,2.19-8.27-2.62,1.3,0-2.18,7.42,1.74,7.42,1.74Z" transform="translate(1.77 -142.04)"/><path class="cls-2" d="M1001.56,518.32a44.42,44.42,0,0,1,3-10.93s-13.81,24.29,2-.81,23.55-35.21,35.33-37.23,5.69-6.08,21.94-1.62,24.77,7.28,29.65,18.62,0,2.83,5.28,14.57-.41,3.64,5.28,16.19,9.75,5.26,4.87,17.4-6.9,7.69-6.9,17.81,0,16.19,4.06,21.45,7.31-3.23,4.47,7.69-18.69,9.31-2.85,10.93,27.62,13.36,27.62,13.36c28.84,38.45,32.9,82.17,32.9,82.17,3.25,10.93,3.66,17.4,3.66,17.4l-195,.22c-.78-5.23-1.7-12.53-2.25-21.31a200,200,0,0,1,1.13-39.61c1.9-13.93,3-21,8.06-27.13,6.11-7.32,14.43-10.14,19.5-11.33a72.23,72.23,0,0,0,14.62-2c7-1.72,10.57-2.59,11.78-4C1038,590.14,996.32,556.59,1001.56,518.32Z" transform="translate(1.77 -142.04)"/><path class="cls-2" d="M260.81,521a43.67,43.67,0,0,1,3-10.93s-13.81,24.29,2-.81,23.56-35.21,35.34-37.23,5.69-6.08,21.93-1.62,24.78,7.28,29.65,18.62,0,2.83,5.29,14.57-.41,3.64,5.28,16.19,9.74,5.26,4.87,17.4-6.91,7.69-6.91,17.81,0,16.19,4.07,21.46,7.31-3.24,4.46,7.69-18.68,9.31-2.84,10.92,27.62,13.36,27.62,13.36c28.84,38.45,32.9,82.17,32.9,82.17,3.25,10.93,3.66,17.4,3.66,17.4l-195,.22c-.78-5.23-1.71-12.53-2.25-21.31A200,200,0,0,1,235,647.33c1.9-13.93,3-21,8.06-27.13,6.11-7.32,14.43-10.14,19.49-11.33a72.31,72.31,0,0,0,14.63-2c7-1.72,10.57-2.58,11.78-4.05C297.22,592.85,255.57,559.3,260.81,521Z" transform="translate(1.77 -142.04)"/><path class="cls-2" d="M922.58,518.27c-19.6-1.71-30.26,13-30.26,17.83s-5.51,19.19-.69,29.47,14.1,26,17.19,31.53,6.88,5.83,5.51,11-12.73,15.08-12.73,15.08c-39.89,8.91-47.46,31.53-47.46,31.53-7.57,17.82-7.57,44.21-7.57,44.21l168.18-2c2.44-34.31-22.38-63.78-28.08-70.06-.73-.81-1.15-1.23-1.15-1.23s-9.29,1.71-11.35-.69-1.72,3.43,8.6-15.76,4.13-54.5,4.13-54.5c-1-30.16-33.71-41.81-33.71-41.81-16.85-11.31-26.48-4.8-26.48-4.8Z" transform="translate(1.77 -142.04)"/><path class="cls-2" d="M213.25,423.39c-10.05-.87-30.58,2.62-30.58,2.62-7,2.61-6.55,20.46-6.55,20.46-1.75,9.14-7.43,19.59-7.43,19.59-6.11,9.14-6.11,27-6.11,27l-3.06.43-24.46,84c-5.25,5.66-7.87,7-6.56,10s4.37,12.19,4.37,12.19S117.15,689.81,122,698.08s6.55,8.27,6.55,8.27l139.79-.43s-2.18-7.4-3.93-10-12.67-5.65-12.67-5.65l-10.48-3.92c23.59-23.07,25.33-39.18,25.33-39.18,0-5.66-1.74-8.27-1.74-12.63s3.49-7,3.49-10.88,2.19-18.28,1.31-25.68-10.48-19.59-17.91-21.77-15.72-7.4-28-5.22-29.26,11.75-32.76,17-5.68,15.24-6.55,23.51a147.06,147.06,0,0,1-3.93,21.33c-1.31,4.79-5.25,12.19-5.25,12.19l-.43-29.16-.88-30.91,11.36-89.68s1.75-19.15,5.24-23.51,9.18-2.17,20.54-13.49,14.85-13.5,14.41-18.72-2.18-6.09-2.18-8.27,2.62,1.31,0-2.18-7.43,1.74-7.43,1.74Z" transform="translate(1.77 -142.04)"/></g><rect class="cls-2" x="3.62" y="530.14" width="1224.23" height="119.67"/></g></svg>