<svg xmlns="http://www.w3.org/2000/svg" viewBox="0 0 1225.5 792.61"><defs><style>.cls-1{fill:#fff;}.cls-2{fill:#617031;}.cls-3{fill:#6f9360;}</style></defs><g id="Layer_6" data-name="Layer 6"><rect class="cls-1" width="1223.19" height="789.42"/></g><g id="Layer_3" data-name="Layer 3"><path class="cls-2" d="M156.85,603.29c-1.54-11.22-1.59-13.79-1.3-13.84.75-.14,4.52,16.61,5,18.6.92,4.09,1.73,8,1.73,8,.52,2.52,2,10.09,1.52,7.57a67.2,67.2,0,0,1,.65,14.92,36.12,36.12,0,0,0,.27,9.73c.13.84.28,1.51.38,2l-.22,23.36c0,7.36,2.38,18.82,2.38,18.82l-2.81,1.08A105.54,105.54,0,0,1,162.9,681c-.31-5.28-.06-7.82,0-19.9,0-.55,0-4.73,0-9.3,0-5.7-.13-13.18-.43-22.07Q159.67,616.5,156.85,603.29Z" transform="translate(0.16 0.43)"/><path class="cls-2" d="M158.58,608.27c-3.46-23.79-25.09-16-25.09-16-18.61,8.66-15.36,28.12-15.36,28.12,1.51,4.54,2.38,2.6,2.38,2.6v-4.11l27.9-24.44C154,592.48,158.58,608.27,158.58,608.27Z" transform="translate(0.16 0.43)"/><path class="cls-2" d="M163.55,632.28a5.87,5.87,0,0,1,.87-3.68c.67-1,2.44-2.78,9.51-2.59a45.75,45.75,0,0,1,17.52,4.11,13.31,13.31,0,0,1,5,5.84c1.45,3.38,2,8.84-.43,10.59-4.05,2.9-14.41-5.67-15.79-6.81a40.82,40.82,0,0,1-6.71-7,5.31,5.31,0,0,0-9.95-.43Z" transform="translate(0.16 0.43)"/><path class="cls-2" d="M120.51,652h0c-.43,2.6-6.27,5.84-6.27,5.84,16.43,5.41,34.17-11.89,34.17-11.89,2.2-1.85,4.59-3.74,7.19-5.63,2.05-1.49,4.06-2.85,6-4.11-8.26-2.71-14.35-2.13-18.61-.86C130.87,638.91,120.51,652,120.51,652Z" transform="translate(0.16 0.43)"/><path class="cls-2" d="M192.67,606.38a33.4,33.4,0,0,1,12.41,2.75c6.27,3.9,6.06,11.68,6.06,11.68-4.29-1.38-7.89-2.26-10.38-2.81-12-2.65-20.91-4.6-29.42-1.08-3,1.24-7.29,3.71-7.57,3.25-.12-.2.52-.81,1.08-1.3C167.08,616.5,177.47,606,192.67,606.38Z" transform="translate(0.16 0.43)"/><path class="cls-2" d="M158.58,608.27c-.12,0-1.43-14.35,7.1-22.14,5.19-4.74,14.74-7.71,14.74-7.71h0a20,20,0,0,1,12.12,1.08c2.88,1.28,4.8,3.07,7.78,5.84a57.27,57.27,0,0,1,6.49,7.14c-4.27-2.2-14.76-6.82-27.41-4.33a39.16,39.16,0,0,0-10,3.46,22.24,22.24,0,0,0-7.78,7.36A20.66,20.66,0,0,0,158.58,608.27Z" transform="translate(0.16 0.43)"/><path class="cls-2" d="M146.84,614.14a29,29,0,0,0-8,.19c-13.19.86-13.84,9.3-13.84,9.3l2.81-2.38c7.24,1.7,12.44,1.16,16,.27a62.58,62.58,0,0,1,9.14-2,52.38,52.38,0,0,1,7.14-.44A29.87,29.87,0,0,0,146.84,614.14Z" transform="translate(0.16 0.43)"/><path class="cls-2" d="M157.93,599.62c2.59-28.12-16-28.12-16-28.12C137,577.77,157.93,599.62,157.93,599.62Z" transform="translate(0.16 0.43)"/><path class="cls-2" d="M336.12,608.17c-1.54-11.23-1.59-13.8-1.3-13.85.76-.14,4.53,16.61,5,18.6.92,4.09,1.73,8,1.73,8,.51,2.52,2,10.09,1.51,7.57a66.58,66.58,0,0,1,.65,14.92,36.2,36.2,0,0,0,.27,9.74c.14.83.28,1.5.38,1.94l-.22,23.36c0,7.36,2.38,18.82,2.38,18.82l-2.81,1.08a103.08,103.08,0,0,1-1.51-12.54c-.32-5.28-.07-7.82,0-19.9,0-.55,0-4.73,0-9.3,0-5.7-.14-13.18-.44-22.07Q338.94,621.37,336.12,608.17Z" transform="translate(0.16 0.43)"/><path class="cls-2" d="M337.85,613.14c-3.46-23.79-25.09-16-25.09-16-18.6,8.66-15.36,28.12-15.36,28.12,1.52,4.54,2.38,2.6,2.38,2.6v-4.11l27.9-24.44C333.31,597.35,337.85,613.14,337.85,613.14Z" transform="translate(0.16 0.43)"/><path class="cls-2" d="M342.82,637.15a5.93,5.93,0,0,1,.87-3.68c.67-1,2.44-2.78,9.52-2.59A45.83,45.83,0,0,1,370.73,635a13.43,13.43,0,0,1,5,5.84c1.45,3.38,2,8.84-.43,10.59-4,2.9-14.41-5.67-15.79-6.81a41.62,41.62,0,0,1-6.71-7,5.31,5.31,0,0,0-9.95-.43Z" transform="translate(0.16 0.43)"/><path class="cls-2" d="M299.78,656.83h0c-.43,2.6-6.27,5.84-6.27,5.84,16.44,5.41,34.17-11.89,34.17-11.89,2.2-1.85,4.59-3.74,7.2-5.63,2.05-1.49,4.05-2.85,6-4.11-8.26-2.71-14.34-2.13-18.6-.86C310.15,643.79,299.78,656.83,299.78,656.83Z" transform="translate(0.16 0.43)"/><path class="cls-2" d="M371.94,611.25A33.19,33.19,0,0,1,384.35,614c6.28,3.89,6.06,11.68,6.06,11.68-4.29-1.39-7.88-2.27-10.38-2.82-12-2.65-20.9-4.59-29.42-1.08-3,1.24-7.28,3.71-7.57,3.25-.12-.2.52-.81,1.08-1.3C346.36,621.37,356.74,610.88,371.94,611.25Z" transform="translate(0.16 0.43)"/><path class="cls-2" d="M337.85,613.14c-.12,0-1.43-14.35,7.1-22.14,5.2-4.74,14.75-7.71,14.75-7.71h0a20,20,0,0,1,12.11,1.08c2.88,1.28,4.81,3.07,7.79,5.84a58.59,58.59,0,0,1,6.48,7.14c-4.26-2.2-14.75-6.82-27.41-4.33a39.16,39.16,0,0,0-10,3.46,22.24,22.24,0,0,0-7.78,7.36A20.85,20.85,0,0,0,337.85,613.14Z" transform="translate(0.16 0.43)"/><path class="cls-2" d="M326.12,619a29,29,0,0,0-7.95.19c-13.2.86-13.85,9.3-13.85,9.3l2.82-2.38c7.23,1.7,12.43,1.16,15.95.27a62.27,62.27,0,0,1,9.14-2,52.25,52.25,0,0,1,7.13-.44A29.82,29.82,0,0,0,326.12,619Z" transform="translate(0.16 0.43)"/><path class="cls-2" d="M337.2,604.49c2.6-28.12-16-28.12-16-28.12C316.22,582.64,337.2,604.49,337.2,604.49Z" transform="translate(0.16 0.43)"/><path class="cls-2" d="M519.5,629.2c-1.54-11.23-1.59-13.79-1.3-13.84.76-.14,4.53,16.6,5,18.6.92,4.08,1.73,8,1.73,8,.52,2.52,2,10.09,1.51,7.57a66.59,66.59,0,0,1,.65,14.92,36.65,36.65,0,0,0,.27,9.74c.14.83.28,1.51.38,1.94l-.21,23.37c0,7.35,2.37,18.81,2.37,18.81l-2.81,1.08a105.14,105.14,0,0,1-1.51-12.54c-.32-5.28-.06-7.82,0-19.9,0-.55,0-4.73,0-9.3,0-5.7-.13-13.18-.43-22.06Q522.31,642.39,519.5,629.2Z" transform="translate(0.16 0.43)"/><path class="cls-2" d="M521.23,634.17c-3.46-23.79-25.09-16-25.09-16-18.6,8.65-15.36,28.12-15.36,28.12,1.52,4.54,2.38,2.59,2.38,2.59v-4.11l27.91-24.44C516.69,618.38,521.23,634.17,521.23,634.17Z" transform="translate(0.16 0.43)"/><path class="cls-2" d="M526.21,658.18a5.88,5.88,0,0,1,.86-3.67c.68-1,2.45-2.78,9.52-2.6A46.17,46.17,0,0,1,554.11,656a13.3,13.3,0,0,1,5,5.84c1.45,3.38,2,8.84-.43,10.6-4,2.89-14.4-5.67-15.79-6.82a41.08,41.08,0,0,1-6.7-7,5.32,5.32,0,0,0-9.95-.43Z" transform="translate(0.16 0.43)"/><path class="cls-2" d="M483.16,677.87h0c-.43,2.59-6.27,5.84-6.27,5.84,16.44,5.4,34.18-11.9,34.18-11.9q3.29-2.77,7.19-5.62c2-1.49,4.06-2.86,6-4.11-8.26-2.72-14.34-2.14-18.6-.87C493.53,664.82,483.16,677.86,483.16,677.87Z" transform="translate(0.16 0.43)"/><path class="cls-2" d="M555.33,632.28A33.68,33.68,0,0,1,567.74,635c6.27,3.89,6,11.68,6,11.68-4.28-1.38-7.88-2.26-10.38-2.81-12-2.65-20.9-4.6-29.42-1.09-3,1.25-7.28,3.71-7.57,3.25-.12-.19.52-.81,1.09-1.3C529.74,642.4,540.13,631.91,555.33,632.28Z" transform="translate(0.16 0.43)"/><path class="cls-2" d="M521.23,634.17c-.11,0-1.42-14.35,7.11-22.14,5.19-4.74,14.74-7.71,14.74-7.71h0a19.85,19.85,0,0,1,12.11,1.09c2.88,1.27,4.81,3.06,7.79,5.84a59,59,0,0,1,6.49,7.13c-4.27-2.2-14.76-6.82-27.42-4.32a38.2,38.2,0,0,0-10,3.46,22.21,22.21,0,0,0-7.79,7.35A21,21,0,0,0,521.23,634.17Z" transform="translate(0.16 0.43)"/><path class="cls-2" d="M509.5,640a29,29,0,0,0-7.95.19c-13.19.86-13.84,9.3-13.84,9.3l2.81-2.38c7.23,1.71,12.44,1.16,16,.27a62.27,62.27,0,0,1,9.14-2,50.43,50.43,0,0,1,7.14-.43A29.79,29.79,0,0,0,509.5,640Z" transform="translate(0.16 0.43)"/><path class="cls-2" d="M520.58,625.52c2.6-28.12-16-28.12-16-28.12C499.6,603.67,520.58,625.52,520.58,625.52Z" transform="translate(0.16 0.43)"/><path class="cls-2" d="M681.27,621.43c-1.54-11.23-1.59-13.79-1.3-13.85.76-.13,4.53,16.61,5,18.61.92,4.08,1.73,8,1.73,8,.52,2.52,2,10.09,1.51,7.57a66.59,66.59,0,0,1,.65,14.92,36.65,36.65,0,0,0,.27,9.74c.14.83.28,1.5.38,1.94l-.22,23.36c0,7.36,2.38,18.82,2.38,18.82l-2.81,1.08a105.14,105.14,0,0,1-1.51-12.54c-.32-5.28-.07-7.82,0-19.9,0-.55,0-4.73,0-9.3,0-5.7-.14-13.18-.44-22.07Q684.09,634.63,681.27,621.43Z" transform="translate(0.16 0.43)"/><path class="cls-2" d="M683,626.4c-3.46-23.79-25.09-16-25.09-16-18.6,8.65-15.36,28.11-15.36,28.11,1.52,4.55,2.38,2.6,2.38,2.6V637l27.9-24.44C678.46,610.61,683,626.4,683,626.4Z" transform="translate(0.16 0.43)"/><path class="cls-2" d="M688,650.41a5.85,5.85,0,0,1,.86-3.68c.67-1,2.45-2.77,9.52-2.59a46,46,0,0,1,17.52,4.11,13.36,13.36,0,0,1,5,5.84c1.45,3.38,2,8.84-.43,10.6-4,2.89-14.41-5.67-15.79-6.82a41.08,41.08,0,0,1-6.7-7,5.32,5.32,0,0,0-9.95-.43Z" transform="translate(0.16 0.43)"/><path class="cls-2" d="M644.93,670.09h0c-.43,2.6-6.27,5.84-6.27,5.84C655.1,681.34,672.83,664,672.83,664c2.2-1.85,4.6-3.74,7.2-5.63,2.05-1.49,4.05-2.85,6-4.11-8.26-2.71-14.34-2.13-18.6-.86C655.3,657.05,644.93,670.09,644.93,670.09Z" transform="translate(0.16 0.43)"/><path class="cls-2" d="M717.09,624.51a33.38,33.38,0,0,1,12.41,2.76c6.28,3.89,6.06,11.68,6.06,11.68-4.29-1.39-7.88-2.27-10.38-2.82-12-2.64-20.9-4.59-29.42-1.08-3,1.24-7.28,3.71-7.57,3.25-.12-.2.52-.81,1.08-1.3C691.51,634.63,701.89,624.14,717.09,624.51Z" transform="translate(0.16 0.43)"/><path class="cls-2" d="M683,626.4c-.11,0-1.43-14.35,7.1-22.14,5.2-4.74,14.75-7.71,14.75-7.71h0A20,20,0,0,1,717,597.63c2.88,1.28,4.81,3.07,7.79,5.84a59.67,59.67,0,0,1,6.49,7.14c-4.27-2.2-14.76-6.82-27.42-4.32a38.2,38.2,0,0,0-10,3.46A22,22,0,0,0,686,617.1,21,21,0,0,0,683,626.4Z" transform="translate(0.16 0.43)"/><path class="cls-2" d="M671.27,632.27a29,29,0,0,0-7.95.19c-13.2.86-13.85,9.3-13.85,9.3l2.82-2.38c7.23,1.71,12.43,1.16,16,.27a62.27,62.27,0,0,1,9.14-2,50.38,50.38,0,0,1,7.13-.43A29.69,29.69,0,0,0,671.27,632.27Z" transform="translate(0.16 0.43)"/><path class="cls-2" d="M682.35,617.75c2.6-28.12-16-28.12-16-28.12C661.37,595.9,682.35,617.75,682.35,617.75Z" transform="translate(0.16 0.43)"/><path class="cls-2" d="M851.67,607.29c-1.53-11.23-1.58-13.8-1.29-13.85.75-.14,4.52,16.61,5,18.6.92,4.09,1.73,8,1.73,8,.52,2.52,2,10.09,1.52,7.57a67.2,67.2,0,0,1,.65,14.92,35.76,35.76,0,0,0,.27,9.74c.13.83.28,1.5.37,1.94l-.21,23.36c0,7.36,2.38,18.82,2.38,18.82l-2.81,1.08a105.54,105.54,0,0,1-1.52-12.54c-.31-5.28-.06-7.82,0-19.9,0-.55,0-4.73,0-9.3,0-5.7-.13-13.18-.43-22.07Q854.48,620.49,851.67,607.29Z" transform="translate(0.16 0.43)"/><path class="cls-2" d="M853.41,612.26c-3.47-23.79-25.1-16-25.1-16-18.6,8.66-15.35,28.12-15.35,28.12,1.51,4.54,2.38,2.6,2.38,2.6v-4.11l27.9-24.44C848.86,596.47,853.41,612.26,853.41,612.26Z" transform="translate(0.16 0.43)"/><path class="cls-2" d="M858.38,636.27a5.87,5.87,0,0,1,.87-3.68c.67-1,2.44-2.78,9.51-2.59a45.79,45.79,0,0,1,17.52,4.11,13.37,13.37,0,0,1,5,5.84c1.45,3.38,2,8.84-.44,10.59-4,2.9-14.4-5.67-15.78-6.81a40.82,40.82,0,0,1-6.71-7,5.31,5.31,0,0,0-10-.43Z" transform="translate(0.16 0.43)"/><path class="cls-2" d="M815.34,656h0c-.44,2.6-6.28,5.84-6.28,5.84,16.44,5.41,34.18-11.89,34.18-11.89,2.19-1.85,4.59-3.74,7.19-5.63,2.05-1.49,4.06-2.85,6-4.11-8.25-2.71-14.34-2.13-18.6-.86C825.7,642.91,815.34,656,815.34,656Z" transform="translate(0.16 0.43)"/><path class="cls-2" d="M887.5,610.37a33.23,33.23,0,0,1,12.41,2.76c6.27,3.89,6.06,11.68,6.06,11.68-4.29-1.39-7.89-2.27-10.39-2.82-12-2.65-20.9-4.59-29.41-1.08-3,1.24-7.29,3.71-7.57,3.25-.12-.2.51-.81,1.08-1.3C861.91,620.49,872.3,610,887.5,610.37Z" transform="translate(0.16 0.43)"/><path class="cls-2" d="M853.41,612.26c-.12,0-1.43-14.35,7.1-22.14,5.19-4.74,14.74-7.71,14.74-7.71h0a20,20,0,0,1,12.11,1.08c2.89,1.28,4.81,3.07,7.79,5.84a58,58,0,0,1,6.49,7.14c-4.27-2.2-14.76-6.82-27.42-4.33a38.69,38.69,0,0,0-10,3.47,22.21,22.21,0,0,0-7.79,7.35A20.75,20.75,0,0,0,853.41,612.26Z" transform="translate(0.16 0.43)"/><path class="cls-2" d="M841.67,618.13a29,29,0,0,0-7.95.19c-13.19.86-13.84,9.3-13.84,9.3l2.81-2.38c7.23,1.7,12.44,1.16,15.95.27a62.58,62.58,0,0,1,9.14-2,52.38,52.38,0,0,1,7.14-.44A29.92,29.92,0,0,0,841.67,618.13Z" transform="translate(0.16 0.43)"/><path class="cls-2" d="M852.76,603.61c2.59-28.12-16-28.12-16-28.12C831.78,581.76,852.76,603.61,852.76,603.61Z" transform="translate(0.16 0.43)"/><path class="cls-2" d="M1033,611.23c-1.54-11.23-1.59-13.79-1.3-13.84.75-.14,4.52,16.61,5,18.6.92,4.08,1.73,8,1.73,8,.52,2.52,2,10.1,1.52,7.57a67.3,67.3,0,0,1,.65,14.93,36.12,36.12,0,0,0,.27,9.73c.13.83.28,1.51.38,1.95l-.22,23.36c0,7.35,2.38,18.82,2.38,18.82l-2.81,1.08a105.9,105.9,0,0,1-1.52-12.55c-.31-5.27-.06-7.81,0-19.9,0-.54,0-4.73,0-9.3,0-5.69-.13-13.18-.43-22.06Q1035.86,624.42,1033,611.23Z" transform="translate(0.16 0.43)"/><path class="cls-2" d="M1034.77,616.21c-3.46-23.8-25.09-16-25.09-16-18.61,8.65-15.36,28.12-15.36,28.12,1.51,4.54,2.38,2.59,2.38,2.59V626.8l27.9-24.44C1030.22,600.42,1034.77,616.21,1034.77,616.21Z" transform="translate(0.16 0.43)"/><path class="cls-2" d="M1039.74,640.21a5.83,5.83,0,0,1,.87-3.67c.67-1,2.44-2.78,9.51-2.6a46.14,46.14,0,0,1,17.52,4.11,13.37,13.37,0,0,1,5,5.84c1.45,3.38,2,8.84-.43,10.6-4,2.9-14.41-5.67-15.79-6.81a41.56,41.56,0,0,1-6.71-7,5.31,5.31,0,0,0-10-.44Z" transform="translate(0.16 0.43)"/><path class="cls-2" d="M996.7,659.9h0c-.43,2.59-6.27,5.84-6.27,5.84,16.43,5.41,34.17-11.9,34.17-11.9,2.2-1.84,4.59-3.73,7.19-5.62,2-1.49,4.06-2.86,6-4.11-8.25-2.71-14.34-2.13-18.6-.87C1007.06,646.85,996.7,659.9,996.7,659.9Z" transform="translate(0.16 0.43)"/><path class="cls-2" d="M1068.86,614.31a33.58,33.58,0,0,1,12.41,2.76c6.27,3.89,6.06,11.68,6.06,11.68-4.29-1.38-7.89-2.26-10.39-2.81-12-2.65-20.9-4.6-29.41-1.08-3,1.24-7.29,3.7-7.57,3.24-.12-.19.52-.8,1.08-1.3C1043.27,624.44,1053.66,613.94,1068.86,614.31Z" transform="translate(0.16 0.43)"/><path class="cls-2" d="M1034.77,616.21c-.12,0-1.43-14.36,7.1-22.15,5.19-4.74,14.74-7.7,14.74-7.7h0a20,20,0,0,1,12.12,1.08c2.88,1.27,4.8,3.06,7.78,5.84a56.56,56.56,0,0,1,6.49,7.14c-4.27-2.21-14.76-6.83-27.41-4.33a38.78,38.78,0,0,0-10,3.46,22.21,22.21,0,0,0-7.79,7.35A20.77,20.77,0,0,0,1034.77,616.21Z" transform="translate(0.16 0.43)"/><path class="cls-2" d="M1023,622.07a29.4,29.4,0,0,0-7.95.19c-13.19.87-13.84,9.3-13.84,9.3l2.81-2.38c7.24,1.71,12.44,1.17,16,.27a64,64,0,0,1,9.14-2,53.73,53.73,0,0,1,7.14-.43A29.74,29.74,0,0,0,1023,622.07Z" transform="translate(0.16 0.43)"/><path class="cls-2" d="M1034.12,607.55c2.59-28.12-16-28.12-16-28.12C1013.14,585.71,1034.12,607.55,1034.12,607.55Z" transform="translate(0.16 0.43)"/></g><g id="Layer_1" data-name="Layer 1"><path class="cls-3" d="M144.62,695.14l7.38,2.29s-7.36-48.74-4.45-61.28C147.55,636.15,138.45,661.21,144.62,695.14Z" transform="translate(0.16 0.43)"/><path class="cls-3" d="M159.64,692.61l5.07-3.34s-5.58-38.33-3.88-42.46C160.83,646.81,156.11,676.48,159.64,692.61Z" transform="translate(0.16 0.43)"/><path class="cls-3" d="M114.33,715.82l-6.39-2s-3.29-38.6-6.18-42.19C101.76,671.62,114.24,699.29,114.33,715.82Z" transform="translate(0.16 0.43)"/><path class="cls-3" d="M177.63,692.1l3.46-3.16L177.9,657S174.92,683,177.63,692.1Z" transform="translate(0.16 0.43)"/><path class="cls-3" d="M136.61,696.86s-3.73-31.84-9.5-39.05c0,0,3.5,29.9,2.57,35.92Z" transform="translate(0.16 0.43)"/><path class="cls-3" d="M212,701.16s-3.73-31.84-9.5-39c0,0,3.5,29.9,2.57,35.91Z" transform="translate(0.16 0.43)"/><path class="cls-3" d="M168.51,698.27s2.17-23.47,14.44-30.8c0,0-11.67,21.81-8.68,33.28Z" transform="translate(0.16 0.43)"/><path class="cls-3" d="M168.1,699.54s2.17-23.47,14.44-30.8c0,0-11.67,21.82-8.69,33.28Z" transform="translate(0.16 0.43)"/><path class="cls-3" d="M159.16,693.12s-2.7-27.63-14.81-32.92c0,0,10.65,25.53,10,39Z" transform="translate(0.16 0.43)"/><path class="cls-3" d="M136.39,704.36s-5.3-31.27.21-44.9c0,0,2.27,42.64,5.83,49.71Z" transform="translate(0.16 0.43)"/><path class="cls-3" d="M125.13,692.47s-2-21.8-6.25-30c0,0,3.33,33.07,1.18,42.77Z" transform="translate(0.16 0.43)"/><path class="cls-3" d="M130.41,704.66s-5.21-21-20.87-28.67c0,0,18.35,25.81,17.24,35Z" transform="translate(0.16 0.43)"/><path class="cls-3" d="M203,690.52s-5.2-21-20.87-28.68c0,0,18.35,25.82,17.24,35Z" transform="translate(0.16 0.43)"/><path class="cls-3" d="M184.66,696s-2.61-8.35,4.57-17.06c0,0-1.55,19.47,1.34,25.43Z" transform="translate(0.16 0.43)"/><path class="cls-3" d="M181.91,701.24s-2.93-25,5.5-35.32c0,0-3.55,32.64.11,44.46Z" transform="translate(0.16 0.43)"/><path class="cls-3" d="M120,700.75s-9.87-34.14-13.29-37.1c0,0,8.11,35.82,6.51,42.92Z" transform="translate(0.16 0.43)"/><path class="cls-3" d="M163.16,701s.47-29.83,5.08-38.93c0,0,.54,24,1.3,30.45Z" transform="translate(0.16 0.43)"/><path class="cls-3" d="M191.88,699.26s.47-29.83,5.08-38.93c0,0,.54,24,1.3,30.45Z" transform="translate(0.16 0.43)"/><path class="cls-3" d="M140.54,696.66s2.15-34.93-3.65-45.68c0,0,12.91,32.77,10.52,51Z" transform="translate(0.16 0.43)"/><path class="cls-3" d="M18.66,711.61,11.94,715S8.88,674.78,3.4,665.44C3.4,665.44,17.54,683.42,18.66,711.61Z" transform="translate(0.16 0.43)"/><path class="cls-3" d="M57,705.79l5-4.09s-6.82-48.92-5.25-54.13C56.77,647.57,53,685.17,57,705.79Z" transform="translate(0.16 0.43)"/><path class="cls-3" d="M52.85,724.23l5.75-3.42s-5.71-38.31-3.74-42.48C54.86,678.33,49.11,708.13,52.85,724.23Z" transform="translate(0.16 0.43)"/><path class="cls-3" d="M75,705.28l3.47-3.16L75.3,670.21S72.32,696.14,75,705.28Z" transform="translate(0.16 0.43)"/><path class="cls-3" d="M26.78,710.88S23.05,679,27,670.71c0,0,3.51,29.89,5.81,35.53Z" transform="translate(0.16 0.43)"/><path class="cls-3" d="M109.36,714.35s-3.73-31.84-9.49-39.05c0,0,3.49,29.9,2.56,35.92Z" transform="translate(0.16 0.43)"/><path class="cls-3" d="M65.9,711.45s2.17-23.47,14.45-30.8c0,0-11.67,21.82-8.68,33.29Z" transform="translate(0.16 0.43)"/><path class="cls-3" d="M4,712.41S.22,684.9,10.78,677c0,0-4.46,27.28-.76,40.24Z" transform="translate(0.16 0.43)"/><path class="cls-3" d="M28.73,718.14s-2.07-31.65-10.59-43.65c0,0,7.65,42,5.83,49.7Z" transform="translate(0.16 0.43)"/><path class="cls-3" d="M36.94,704s-3.09-21.69-.85-30.61c0,0,4.4,33,8.74,41.89Z" transform="translate(0.16 0.43)"/><path class="cls-3" d="M100.44,703.7s-5.21-21-20.87-28.67c0,0,18.34,25.81,17.23,35Z" transform="translate(0.16 0.43)"/><path class="cls-3" d="M82.06,709.18s-2.62-8.35,4.56-17c0,0-1.54,19.46,1.34,25.42Z" transform="translate(0.16 0.43)"/><path class="cls-3" d="M79.3,714.42s-2.92-24.94,5.51-35.31c0,0-3.56,32.64.1,44.46Z" transform="translate(0.16 0.43)"/><path class="cls-3" d="M43.84,710.86s1.7-35.47,4.35-39.13c0,0,.39,36.71,3.59,43.24Z" transform="translate(0.16 0.43)"/><path class="cls-3" d="M60.56,714.15s.46-29.84,5.08-38.94c0,0,.54,24,1.29,30.45Z" transform="translate(0.16 0.43)"/><path class="cls-3" d="M89.28,712.45s.47-29.84,5.08-38.94c0,0,.54,24,1.29,30.45Z" transform="translate(0.16 0.43)"/><path class="cls-3" d="M22.91,711.59s-10.17-33.49-7-45.29c0,0-5,34.85,1.57,52Z" transform="translate(0.16 0.43)"/><path class="cls-3" d="M51.54,714.35S44,692,30.36,687.68c0,0,16.4,18.56,16.15,30.4Z" transform="translate(0.16 0.43)"/><path class="cls-3" d="M82.58,711.49s-5.2-21-20.87-28.68c0,0,18.35,25.82,17.24,35Z" transform="translate(0.16 0.43)"/><path class="cls-3" d="M354.48,691.31l7,2.63s-.84-39.16,3.7-48.7C365.2,645.24,352.86,663.94,354.48,691.31Z" transform="translate(0.16 0.43)"/><path class="cls-3" d="M369.71,691l5.47-2.07s-.46-30.76,1.77-33.82C377,655.11,368.35,677.92,369.71,691Z" transform="translate(0.16 0.43)"/><path class="cls-3" d="M321.72,704.2l-6.06-2.29s1.84-30.72-.54-33.87C315.12,668,323.83,691.19,321.72,704.2Z" transform="translate(0.16 0.43)"/><path class="cls-3" d="M387.61,692.6l3.85-2.1,1.06-25.45S386.14,685.11,387.61,692.6Z" transform="translate(0.16 0.43)"/><path class="cls-3" d="M346.32,691.77s.51-25.46-4.25-31.77c0,0-.49,23.91-2.21,28.54Z" transform="translate(0.16 0.43)"/><path class="cls-3" d="M420.44,703.56s.52-25.46-4.24-31.77c0,0-.49,23.91-2.21,28.53Z" transform="translate(0.16 0.43)"/><path class="cls-3" d="M377.75,696.44s5.26-18.22,18.39-22.62c0,0-14.45,15.86-13,25.21Z" transform="translate(0.16 0.43)"/><path class="cls-3" d="M377.18,697.39s5.26-18.22,18.39-22.61c0,0-14.46,15.86-13,25.21Z" transform="translate(0.16 0.43)"/><path class="cls-3" d="M369.16,691.35s1-22-10.32-27.55c0,0,7.18,21.27,4.79,31.78Z" transform="translate(0.16 0.43)"/><path class="cls-3" d="M345.11,697.65s-1.11-25.19,6.15-35.29c0,0-3.4,33.79-.81,39.74Z" transform="translate(0.16 0.43)"/><path class="cls-3" d="M335.52,687s.89-17.37-2.22-24.27c0,0-1.08,26.38-4.5,33.77Z" transform="translate(0.16 0.43)"/><path class="cls-3" d="M339.14,697.22s-2.37-17.13-16.89-24.88c0,0,14.77,22.35,12.45,29.45Z" transform="translate(0.16 0.43)"/><path class="cls-3" d="M413,694.19s-2.37-17.13-16.88-24.88c0,0,14.76,22.35,12.45,29.45Z" transform="translate(0.16 0.43)"/><path class="cls-3" d="M394.06,696.45s-1.48-6.86,6.79-12.9c0,0-4.11,15.13-2.05,20.14Z" transform="translate(0.16 0.43)"/><path class="cls-3" d="M390.64,700.26s.4-20,10.13-27.15c0,0-7.85,25.27-5.78,35Z" transform="translate(0.16 0.43)"/><path class="cls-3" d="M329.35,693s-5.26-27.94-8.26-30.65c0,0,3.29,29.07.77,34.47Z" transform="translate(0.16 0.43)"/><path class="cls-3" d="M372.09,698s4.42-23.41,10.19-30.06c0,0-2.64,19-2.74,24.1Z" transform="translate(0.16 0.43)"/><path class="cls-3" d="M400.79,699.83s4.41-23.42,10.19-30.06c0,0-2.65,18.94-2.75,24.09Z" transform="translate(0.16 0.43)"/><path class="cls-3" d="M350.24,692.05s6.76-27.22,2.43-36.33c0,0,8.46,27.22,3.68,41.28Z" transform="translate(0.16 0.43)"/><path class="cls-3" d="M227.46,690.22l-7.11,1.89s2.28-31.94-1.91-39.89A57.22,57.22,0,0,1,227.46,690.22Z" transform="translate(0.16 0.43)"/><path class="cls-3" d="M266.26,689.93l5.48-2.66s-.28-39.24,2-43.16C273.71,644.11,265,673.26,266.26,689.93Z" transform="translate(0.16 0.43)"/><path class="cls-3" d="M259.67,704l6.15-2.05s-.59-30.76,1.92-33.82C267.74,668.09,258.1,690.89,259.67,704Z" transform="translate(0.16 0.43)"/><path class="cls-3" d="M284.16,691.53l3.85-2.1L289.07,664S282.69,684,284.16,691.53Z" transform="translate(0.16 0.43)"/><path class="cls-3" d="M235.6,690.55s.51-25.46,5.54-31.56c0,0-.49,23.9,1,28.59Z" transform="translate(0.16 0.43)"/><path class="cls-3" d="M317,702.49s.51-25.46-4.25-31.77c0,0-.49,23.91-2.21,28.54Z" transform="translate(0.16 0.43)"/><path class="cls-3" d="M274.3,695.37s5.26-18.22,18.4-22.62c0,0-14.46,15.86-13,25.21Z" transform="translate(0.16 0.43)"/><path class="cls-3" d="M212.8,689.21s-.09-22.05,11.43-27.1c0,0-8,21-6.09,31.56Z" transform="translate(0.16 0.43)"/><path class="cls-3" d="M236.57,696.48s2.14-25.12-4.72-35.51c0,0,2,33.9-.8,39.74Z" transform="translate(0.16 0.43)"/><path class="cls-3" d="M246.58,686.27s-.19-17.4,3.21-24.17c0,0,0,26.41,3.11,33.92Z" transform="translate(0.16 0.43)"/><path class="cls-3" d="M309.56,693.12s-2.38-17.13-16.89-24.88c0,0,14.76,22.35,12.45,29.45Z" transform="translate(0.16 0.43)"/><path class="cls-3" d="M290.61,695.38s-1.48-6.86,6.79-12.9c0,0-4.11,15.13-2,20.14Z" transform="translate(0.16 0.43)"/><path class="cls-3" d="M287.19,699.2s.4-20,10.13-27.16c0,0-7.84,25.27-5.79,35Z" transform="translate(0.16 0.43)"/><path class="cls-3" d="M252.51,692.45s6.38-27.71,9.49-30.3c0,0-4.47,28.92-2.17,34.41Z" transform="translate(0.16 0.43)"/><path class="cls-3" d="M268.65,696.89s4.41-23.41,10.19-30c0,0-2.65,18.94-2.75,24.09Z" transform="translate(0.16 0.43)"/><path class="cls-3" d="M297.34,698.76s4.41-23.42,10.19-30.06c0,0-2.64,18.95-2.75,24.09Z" transform="translate(0.16 0.43)"/><path class="cls-3" d="M231.67,690.68s-5.65-27.47-1-36.4c0,0-9.56,26.86-5.34,41.1Z" transform="translate(0.16 0.43)"/><path class="cls-3" d="M259.68,696s-4.52-18.41-17.46-23.33c0,0,13.8,16.42,12,25.71Z" transform="translate(0.16 0.43)"/><path class="cls-3" d="M290.83,697.26s-2.38-17.13-16.89-24.88c0,0,14.77,22.34,12.45,29.44Z" transform="translate(0.16 0.43)"/><path class="cls-3" d="M827.84,689.64l7,2.14s-6.91-45.69-4.16-57.45C830.65,634.33,822.05,657.84,827.84,689.64Z" transform="translate(0.16 0.43)"/><path class="cls-3" d="M842,687.25l4.78-3.13s-5.23-35.93-3.63-39.81C843.18,644.31,838.7,672.14,842,687.25Z" transform="translate(0.16 0.43)"/><path class="cls-3" d="M799.24,709.05l-6-1.88s-3.08-36.18-5.8-39.55C787.41,667.62,799.17,693.56,799.24,709.05Z" transform="translate(0.16 0.43)"/><path class="cls-3" d="M859,686.76l3.27-3-3-29.91S856.45,678.19,859,686.76Z" transform="translate(0.16 0.43)"/><path class="cls-3" d="M820.28,691.25s-3.5-29.84-8.94-36.6c0,0,3.28,28,2.4,33.67Z" transform="translate(0.16 0.43)"/><path class="cls-3" d="M891.41,695.24s-3.5-29.85-8.94-36.6c0,0,3.28,28,2.39,33.67Z" transform="translate(0.16 0.43)"/><path class="cls-3" d="M850.39,692.56s2.06-22,13.65-28.89c0,0-11,20.46-8.22,31.21Z" transform="translate(0.16 0.43)"/><path class="cls-3" d="M850,693.75s2.07-22,13.66-28.89c0,0-11,20.47-8.23,31.21Z" transform="translate(0.16 0.43)"/><path class="cls-3" d="M841.57,687.74s-2.53-25.91-14-30.86c0,0,10,23.93,9.45,36.54Z" transform="translate(0.16 0.43)"/><path class="cls-3" d="M820.07,698.29s-5-29.31.23-42.09c0,0,2.11,40,5.46,46.59Z" transform="translate(0.16 0.43)"/><path class="cls-3" d="M809.45,687.15s-1.88-20.44-5.87-28.09c0,0,3.11,31,1.08,40.09Z" transform="translate(0.16 0.43)"/><path class="cls-3" d="M814.42,698.58s-4.89-19.73-19.67-26.87c0,0,17.3,24.19,16.24,32.8Z" transform="translate(0.16 0.43)"/><path class="cls-3" d="M883,685.26s-4.9-19.72-19.68-26.87c0,0,17.3,24.2,16.24,32.8Z" transform="translate(0.16 0.43)"/><path class="cls-3" d="M865.64,690.42s-2.46-7.83,4.32-16c0,0-1.47,18.25,1.24,23.84Z" transform="translate(0.16 0.43)"/><path class="cls-3" d="M863,695.33s-2.74-23.39,5.22-33.11c0,0-3.38,30.6.07,41.67Z" transform="translate(0.16 0.43)"/><path class="cls-3" d="M804.61,694.92s-9.29-32-12.51-34.77c0,0,7.62,33.57,6.11,40.22Z" transform="translate(0.16 0.43)"/><path class="cls-3" d="M845.34,695.09s.46-28,4.82-36.51c0,0,.5,22.51,1.2,28.54Z" transform="translate(0.16 0.43)"/><path class="cls-3" d="M872.45,693.47s.46-28,4.82-36.5c0,0,.5,22.5,1.2,28.54Z" transform="translate(0.16 0.43)"/><path class="cls-3" d="M824,691.06s2.06-32.74-3.41-42.81c0,0,12.16,30.71,9.89,47.8Z" transform="translate(0.16 0.43)"/><path class="cls-3" d="M709,705.17l-6.35,3.15s-2.86-37.67-8-46.42C694.58,661.9,707.91,678.75,709,705.17Z" transform="translate(0.16 0.43)"/><path class="cls-3" d="M745.17,699.69l4.71-3.84S743.48,650,745,645.11C745,645.11,741.36,680.36,745.17,699.69Z" transform="translate(0.16 0.43)"/><path class="cls-3" d="M741.21,717l5.42-3.21s-5.36-35.91-3.5-39.82C743.13,674,737.69,701.89,741.21,717Z" transform="translate(0.16 0.43)"/><path class="cls-3" d="M762.15,699.2l3.27-3-3-29.92S759.6,690.64,762.15,699.2Z" transform="translate(0.16 0.43)"/><path class="cls-3" d="M716.61,704.48s-3.5-29.85.24-37.66c0,0,3.28,28,5.45,33.31Z" transform="translate(0.16 0.43)"/><path class="cls-3" d="M794.55,707.68s-3.49-29.85-8.93-36.61c0,0,3.27,28,2.39,33.68Z" transform="translate(0.16 0.43)"/><path class="cls-3" d="M753.54,705s2.06-22,13.65-28.89c0,0-11,20.47-8.22,31.22Z" transform="translate(0.16 0.43)"/><path class="cls-3" d="M695.09,705.93s-3.53-25.79,6.44-33.21c0,0-4.23,25.57-.75,37.72Z" transform="translate(0.16 0.43)"/><path class="cls-3" d="M718.44,711.29s-1.93-29.68-10-40.92c0,0,7.2,39.39,5.46,46.6Z" transform="translate(0.16 0.43)"/><path class="cls-3" d="M726.2,698s-2.9-20.34-.77-28.7c0,0,4.12,30.89,8.21,39.27Z" transform="translate(0.16 0.43)"/><path class="cls-3" d="M786.14,697.7s-4.9-19.72-19.68-26.87c0,0,17.29,24.19,16.24,32.8Z" transform="translate(0.16 0.43)"/><path class="cls-3" d="M768.78,702.85s-2.46-7.83,4.33-16c0,0-1.48,18.24,1.24,23.83Z" transform="translate(0.16 0.43)"/><path class="cls-3" d="M766.18,707.77s-2.74-23.39,5.22-33.11c0,0-3.38,30.6.06,41.67Z" transform="translate(0.16 0.43)"/><path class="cls-3" d="M732.71,704.46s1.63-33.26,4.14-36.7c0,0,.34,34.42,3.35,40.54Z" transform="translate(0.16 0.43)"/><path class="cls-3" d="M748.49,707.52s.46-28,4.82-36.51c0,0,.49,22.52,1.2,28.55Z" transform="translate(0.16 0.43)"/><path class="cls-3" d="M775.6,705.91s.46-28,4.82-36.51c0,0,.49,22.51,1.2,28.55Z" transform="translate(0.16 0.43)"/><path class="cls-3" d="M713,705.15s-9.57-31.39-6.58-42.45c0,0-4.73,32.68,1.44,48.79Z" transform="translate(0.16 0.43)"/><path class="cls-3" d="M740,707.72s-7.11-21-20-25c0,0,15.46,17.39,15.21,28.49Z" transform="translate(0.16 0.43)"/><path class="cls-3" d="M769.28,705s-4.9-19.72-19.68-26.87c0,0,17.3,24.19,16.24,32.81Z" transform="translate(0.16 0.43)"/><path class="cls-3" d="M1029.45,688.2l7,2.63s-.84-39.16,3.7-48.7C1040.16,642.13,1027.83,660.83,1029.45,688.2Z" transform="translate(0.16 0.43)"/><path class="cls-3" d="M1044.68,687.89l5.47-2.07s-.46-30.76,1.77-33.82C1051.92,652,1043.31,674.81,1044.68,687.89Z" transform="translate(0.16 0.43)"/><path class="cls-3" d="M996.69,701.09l-6.07-2.29s1.85-30.72-.54-33.87C990.08,664.93,998.79,688.08,996.69,701.09Z" transform="translate(0.16 0.43)"/><path class="cls-3" d="M1062.57,689.49l3.86-2.1,1.06-25.45S1061.1,682,1062.57,689.49Z" transform="translate(0.16 0.43)"/><path class="cls-3" d="M1021.28,688.66s.52-25.46-4.24-31.77c0,0-.5,23.91-2.21,28.54Z" transform="translate(0.16 0.43)"/><path class="cls-3" d="M1095.41,700.45s.52-25.46-4.25-31.77c0,0-.49,23.91-2.21,28.53Z" transform="translate(0.16 0.43)"/><path class="cls-3" d="M1052.72,693.33s5.25-18.22,18.39-22.62c0,0-14.46,15.86-13,25.21Z" transform="translate(0.16 0.43)"/><path class="cls-3" d="M1052.14,694.28s5.26-18.22,18.4-22.61c0,0-14.47,15.86-13,25.21Z" transform="translate(0.16 0.43)"/><path class="cls-3" d="M1044.13,688.24s1-22-10.32-27.55c0,0,7.18,21.27,4.79,31.78Z" transform="translate(0.16 0.43)"/><path class="cls-3" d="M1020.08,694.54s-1.12-25.19,6.15-35.29c0,0-3.4,33.79-.81,39.74Z" transform="translate(0.16 0.43)"/><path class="cls-3" d="M1010.49,683.93s.89-17.37-2.23-24.27c0,0-1.08,26.38-4.49,33.77Z" transform="translate(0.16 0.43)"/><path class="cls-3" d="M1014.11,694.11s-2.38-17.13-16.9-24.88c0,0,14.77,22.35,12.46,29.45Z" transform="translate(0.16 0.43)"/><path class="cls-3" d="M1088,691.08s-2.37-17.13-16.89-24.88c0,0,14.76,22.35,12.45,29.45Z" transform="translate(0.16 0.43)"/><path class="cls-3" d="M1069,693.34s-1.49-6.86,6.78-12.9c0,0-4.11,15.13-2,20.14Z" transform="translate(0.16 0.43)"/><path class="cls-3" d="M1065.6,697.15s.41-19.95,10.13-27.15c0,0-7.84,25.27-5.78,35Z" transform="translate(0.16 0.43)"/><path class="cls-3" d="M1004.31,689.87s-5.26-27.94-8.25-30.65c0,0,3.28,29.07.77,34.47Z" transform="translate(0.16 0.43)"/><path class="cls-3" d="M1047.06,694.85s4.41-23.41,10.19-30.06c0,0-2.64,19-2.75,24.1Z" transform="translate(0.16 0.43)"/><path class="cls-3" d="M1075.75,696.72s4.42-23.42,10.19-30.06c0,0-2.64,18.94-2.74,24.09Z" transform="translate(0.16 0.43)"/><path class="cls-3" d="M1025.21,688.94s6.75-27.22,2.43-36.33c0,0,8.46,27.22,3.67,41.28Z" transform="translate(0.16 0.43)"/><path class="cls-3" d="M902.42,687.11l-7.1,1.89s2.28-31.94-1.92-39.89A57.22,57.22,0,0,1,902.42,687.11Z" transform="translate(0.16 0.43)"/><path class="cls-3" d="M941.23,686.82l5.48-2.66s-.28-39.24,2-43.16C948.67,641,939.94,670.15,941.23,686.82Z" transform="translate(0.16 0.43)"/><path class="cls-3" d="M934.64,700.85l6.15-2.05S940.2,668,942.7,665C942.7,665,933.06,687.78,934.64,700.85Z" transform="translate(0.16 0.43)"/><path class="cls-3" d="M959.12,688.42l3.86-2.1L964,660.87S957.65,680.93,959.12,688.42Z" transform="translate(0.16 0.43)"/><path class="cls-3" d="M910.56,687.44s.52-25.46,5.54-31.56c0,0-.48,23.9,1,28.59Z" transform="translate(0.16 0.43)"/><path class="cls-3" d="M992,699.38s.52-25.46-4.24-31.77c0,0-.5,23.91-2.22,28.54Z" transform="translate(0.16 0.43)"/><path class="cls-3" d="M949.27,692.26s5.26-18.22,18.39-22.62c0,0-14.45,15.86-13,25.21Z" transform="translate(0.16 0.43)"/><path class="cls-3" d="M887.76,686.1s-.08-22.05,11.43-27.1c0,0-8,21-6.08,31.56Z" transform="translate(0.16 0.43)"/><path class="cls-3" d="M911.53,693.37s2.14-25.12-4.71-35.51c0,0,2,33.9-.81,39.74Z" transform="translate(0.16 0.43)"/><path class="cls-3" d="M921.55,683.16s-.2-17.4,3.21-24.17c0,0,0,26.41,3.11,33.92Z" transform="translate(0.16 0.43)"/><path class="cls-3" d="M984.52,690s-2.37-17.13-16.89-24.88c0,0,14.77,22.35,12.45,29.45Z" transform="translate(0.16 0.43)"/><path class="cls-3" d="M965.58,692.27s-1.49-6.86,6.78-12.9c0,0-4.1,15.13-2,20.14Z" transform="translate(0.16 0.43)"/><path class="cls-3" d="M962.15,696.09s.41-20,10.13-27.16c0,0-7.84,25.27-5.78,35Z" transform="translate(0.16 0.43)"/><path class="cls-3" d="M927.47,689.34s6.39-27.71,9.5-30.3c0,0-4.47,28.92-2.17,34.41Z" transform="translate(0.16 0.43)"/><path class="cls-3" d="M943.61,693.78s4.41-23.41,10.19-30c0,0-2.64,18.94-2.75,24.09Z" transform="translate(0.16 0.43)"/><path class="cls-3" d="M972.31,695.65s4.41-23.42,10.19-30.06c0,0-2.65,18.95-2.75,24.09Z" transform="translate(0.16 0.43)"/><path class="cls-3" d="M906.63,687.57s-5.65-27.47-1-36.4c0,0-9.55,26.86-5.33,41.1Z" transform="translate(0.16 0.43)"/><path class="cls-3" d="M934.65,692.93s-4.52-18.41-17.47-23.33c0,0,13.81,16.42,12,25.71Z" transform="translate(0.16 0.43)"/><path class="cls-3" d="M965.79,694.15S963.42,677,948.9,669.27c0,0,14.77,22.34,12.46,29.44Z" transform="translate(0.16 0.43)"/><path class="cls-3" d="M1174.32,693.16l4.89,2.58s-.35-39.14,2.88-48.71C1182.09,647,1173.36,665.8,1174.32,693.16Z" transform="translate(0.16 0.43)"/><path class="cls-3" d="M1185,692.75l3.84-2.09s-.13-30.76,1.44-33.83C1190.25,656.83,1184.1,679.69,1185,692.75Z" transform="translate(0.16 0.43)"/><path class="cls-3" d="M1151.35,706.24l-4.23-2.25s1.47-30.73-.17-33.87C1147,670.12,1152.89,693.23,1151.35,706.24Z" transform="translate(0.16 0.43)"/><path class="cls-3" d="M1197.47,694.25l2.71-2.12.89-25.46S1196.49,686.77,1197.47,694.25Z" transform="translate(0.16 0.43)"/><path class="cls-3" d="M1168.61,693.67s.52-25.46-2.77-31.74c0,0-.49,23.91-1.72,28.54Z" transform="translate(0.16 0.43)"/><path class="cls-3" d="M1220.36,705s.52-25.46-2.77-31.74c0,0-.5,23.91-1.72,28.54Z" transform="translate(0.16 0.43)"/><path class="cls-3" d="M1190.56,698.15s3.78-18.25,13-22.73c0,0-10.2,15.94-9.25,25.28Z" transform="translate(0.16 0.43)"/><path class="cls-3" d="M1190.15,699.1s3.79-18.25,13-22.72c0,0-10.21,16-9.26,25.28Z" transform="translate(0.16 0.43)"/><path class="cls-3" d="M1184.58,693.11s.83-22-7-27.48c0,0,4.89,21.22,3.15,31.74Z" transform="translate(0.16 0.43)"/><path class="cls-3" d="M1167.73,699.55s-.62-25.17,4.52-35.32c0,0-2.58,33.8-.81,39.74Z" transform="translate(0.16 0.43)"/><path class="cls-3" d="M1161.1,689s.72-17.38-1.41-24.26c0,0-.92,26.38-3.35,33.79Z" transform="translate(0.16 0.43)"/><path class="cls-3" d="M1163.56,699.16S1162,682,1151.91,674.38c0,0,10.18,22.26,8.52,29.37Z" transform="translate(0.16 0.43)"/><path class="cls-3" d="M1215.22,695.69s-1.56-17.12-11.66-24.78c0,0,10.19,22.26,8.53,29.37Z" transform="translate(0.16 0.43)"/><path class="cls-3" d="M1202,698.06a16.63,16.63,0,0,1,4.82-12.95s-3,15.17-1.55,20.16Z" transform="translate(0.16 0.43)"/><path class="cls-3" d="M1199.54,701.89s.41-19.95,7.25-27.21c0,0-5.64,25.31-4.25,35Z" transform="translate(0.16 0.43)"/><path class="cls-3" d="M1156.74,695s-3.5-27.91-5.58-30.6c0,0,2.12,29,.33,34.46Z" transform="translate(0.16 0.43)"/><path class="cls-3" d="M1186.59,699.7s3.23-23.44,7.31-30.11c0,0-2,18.95-2.07,24.1Z" transform="translate(0.16 0.43)"/><path class="cls-3" d="M1206.64,701.39s3.23-23.43,7.31-30.11c0,0-2,19-2.07,24.1Z" transform="translate(0.16 0.43)"/><path class="cls-3" d="M1171.35,693.92s4.89-27.26,1.93-36.33c0,0,5.74,27.15,2.31,41.25Z" transform="translate(0.16 0.43)"/><path class="cls-3" d="M1085.53,692.84l-5,1.93s1.79-31.95-1.09-39.88C1079.46,654.89,1087.5,670.53,1085.53,692.84Z" transform="translate(0.16 0.43)"/><path class="cls-3" d="M1112.66,692.31l3.85-2.7s0-39.23,1.64-43.16C1118.15,646.45,1111.86,675.65,1112.66,692.31Z" transform="translate(0.16 0.43)"/><path class="cls-3" d="M1108,706.38l4.31-2.09s-.23-30.75,1.55-33.83C1113.83,670.46,1107,693.31,1108,706.38Z" transform="translate(0.16 0.43)"/><path class="cls-3" d="M1125.16,693.8l2.71-2.12.9-25.45S1124.18,686.33,1125.16,693.8Z" transform="translate(0.16 0.43)"/><path class="cls-3" d="M1091.22,693.12s.52-25.46,4.07-31.6c0,0-.49,23.9.55,28.59Z" transform="translate(0.16 0.43)"/><path class="cls-3" d="M1148.05,704.56s.52-25.45-2.77-31.74c0,0-.5,23.91-1.72,28.55Z" transform="translate(0.16 0.43)"/><path class="cls-3" d="M1118.25,697.7s3.79-18.25,13-22.73c0,0-10.2,15.95-9.25,25.29Z" transform="translate(0.16 0.43)"/><path class="cls-3" d="M1075.29,691.92s.07-22,8.15-27.17c0,0-5.74,21-4.44,31.59Z" transform="translate(0.16 0.43)"/><path class="cls-3" d="M1091.86,699s1.65-25.13-3.08-35.48c0,0,1.21,33.88-.8,39.74Z" transform="translate(0.16 0.43)"/><path class="cls-3" d="M1098.92,688.77s0-17.4,2.4-24.18c0,0-.16,26.39,2,33.89Z" transform="translate(0.16 0.43)"/><path class="cls-3" d="M1142.91,695.24s-1.56-17.11-11.66-24.77c0,0,10.19,22.25,8.53,29.37Z" transform="translate(0.16 0.43)"/><path class="cls-3" d="M1129.65,697.62a16.62,16.62,0,0,1,4.82-13s-3,15.16-1.55,20.16Z" transform="translate(0.16 0.43)"/><path class="cls-3" d="M1127.23,701.45s.41-20,7.25-27.22c0,0-5.64,25.32-4.26,35Z" transform="translate(0.16 0.43)"/><path class="cls-3" d="M1103,694.91s4.63-27.74,6.82-30.35c0,0-3.3,28.94-1.72,34.42Z" transform="translate(0.16 0.43)"/><path class="cls-3" d="M1114.28,699.26s3.23-23.44,7.31-30.12c0,0-2,19-2.07,24.11Z" transform="translate(0.16 0.43)"/><path class="cls-3" d="M1134.33,701s3.23-23.44,7.31-30.12c0,0-2,19-2.07,24.11Z" transform="translate(0.16 0.43)"/><path class="cls-3" d="M1088.47,693.27s-3.78-27.44-.45-36.39c0,0-6.84,26.91-4,41.13Z" transform="translate(0.16 0.43)"/><path class="cls-3" d="M1108,698.46s-3-18.39-12.06-23.23c0,0,9.55,16.34,8.22,25.64Z" transform="translate(0.16 0.43)"/><path class="cls-3" d="M1129.79,699.49s-1.56-17.12-11.66-24.78c0,0,10.19,22.26,8.53,29.37Z" transform="translate(0.16 0.43)"/><path class="cls-3" d="M532.63,705l5.83,2.24s-.66-33.41,3.12-41.54C541.58,665.69,531.3,681.64,532.63,705Z" transform="translate(0.16 0.43)"/><path class="cls-3" d="M545.3,704.72l4.55-1.76s-.35-26.25,1.51-28.86C551.36,674.1,544.17,693.56,545.3,704.72Z" transform="translate(0.16 0.43)"/><path class="cls-3" d="M505.35,716l-5-2s1.56-26.21-.42-28.9C499.89,685.13,507.11,704.89,505.35,716Z" transform="translate(0.16 0.43)"/><path class="cls-3" d="M560.19,706.09l3.21-1.79.9-21.71S559,699.7,560.19,706.09Z" transform="translate(0.16 0.43)"/><path class="cls-3" d="M525.83,705.38s.45-21.72-3.5-27.1c0,0-.44,20.39-1.87,24.34Z" transform="translate(0.16 0.43)"/><path class="cls-3" d="M587.51,715.44s.45-21.72-3.51-27.1c0,0-.43,20.39-1.86,24.34Z" transform="translate(0.16 0.43)"/><path class="cls-3" d="M552,709.36s4.4-15.54,15.33-19.29c0,0-12,13.53-10.85,21.5Z" transform="translate(0.16 0.43)"/><path class="cls-3" d="M551.51,710.18s4.39-15.55,15.32-19.3c0,0-12.05,13.54-10.86,21.51Z" transform="translate(0.16 0.43)"/><path class="cls-3" d="M544.84,705s.84-18.8-8.56-23.5c0,0,6,18.14,4,27.11Z" transform="translate(0.16 0.43)"/><path class="cls-3" d="M524.82,710.39s-.9-21.48,5.15-30.1c0,0-2.86,28.82-.71,33.9Z" transform="translate(0.16 0.43)"/><path class="cls-3" d="M516.85,701.35s.76-14.83-1.83-20.71c0,0-.92,22.5-3.77,28.81Z" transform="translate(0.16 0.43)"/><path class="cls-3" d="M519.85,710s-2-14.62-14-21.23c0,0,12.27,19.07,10.34,25.12Z" transform="translate(0.16 0.43)"/><path class="cls-3" d="M581.32,707.45s-2-14.62-14-21.23c0,0,12.27,19.07,10.34,25.12Z" transform="translate(0.16 0.43)"/><path class="cls-3" d="M565.56,709.37s-1.23-5.85,5.65-11c0,0-3.43,12.92-1.71,17.19Z" transform="translate(0.16 0.43)"/><path class="cls-3" d="M562.7,712.63s.36-17,8.46-23.17c0,0-6.55,21.56-4.84,29.83Z" transform="translate(0.16 0.43)"/><path class="cls-3" d="M511.71,706.41s-4.35-23.84-6.85-26.15c0,0,2.72,24.8.61,29.41Z" transform="translate(0.16 0.43)"/><path class="cls-3" d="M547.28,710.66s3.69-20,8.5-25.64c0,0-2.21,16.16-2.31,20.55Z" transform="translate(0.16 0.43)"/><path class="cls-3" d="M571.15,712.25s3.69-20,8.51-25.64c0,0-2.22,16.16-2.31,20.55Z" transform="translate(0.16 0.43)"/><path class="cls-3" d="M529.1,705.62s5.64-23.23,2-31c0,0,7,23.21,3,35.21Z" transform="translate(0.16 0.43)"/><path class="cls-3" d="M426.92,704.06,421,705.67s1.92-27.25-1.56-34A49.71,49.71,0,0,1,426.92,704.06Z" transform="translate(0.16 0.43)"/><path class="cls-3" d="M459.22,703.81l4.56-2.27s-.21-33.48,1.67-36.82C465.45,664.72,458.15,689.59,459.22,703.81Z" transform="translate(0.16 0.43)"/><path class="cls-3" d="M453.72,715.78l5.12-1.75s-.47-26.24,1.62-28.85C460.46,685.18,452.42,704.62,453.72,715.78Z" transform="translate(0.16 0.43)"/><path class="cls-3" d="M474.1,705.17l3.21-1.79.91-21.71S472.89,698.79,474.1,705.17Z" transform="translate(0.16 0.43)"/><path class="cls-3" d="M433.69,704.34s.46-21.72,4.64-26.93c0,0-.42,20.39.85,24.39Z" transform="translate(0.16 0.43)"/><path class="cls-3" d="M501.42,714.52s.45-21.71-3.5-27.1c0,0-.44,20.4-1.87,24.34Z" transform="translate(0.16 0.43)"/><path class="cls-3" d="M465.9,708.45s4.39-15.55,15.33-19.3c0,0-12.05,13.54-10.86,21.51Z" transform="translate(0.16 0.43)"/><path class="cls-3" d="M414.72,703.2s-.05-18.82,9.54-23.12c0,0-6.71,17.87-5.09,26.92Z" transform="translate(0.16 0.43)"/><path class="cls-3" d="M434.49,709.4s1.81-21.44-3.89-30.3c0,0,1.66,28.92-.7,33.91Z" transform="translate(0.16 0.43)"/><path class="cls-3" d="M442.84,700.68s-.15-14.84,2.69-20.61c0,0,0,22.52,2.56,28.94Z" transform="translate(0.16 0.43)"/><path class="cls-3" d="M495.24,706.53s-2-14.61-14-21.22c0,0,12.26,19.06,10.33,25.12Z" transform="translate(0.16 0.43)"/><path class="cls-3" d="M479.47,708.46s-1.23-5.85,5.66-11c0,0-3.43,12.91-1.72,17.19Z" transform="translate(0.16 0.43)"/><path class="cls-3" d="M476.62,711.71s.35-17,8.45-23.16c0,0-6.55,21.56-4.84,29.83Z" transform="translate(0.16 0.43)"/><path class="cls-3" d="M447.76,706s5.34-23.63,7.93-25.84c0,0-3.74,24.67-1.83,29.35Z" transform="translate(0.16 0.43)"/><path class="cls-3" d="M461.19,709.75s3.69-20,8.51-25.64c0,0-2.22,16.16-2.31,20.55Z" transform="translate(0.16 0.43)"/><path class="cls-3" d="M485.07,711.34s3.69-20,8.5-25.64c0,0-2.21,16.16-2.3,20.55Z" transform="translate(0.16 0.43)"/><path class="cls-3" d="M430.42,704.45s-4.67-23.44-.76-31.05c0,0-8,22.91-4.48,35.06Z" transform="translate(0.16 0.43)"/><path class="cls-3" d="M453.73,709s-3.75-15.71-14.51-19.9c0,0,11.47,14,9.95,21.93Z" transform="translate(0.16 0.43)"/><path class="cls-3" d="M479.65,710.06s-2-14.61-14-21.23c0,0,12.27,19.07,10.33,25.13Z" transform="translate(0.16 0.43)"/><path class="cls-3" d="M.79,710.09a999.92,999.92,0,0,1,201.38-25.41C256.68,683.45,308.65,687,340.5,689c118.91,7.31,122.41,13.81,251.81,14.63s57.13-13,251.81-19.51,258.81,4.06,299.61,5.69,81.61-2.44,81.61-2.44v104L.09,792.18Q.44,751.14.79,710.09Z" transform="translate(0.16 0.43)"/><path class="cls-3" d="M669,701.21l4.28,1.84s-3.13-33.25-1.12-41.61C672.2,661.44,666.25,678,669,701.21Z" transform="translate(0.16 0.43)"/><path class="cls-3" d="M677.92,700.1l3.06-2.05s-2.34-26.14-1.25-28.86C679.73,669.19,676.24,689.06,677.92,700.1Z" transform="translate(0.16 0.43)"/><path class="cls-3" d="M650.78,714l-3.7-1.62s-1-26.22-2.6-28.77C644.48,683.57,651.13,702.79,650.78,714Z" transform="translate(0.16 0.43)"/><path class="cls-3" d="M688.48,700.49l2.11-2-1.09-21.7S687.12,694.2,688.48,700.49Z" transform="translate(0.16 0.43)"/><path class="cls-3" d="M664.31,702s-1.42-21.67-4.63-26.78c0,0,1.33,20.36.63,24.39Z" transform="translate(0.16 0.43)"/><path class="cls-3" d="M708.4,708s-1.41-21.68-4.62-26.79c0,0,1.33,20.36.63,24.39Z" transform="translate(0.16 0.43)"/><path class="cls-3" d="M683,704.29s1.85-15.78,9.22-20.24c0,0-7.37,14.28-5.9,22.15Z" transform="translate(0.16 0.43)"/><path class="cls-3" d="M682.71,705.13s1.85-15.78,9.22-20.24c0,0-7.38,14.29-5.9,22.15Z" transform="translate(0.16 0.43)"/><path class="cls-3" d="M677.62,700.43s-.91-18.79-7.88-22.85c0,0,5.63,17.68,4.94,26.76Z" transform="translate(0.16 0.43)"/><path class="cls-3" d="M664,707.11s-2.35-21.36,1.21-30.35c0,0,.29,28.92,2.21,33.84Z" transform="translate(0.16 0.43)"/><path class="cls-3" d="M657.68,698.61s-.65-14.82-2.94-20.51c0,0,1.15,22.49-.35,29Z" transform="translate(0.16 0.43)"/><path class="cls-3" d="M660.48,707.07s-2.54-14.44-11.55-20.23c0,0,10.14,18.19,9.26,24.36Z" transform="translate(0.16 0.43)"/><path class="cls-3" d="M703.43,700.45s-2.55-14.44-11.55-20.23c0,0,10.13,18.2,9.26,24.36Z" transform="translate(0.16 0.43)"/><path class="cls-3" d="M692.51,703.41a14.34,14.34,0,0,1,3.1-11.35s-1.38,13.1.16,17.25Z" transform="translate(0.16 0.43)"/><path class="cls-3" d="M690.77,706.84s-1.11-17,4.09-23.65c0,0-2.88,21.92-1,30.06Z" transform="translate(0.16 0.43)"/><path class="cls-3" d="M654.47,704s-5-23.47-6.89-25.61c0,0,3.88,24.54,2.78,29.27Z" transform="translate(0.16 0.43)"/><path class="cls-3" d="M679.78,705.9s1-20.16,3.93-26.12c0,0-.27,16.25,0,20.64Z" transform="translate(0.16 0.43)"/><path class="cls-3" d="M696.67,705.91s1-20.15,3.93-26.11c0,0-.27,16.24,0,20.63Z" transform="translate(0.16 0.43)"/><path class="cls-3" d="M666.62,702.07s2.11-23.53-1-31c0,0,6.77,22.68,4.93,34.91Z" transform="translate(0.16 0.43)"/><path class="cls-3" d="M594.76,707.24l-4,2s-.82-27.29-3.81-33.83C586.93,675.41,594.79,688.14,594.76,707.24Z" transform="translate(0.16 0.43)"/><path class="cls-3" d="M617.41,704.86l3-2.56s-2.82-33.35-1.77-36.81C618.67,665.49,615.53,690.76,617.41,704.86Z" transform="translate(0.16 0.43)"/><path class="cls-3" d="M614.51,717.16l3.45-2.08s-2.42-26.13-1.16-28.87C616.8,686.21,612.71,706.12,614.51,717.16Z" transform="translate(0.16 0.43)"/><path class="cls-3" d="M628,705.24l2.11-2-1.1-21.7S626.61,699,628,705.24Z" transform="translate(0.16 0.43)"/><path class="cls-3" d="M599.54,707.07s-1.41-21.67,1.11-27.14c0,0,1.33,20.35,2.54,24.26Z" transform="translate(0.16 0.43)"/><path class="cls-3" d="M647.9,712.77s-1.42-21.68-4.62-26.79c0,0,1.32,20.36.63,24.39Z" transform="translate(0.16 0.43)"/><path class="cls-3" d="M622.48,709.05s1.84-15.78,9.22-20.24c0,0-7.38,14.28-5.9,22.15Z" transform="translate(0.16 0.43)"/><path class="cls-3" d="M586.13,707.18s-1.54-18.75,4.85-23.67c0,0-3.28,18.26-1.43,27.17Z" transform="translate(0.16 0.43)"/><path class="cls-3" d="M600.51,712.06s-.45-21.48-5.15-29.94c0,0,3.47,28.72,2.21,33.84Z" transform="translate(0.16 0.43)"/><path class="cls-3" d="M605.67,702.83s-1.29-14.79.24-20.73c0,0,1.78,22.46,4.11,28.68Z" transform="translate(0.16 0.43)"/><path class="cls-3" d="M642.92,705.21s-2.54-14.44-11.54-20.23c0,0,10.13,18.19,9.26,24.36Z" transform="translate(0.16 0.43)"/><path class="cls-3" d="M632,708.17a14.35,14.35,0,0,1,3.09-11.35s-1.38,13.1.17,17.24Z" transform="translate(0.16 0.43)"/><path class="cls-3" d="M630.26,711.6s-1.11-17,4.09-23.65c0,0-2.88,21.92-1,30.06Z" transform="translate(0.16 0.43)"/><path class="cls-3" d="M609.55,707.76s1.86-23.91,3.5-26.28c0,0-.66,24.83,1.05,29.38Z" transform="translate(0.16 0.43)"/><path class="cls-3" d="M619.27,710.66s1-20.16,3.93-26.12c0,0-.27,16.25,0,20.63Z" transform="translate(0.16 0.43)"/><path class="cls-3" d="M636.16,710.67s1-20.15,3.93-26.12c0,0-.27,16.26,0,20.64Z" transform="translate(0.16 0.43)"/><path class="cls-3" d="M597.25,707.4s-5.15-23.06-3-30.9c0,0-3.77,23.36-.35,35.24Z" transform="translate(0.16 0.43)"/><path class="cls-3" d="M614,710.42S610.1,695,602.21,691.54c0,0,9.17,13.21,8.73,21.2Z" transform="translate(0.16 0.43)"/><path class="cls-3" d="M632.26,709.75s-2.54-14.44-11.55-20.23c0,0,10.14,18.19,9.26,24.36Z" transform="translate(0.16 0.43)"/></g></svg>