<svg id="Layer_3" data-name="Layer 3" xmlns="http://www.w3.org/2000/svg" viewBox="0 0 228.31 287.43"><defs><style>.cls-1{fill:#617031;}</style></defs><path class="cls-1" d="M599.33,311c-3.62-26.45-3.74-32.49-3.06-32.61,1.78-.33,10.67,39.13,11.73,43.82,2.16,9.62,4.07,18.86,4.07,18.86,1.22,5.94,4.75,23.78,3.57,17.84,2.32,17.54,2.17,28.38,1.53,35.16a85.47,85.47,0,0,0,.64,22.94c.32,1.95.66,3.55.89,4.58l-.51,55c0,17.33,5.6,44.34,5.6,44.34l-6.62,2.55a249.81,249.81,0,0,1-3.57-29.56c-.74-12.43-.14-18.41,0-46.89,0-1.28.06-11.14,0-21.91-.07-13.42-.31-31.05-1-52Q606,342,599.33,311Z" transform="translate(-498.94 -236.05)"/><path class="cls-1" d="M603.41,322.68C595.26,266.63,544.29,285,544.29,285c-43.82,20.39-36.18,66.25-36.18,66.25,3.57,10.71,5.61,6.12,5.61,6.12v-9.68q32.87-28.8,65.74-57.59C592.71,285.48,603.41,322.68,603.41,322.68Z" transform="translate(-498.94 -236.05)"/><path class="cls-1" d="M615.13,379.25a13.85,13.85,0,0,1,2-8.66c1.58-2.34,5.76-6.54,22.42-6.12,9,.23,23.52,1.86,41.28,9.69a31.34,31.34,0,0,1,11.72,13.76c3.42,8,4.76,20.83-1,25-9.54,6.82-34-13.36-37.21-16.06a98,98,0,0,1-15.8-16.56,12.52,12.52,0,0,0-23.44-1Z" transform="translate(-498.94 -236.05)"/><path class="cls-1" d="M513.72,425.63h0c-1,6.11-14.78,13.76-14.78,13.76,38.73,12.74,80.52-28,80.52-28,5.17-4.35,10.81-8.8,16.94-13.25,4.83-3.51,9.56-6.73,14.14-9.68-19.45-6.39-33.78-5-43.82-2C538.14,394.89,513.72,425.63,513.72,425.63Z" transform="translate(-498.94 -236.05)"/><path class="cls-1" d="M683.74,318.22a79.12,79.12,0,0,1,29.24,6.5c14.78,9.18,14.27,27.52,14.27,27.52-10.1-3.25-18.58-5.33-24.46-6.62-28.37-6.24-49.25-10.84-69.31-2.55-7.08,2.92-17.17,8.73-17.84,7.64-.28-.45,1.22-1.89,2.55-3C623.45,342.08,647.92,317.35,683.74,318.22Z" transform="translate(-498.94 -236.05)"/><path class="cls-1" d="M603.41,322.68c-.27-.05-3.36-33.82,16.74-52.17,12.23-11.17,34.73-18.15,34.73-18.15h0c14.4-2.81,24.21.63,28.54,2.54,6.79,3,11.33,7.23,18.35,13.76a137.15,137.15,0,0,1,15.29,16.82c-10.06-5.19-34.77-16.08-64.6-10.19a91.27,91.27,0,0,0-23.57,8.15,52.33,52.33,0,0,0-18.35,17.33A49.1,49.1,0,0,0,603.41,322.68Z" transform="translate(-498.94 -236.05)"/><path class="cls-1" d="M575.76,336.51A68.7,68.7,0,0,0,557,337c-31.08,2-32.61,21.92-32.61,21.92l6.62-5.61c17.05,4,29.31,2.74,37.59.64a147.65,147.65,0,0,1,21.53-4.72,121.27,121.27,0,0,1,16.82-1A70.17,70.17,0,0,0,575.76,336.51Z" transform="translate(-498.94 -236.05)"/><path class="cls-1" d="M601.88,302.3c6.12-66.25-37.71-66.25-37.71-66.25C552.45,250.83,601.88,302.3,601.88,302.3Z" transform="translate(-498.94 -236.05)"/></svg>