<svg xmlns="http://www.w3.org/2000/svg" viewBox="0 0 479.69 641.2"><defs><style>.cls-1{fill:#ab5d2e;}.cls-2{fill:#fff;}.cls-2,.cls-9{stroke:#231f20;stroke-miterlimit:10;}.cls-3{fill:#f37446;}.cls-4{fill:#f16942;}.cls-5{fill:#e96140;}.cls-6{fill:#5e2c12;}.cls-7{fill:#521413;}.cls-8{fill:#c72b28;}.cls-9{fill:none;}.cls-10{fill:#d33627;}.cls-11{fill:#c73828;}.cls-12{fill:#c32a28;}.cls-13{fill:#f05630;}</style></defs><title>bag</title><g id="Layer_3" data-name="Layer 3"><path class="cls-1" d="M306.49,62.7l-.39.37Z" transform="translate(-74.32 -50.13)"/><path class="cls-1" d="M307.48,61.78l-1,.92Z" transform="translate(-74.32 -50.13)"/><path class="cls-1" d="M306.1,63.07l-.08.08Z" transform="translate(-74.32 -50.13)"/><path class="cls-1" d="M308.41,60.91l-.93.87Z" transform="translate(-74.32 -50.13)"/><path class="cls-1" d="M306,63.15l-.31.28Z" transform="translate(-74.32 -50.13)"/><path class="cls-1" d="M242,163.51s0-.35,0-1h0C241.82,162.58,242,163.51,242,163.51Z" transform="translate(-74.32 -50.13)"/><path class="cls-1" d="M308.85,60.5l-.44.41C308.56,60.77,308.7,60.65,308.85,60.5Z" transform="translate(-74.32 -50.13)"/><path class="cls-1" d="M305.52,63.62l-.15.13Z" transform="translate(-74.32 -50.13)"/><path class="cls-1" d="M305.06,64Z" transform="translate(-74.32 -50.13)"/><path class="cls-1" d="M305.1,64l0,0Z" transform="translate(-74.32 -50.13)"/><path class="cls-1" d="M402.8,98.54,372.25,55.31l-23.63-5.18H325.57s-8.07,2.3-16.72,10.37l-46.68,45a50.43,50.43,0,0,0-9.11,11.79c-10.94,18.38-11.1,40.4-11,45.27.18,0,.49.78,1.07.81l.45-.08c.34-.06.57-.12.76-.16,8.73-1.79,23-2.78,23-2.78a9.57,9.57,0,0,0,1.17-.08c8.22-.35,14.36,3.68,16.2,4.75,5.36,3.11,9.35,1.46,31.91.75,12.66-.4,22.15-.22,33.4,0,14.59.28,20.47.81,33.4.49,7.35-.18,13.33-.55,17.15-.82l5.76-22.48S408.56,114.1,402.8,98.54Zm-49.49,63.51-66.18-2.18,1.31-.44c3.72-12.88,6.77-40.4,6.77-40.4l.88-17.25,26.2-6.34,16.6-.65,12.67-.44,17.25,2,.44,20.53C364.66,147.86,353.31,162.05,353.31,162.05Z" transform="translate(-74.32 -50.13)"/><path class="cls-1" d="M305.71,63.43l-.19.19Z" transform="translate(-74.32 -50.13)"/><path class="cls-1" d="M305.17,63.94l-.07.07Z" transform="translate(-74.32 -50.13)"/><path class="cls-1" d="M305.37,63.75l-.2.19Z" transform="translate(-74.32 -50.13)"/></g><g id="Layer_2" data-name="Layer 2"><path class="cls-2" d="M78,266" transform="translate(-74.32 -50.13)"/><path class="cls-3" d="M93.88,232.25c59.36-47.26,85.29-50.14,85.29-50.14,1.16-4.61,6.34-8.65,6.34-8.65,21.91-5.76,36.31-2.3,36.31-2.3,5.19-4-5.18-1.15,27.67-8.65s66.28-2.3,66.28-2.3h50.14l23,2.3c79.54,17.87,95.1,42.08,95.1,42.08,12.68,5.76,19,7.49,19,7.49,21.9,8.64,28.24,23.63,28.24,23.63,0,10.37,9.22,20.17,9.22,20.17,16.72,26.51,11,80.11,11,80.11,5.77,50.72-11,69.74-4.61,86.45s4,38.62,4,38.62l2.3,22.48c1.15,16.71-5.19,20.17-5.19,20.17-2.88,6.34,2.31,16.14,2.31,16.14,1.15,12.1-6.34,25.36-6.34,25.36-5.19,11.52-8.07,25.93-8.07,25.93-5.19,25.94-23,37.46-23,37.46-11.53,9.23-35.16,12.11-35.16,12.11l-2.88,13.83s-2.31-10.95.57,2.88a21.41,21.41,0,0,1-7.49,21.33c-16.14,17.29-34,18.44-34,18.44-114.69,17.87-194.81,10.95-194.81,10.95-86.45-9.8-85.87-29.39-85.87-29.39C134.8,614.94,134.8,618.4,134.8,618.4c-18.45-6.34-27.09-15.56-27.09-15.56-9.8-1.73-16.14-13.26-16.14-13.26a37.22,37.22,0,0,1-5.76-11.52c-8.65-15-5.77-11.53-1.73-30s-4-13.83-5.19-21.33c-2.3-15,5.19-52.44,5.19-52.44-8.65-5.19-6.92-15-6.92-15,17,18.85,21.09,23.88,20.8,24.15-.52.49-19-11.37-23-30.43-1.66-8,.47-11.18.56-30.81,0-9.07-.38-16.49-.74-21.33q1.2-31,2.39-62h0c3.34-27.9,3.64-45.58,3.26-57.51-.14-4.54-2.62-11.88-1-21.45C81.64,247.46,88.44,238.17,93.88,232.25Z" transform="translate(-74.32 -50.13)"/><path class="cls-4" d="M197.62,251.83C225.11,209,230.51,205,236.37,212.17s-5.86,18-13.07,27l-7.21,9h0c5,14,18,19.38,18,19.38-37.4,27-51.82,31.54-51.82,31.54Z" transform="translate(-74.32 -50.13)"/><path class="cls-4" d="M459.28,164.89" transform="translate(-74.32 -50.13)"/><path class="cls-5" d="M443.94,179.66c40.35,10.8,29.66,19.73,40.12,24.93s32.06,14.29,32.06,14.29c19.9,12.51,15.2,16.83,15.2,16.83,1.28,8.18-29.41-25.35,1.28,8.18S551.49,336,551.49,336c1,9.07.44,41.47.44,41.47s.57-23.87-2.27,0S544.54,411,544.54,411l.57,9.1,4,9.09c6.82,18.19,1.83,31.88,1.83,31.88l2.3,22.48c3.83,20.1-7.54,22.94-7.54,22.94l4.66,13.37-3,15.62-28.42,29,10.23-22.17,11.94-19.89c9.66-52.3-11.37-70.48-11.37-70.48l.61-3.38" transform="translate(-74.32 -50.13)"/><path class="cls-4" d="M546.25,408.15l-7.39-14.78-35.81-34.1s-35.24-48.88-51.72-97.76c0,0-13.64-44.33,9.09-74.46" transform="translate(-74.32 -50.13)"/><path class="cls-3" d="M74.21,440.24" transform="translate(-74.32 -50.13)"/></g><g id="Layer_4" data-name="Layer 4"><path class="cls-6" d="M296,101.32c-12.51,1.23-43.24,16.06-43.24,16.06l4.17-6.33c27.33-16.22,64.7-20.85,64.7-20.85,23-2,52.5,2.16,52.5,2.16,19.15,1.86,29.8,10.35,29.8,10.35l1.08,4.79c-20.53-10.35-37.06-11-37.06-11l-15.9-2.31-29.34,1.23-26.87,6.49" transform="translate(-74.32 -50.13)"/></g><g id="Layer_5" data-name="Layer 5"><path class="cls-7" d="M82,466.34C88,422.19,110.09,416.66,152.44,375,195.92,332.15,307.63,266.6,307.63,266.6l44.14-.67,56.86,51.51,51.51,50.83,30.77,28.1,26.75,30.1,12.71,22.07c-18.73-11.37-52.17,10-52.17,10C426.69,482.66,391.91,482,391.91,482c-64.89.67-128.43-25.42-128.43-25.42L232,447.21l-71.57-19.4-30.64-2.34-15-.59c-7.35.59-18.83,12.06-18.83,12.06L87.17,449S81.82,467.51,82,466.34Z" transform="translate(-74.32 -50.13)"/></g><g id="Layer_7" data-name="Layer 7"><path class="cls-8" d="M141.41,599.45c5.17,14.32,5.17,47.33,5.17,47.33l3.58,7.56,2.78,8.75,4,4.38,9.54,6,12.33,4.77,21.48,6,38.27,5.7,37.7,1.46,60.45-1.19,66.43-6.37,37.78-6,9.55-5.57,13.12-8.35c17.1-11.14,11.14-32.22,11.14-32.22l2.43-9.23,4.33-21.79,3.58-11.14L439.71,613s-16.71,9.14-23.47,12.33-24.66,2-24.66,2l-172.62,2L160.1,607.41Z" transform="translate(-74.32 -50.13)"/></g><g id="Layer_8" data-name="Layer 8"><path class="cls-9" d="M502.82,641.06" transform="translate(-74.32 -50.13)"/><path class="cls-10" d="M112,543.46a213.08,213.08,0,0,1,14.2,22.13,214,214,0,0,1,15.2,33.86A299.75,299.75,0,0,0,195,623.57a296.45,296.45,0,0,0,30.69,8.52Z" transform="translate(-74.32 -50.13)"/><path class="cls-11" d="M410.4,630.39l48.18-40.73c19.52-20.17,36.11-26.35,36.11-26.35l-3.9,23.09-41.64,21.47Z" transform="translate(-74.32 -50.13)"/><path class="cls-12" d="M246.48,539.23l37.73,5.21s15.62,9.76,30.58,11.39a44.53,44.53,0,0,0,26-5.21c6.18.65,18.87,10.41,25.37,9.43s29-7.48,29-7.48c16.59,4.56,52.7,2.28,52.7,2.28l45.86-8.13-108.32-.33-90.77-4.55-49.44-3.58" transform="translate(-74.32 -50.13)"/><path class="cls-13" d="M470.29,377.23l-53-49.45L351.88,266.3l-43.27.32-134,90.44,5.85-20.82c38.39-53.67,96-98.57,96-98.57,13.66-13,31.23-72.22,31.23-72.22l1-5.85,47.17.32Z" transform="translate(-74.32 -50.13)"/></g></svg>