<svg id="Layer_2" data-name="Layer 2" xmlns="http://www.w3.org/2000/svg" viewBox="0 0 366.51 471.47"><defs><style>.cls-1{fill:#514e4e;}.cls-2{fill:#5a5a57;}.cls-3{fill:#707272;}.cls-4{fill:#171616;}.cls-5{fill:#4a4c48;}.cls-12,.cls-6{fill:none;stroke:#231f20;stroke-miterlimit:10;}.cls-7{fill:#515252;}.cls-8{fill:#3c3b3d;}.cls-9{fill:#70716e;}.cls-10{fill:#282926;}.cls-11{fill:#1b1b19;}.cls-12{stroke-width:0.5px;}.cls-13{fill:#363636;}.cls-14{fill:#515052;}.cls-15{fill:#2a2b2a;}.cls-16{fill:#373739;}.cls-17{fill:#121213;}.cls-18{fill:#38393a;}.cls-19{fill:#757579;}.cls-20{fill:#2c2c31;}.cls-21{fill:#3c3c39;}.cls-22{fill:#222129;}.cls-23{fill:#333332;}.cls-24{fill:#6a6a70;}.cls-25{fill:#3e3e3b;}.cls-26{fill:#1c1b1c;}.cls-27{fill:#777676;}.cls-28{fill:#0c0d0c;}.cls-29{fill:#4e4c4e;}</style></defs><title>headset</title><path class="cls-1" d="M383.72,309.2a83,83,0,0,1,17.83,12,85,85,0,0,1,22.75,33q-4.91,27.72-9.8,55.44c-10.85,55.09-41.64,76.77-41.64,76.77-24.4.59-40.94,8-42.07,16.92-.24,1.84-.09,6,6.1,11.86-5.19.19-12.83.41-22.29.44-2.3,0-3.45,0-4,0-14.37-.36-28.4-17.64-30.32-20.06-18-22.62-19.3-50.43-19.62-59.76-.76-21.61,4.6-37.8,8.92-50.84,6.62-20,14.1-30.37,16.05-33A113.1,113.1,0,0,1,303,333.73c7.25-6.35,14.49-12.69,25.87-17.84a90,90,0,0,1,31.66-7.58A103.29,103.29,0,0,1,383.72,309.2Z" transform="translate(-98.77 -117.25)"/><path class="cls-2" d="M289.55,530.51c-.75,3.44-3.05,15.65-13.53,21.74-9.3,5.41-19.41,4-28.63,2.65-8.36-1.19-14.33-3.52-20.16-5.83s-13.35-5.84-29.49-16.26c-2.47-1.59-1.59-1-30.36-21.25-8.71-6.11-12.5-8.77-17.36-13.76-4.15-4.26-7-8.2-12.67-16.08-7-9.65-10.38-14.51-12.53-19.46,0,0-6.79-15.61-3.23-27.79a15.16,15.16,0,0,1,2.45-4.91c.81-1,1.29-1.24,2.39-2.36a28.37,28.37,0,0,0,3.56-4.66,28.2,28.2,0,0,1,7.81-7.37,27.3,27.3,0,0,1,6.5-3,34.72,34.72,0,0,1,10.24-1.56,55.23,55.23,0,0,1,13.24,1.13A102.18,102.18,0,0,1,185.9,417c1.44.58,2.81,1.19,2.81,1.19,2.21,1,4,1.91,5.54,2.71,19.42,10.25,39.63,25.77,40.67,26.58a283.26,283.26,0,0,1,31.29,27.57,105.54,105.54,0,0,1,12.73,15.64c3.47,5.27,6.81,10.32,9,17.77C289.29,513,291.62,520.87,289.55,530.51Z" transform="translate(-98.77 -117.25)"/><path class="cls-3" d="M369.45,307a83,83,0,0,1,17.83,12A85,85,0,0,1,410,352q-4.9,27.72-9.8,55.44c-10.85,55.09-41.64,76.77-41.64,76.77-24.4.59-40.95,8-42.07,16.92-.24,1.84-.09,6,6.1,11.86a39,39,0,0,1-22.29.44c-5.17-1.51-9.07-4-14.27-8-10.39-8.12-19.14-14.95-26.76-27.2-11.85-19.05-12.61-37.73-13.05-48.65a129.34,129.34,0,0,1,2.66-30.14,135.76,135.76,0,0,1,10.79-31.88c13.2-26.88,34.33-43.24,45.53-50.76a113.75,113.75,0,0,1,41-10.71A112.15,112.15,0,0,1,369.45,307Z" transform="translate(-98.77 -117.25)"/><path class="cls-4" d="M404.54,334.93a59.43,59.43,0,0,1,26,9.59,66.19,66.19,0,0,1,8.92,7.32,60.64,60.64,0,0,1,8.21,9.29A63.28,63.28,0,0,1,454.56,374a96.45,96.45,0,0,1,5.78,19.55A97,97,0,0,1,461.91,413a93.29,93.29,0,0,1-1.85,16.53h0c-10.84,55.09-41.64,76.77-41.64,76.77-23.15,12-31.83,15.28-35.22,15.83l-6.85,1.09a59.65,59.65,0,0,1-22.07-2.64c-11.94-3.79-19.52-10.53-23.8-14.39a74.66,74.66,0,0,1-18-24.55c-5.37-12-5.94-22.18-6.39-30-.68-12.1,1-21,2.66-30.14,3.06-16.59,7.65-26.71,9-29.57.65-1.37,1.8-3.73,3.36-6.58,3.94-7.15,12.15-21.69,28.37-33.74a74,74,0,0,1,7.57-5.05,100.51,100.51,0,0,1,27.22-10.4c-3.67.55,7.33-1.25,11-1.48A60.06,60.06,0,0,1,404.54,334.93Z" transform="translate(-98.77 -117.25)"/><path class="cls-5" d="M374.18,122.4q.57-.8,54.65,36.87c38.6,46.84,31.23,99.32,31.23,99.32,3.47,31.23-9.54,67.66-9.54,67.66L405,302a248.92,248.92,0,0,0,14-68.42,247.09,247.09,0,0,0-1-41.31,96.69,96.69,0,0,0-23-53.35Q373.82,122.9,374.18,122.4Z" transform="translate(-98.77 -117.25)"/><path class="cls-6" d="M427.53,204.37" transform="translate(-98.77 -117.25)"/><path class="cls-7" d="M405,301.1l-18.65-5.64C405.84,234.73,392,182.69,392,182.69c-12.14-35.57-30.36-44.24-30.36-44.24-10-20.39-41.2-7.81-41.2-7.81-76.77,28.63-120.58,101.49-120.58,101.49-37.3,44.24-54.22,131-54.22,131-5.64,19.52-6.94,49-6.94,49L130,422.54c4.34-105,64.19-192.58,64.19-192.58C257.07,147.55,311.72,126.3,311.72,126.3s-23.85,11.28,2.17-1.3,51.62-6.07,51.62-6.07a64.09,64.09,0,0,1,8.67,3.47c20.23,9.87,29.69,28,33.62,35.46A97.52,97.52,0,0,1,414.53,175c1.22,4.13,1.94,7.51,2.35,9.49a141.88,141.88,0,0,1,2.32,15.11c.37,3.73.51,6.63.64,9.18.1,2.2.27,5.44.25,9.45,0,4.57-.21,7.85-.51,12.68s-.54,8.89-1.17,14c-.51,4.15-1,7.32-1.94,12.55-2.12,12.24-3.19,18.36-3.85,21.15A129.49,129.49,0,0,1,405,301.1Z" transform="translate(-98.77 -117.25)"/><path class="cls-8" d="M374.18,128,368.11,135l-10.41-7.81c9.54,2.6,11.71,1.3,11.71,1.3,0-5.64-19.52-6.07-19.52-6.07-15.18-.44-36,5.2-36,5.2,36-10.84,39.47-6.94,39.47-6.94C372.45,120.66,374.18,128,374.18,128Z" transform="translate(-98.77 -117.25)"/><path class="cls-8" d="M374.61,151.89c-51.61,1.3-111.9,67.23-111.9,67.23-31.66,29.49-42.51,65.93-42.51,65.93,0,9.11-11.71,29.93-11.71,29.93-15.61,33.39-22.12,80.67-22.12,80.67-3,7.37-1.3,21.25-1.3,21.25-2.56-.83-17.18-5.49-29.06-6.07a31.67,31.67,0,0,0-11.71,1.3,29.19,29.19,0,0,0-6.5,3q-7.56,7.6-7.81,7.37t8.24-10l3.47-32.1c19.08-106.7,58.55-149.64,58.55-149.64,51.62-75,109.3-95.85,109.3-95.85,36.87-16.49,48.15-2.61,48.15-2.61l3.9,5.21L372,145.82C372.88,147.84,373.75,149.87,374.61,151.89Z" transform="translate(-98.77 -117.25)"/><path class="cls-6" d="M204.16,413.87" transform="translate(-98.77 -117.25)"/><path class="cls-9" d="M384.59,296.76,405,302.83l-4.78,11.71c1.31,4.34-8.67,8.24-8.67,8.24-57.25,4.34-82,59.42-82,59.42-6.5,23.86-23.85,18.66-23.85,18.66-13.45-6.94-6.07-21.69-6.07-21.69,14.74-39,47.27-56.82,47.27-56.82C342.52,311.51,362,309.77,362,309.77l10.84-.87C383.29,308.9,384.59,296.76,384.59,296.76Z" transform="translate(-98.77 -117.25)"/><path class="cls-10" d="M441.88,352.7s-2-2.41-2.06-2.42l-2.62-3.1S421,330.29,396.4,328.29a70.72,70.72,0,0,0-36.63,8.53s-12.37,4.34-29.1,23.07c0,0-10.86,10.37-20.56,33.45,0,0-4.52,7.69-20.91,7.86,0,0-10.87,1.17-11.54-15.39,0,0-1.67,4.69.17,8.53,0,0,1.67,7.53,11.21,10.2a49.33,49.33,0,0,0,9,2.41,22,22,0,0,0,9.38-.9s3.18,0,7.53-6l1.5-3.68L322.31,383a130,130,0,0,1,9-13.27A91.86,91.86,0,0,1,352.41,350c3.93-2.74,14.45-9.69,26.36-12.65a106,106,0,0,1,12.41-2.11,57.32,57.32,0,0,1,10.4-.46c6,.39,10.35,2,15.66,3.83a63.22,63.22,0,0,1,12.09,5.46,59.79,59.79,0,0,1,7.87,5.59l2.85,2.93a86.43,86.43,0,0,1,8.09,9.74c3.41,4.9,5,9.12,7.12,14.58a102.18,102.18,0,0,1,4.51,15.23s9.87,31.94-15.88,83.11l4.51-3.18s8-6.69,11.88-26.59c0,0,7.69-18.39,4-49.49,0,0,0-.23,0-.67-.18-3.25-1.78-18.28-16.2-43.15,0,0-3.85-4.35-2.51-9.86,0,0,5.85-12.38,3.34-14.22L405,302.83l-4.78,11.71.13,1.43-1.92,2.83h0s2.94,2.78,4.9,4.69c1.32,1.29,3.24,3.2,5.54,5.65l2.13,2.77" transform="translate(-98.77 -117.25)"/><path class="cls-11" d="M396.23,320.93c36.45,9,42.14,19.4,42.14,19.4-17.06-15.39-46.32-17.89-46.32-17.89Z" transform="translate(-98.77 -117.25)"/><path class="cls-12" d="M212.06,501" transform="translate(-98.77 -117.25)"/><path class="cls-13" d="M113.24,447C98.77,468.09,99,487.26,99,487.26c2.15,14,7.46,17.23,7.46,17.23l.72,5.82c31.45,50.18,74.74,67,74.74,67,40.49,15.94,53.2,10.55,53.2,10.55,27.35-14.21,31.81-23,31.81-23-18,3.61-65.41-20.3-65.41-20.3-67.85-46.09-78-70.21-78-70.21C113.2,456.46,113.24,447,113.24,447Z" transform="translate(-98.77 -117.25)"/><path class="cls-14" d="M372.88,308.9a15.19,15.19,0,0,0-3.56-1.95,16.91,16.91,0,0,0-7.07-.95,64.82,64.82,0,0,0-13,1.89,103.26,103.26,0,0,0-35.15,15.67A101.58,101.58,0,0,0,300,335.46c-33.23,34.18-37.94,73.3-37.94,73.3-6.13,34.88,8.24,69.06,8.24,69.06,11.79,28.52,36.3,40.54,36.3,40.54,25.45,11.54,37.24,10.84,37.24,10.84l14.85.7a84.89,84.89,0,0,1-38.42-19.56,63,63,0,0,1-11.55-13c-5.26-8.05-7.29-15.55-9.14-22.37a118.55,118.55,0,0,1-3.21-17.09,160.12,160.12,0,0,1-1.32-21.77c.57-10.8,1.88-17,3.21-20.89.32-.91,1.14-3.15.15-5.11-1.34-2.68-5.22-2.93-6.89-3.51-15.8-5.42-14.85-16.73-14.85-16.73,5.42-28.52,23.57-45.49,23.57-45.49,17.2-19.8,39.35-29.22,39.35-29.22a103.17,103.17,0,0,1,17.45-4.72A105,105,0,0,1,372.88,308.9Z" transform="translate(-98.77 -117.25)"/><path class="cls-15" d="M261.36,434.45c-.3-5.06-.3-5.91-.3-5.91-.36-.85-.41-1.42-.15-1.73q.76-.88,5.1,1.29l4.61,2.73a10.66,10.66,0,0,1,2.59,2.79c.65,1,1.12,2.19,1.85,6.26.26,1.44.58,3.36.86,5.64.72,5.16,1.75,11.33,3.24,18.27,1.39,6.46,2.11,9.77,3.59,13.83a74.18,74.18,0,0,0,8.71,16.73A88.24,88.24,0,0,0,303.89,509a92.64,92.64,0,0,0,28.44,18.26,77.49,77.49,0,0,1-15.9-4.29,82.16,82.16,0,0,1-19.29-10.89c-4.45-3.34-18-13.79-25.85-31.31a90.14,90.14,0,0,1-3.73-10,158.65,158.65,0,0,1-4.62-20.8C262.1,444.43,261.61,439.23,261.36,434.45Z" transform="translate(-98.77 -117.25)"/><path class="cls-16" d="M252.48,500.93c-3.08,4.41-19.59-2.21-21.43-2.95-6.17-2.47-10.64-5.42-15.81-8.84a127.84,127.84,0,0,1-13.13-9.91,130.85,130.85,0,0,1-13.66-13.93c-8.62-10.12-13.07-15.2-11.52-17.95,2.1-3.77,14-.88,17.68,0A58.34,58.34,0,0,1,210,453.66,91.15,91.15,0,0,1,224.62,464c5.84,4.79,13.8,11.39,21.16,22C250.4,492.55,254.37,498.24,252.48,500.93Z" transform="translate(-98.77 -117.25)"/><path class="cls-17" d="M246.35,500.09c-1.29,1.74-5.1,1-8.82.18-2-.43-7.23-1.68-16-7.08-1-.62-.09-.09-11.19-7.77-4.8-3.32-5.9-4.06-7.77-5.6a89.38,89.38,0,0,1-8.24-7.82c-.69-.72-3.36-3.49-7.75-8.63-6-7-9-10.58-8.42-11.81,1.48-3,13.15.08,15.75.75a62.64,62.64,0,0,1,13.89,5.63,82,82,0,0,1,13.29,9.19c5.3,4.27,12.51,10.16,19.18,19.59C243.74,491.6,248.17,497.62,246.35,500.09Z" transform="translate(-98.77 -117.25)"/><path class="cls-12" d="M202.58,404.3" transform="translate(-98.77 -117.25)"/><path class="cls-18" d="M107,459.91c1.13,0,1.87,2.83,3,7.83s2.45,11.94,3.72,20.6c-1.38,13.24-7.18,16.15-7.18,16.15a20.91,20.91,0,0,1-1.91-2,25.32,25.32,0,0,1-3-4.65C99.09,492.69,99,485,99,484.52c.64-3.39,1.64-8.1,3.23-13.63C104,464.76,105.43,459.83,107,459.91Z" transform="translate(-98.77 -117.25)"/><path class="cls-19" d="M105.45,462.92c.92.05,1.49,2.69,1.84,4.35a178.61,178.61,0,0,1,2.9,19.78c-1.08,12.7-5.6,15.5-5.6,15.5a18,18,0,0,1-3-4.73,23.83,23.83,0,0,1-1.5-6c-.39-2.23-.84-5.07-1.3-8.4,1.42-5.67,2.71-10.28,3.66-13.56C103.72,465.38,104.54,462.88,105.45,462.92Z" transform="translate(-98.77 -117.25)"/><path class="cls-12" d="M140.27,423.92" transform="translate(-98.77 -117.25)"/><path class="cls-12" d="M79,491.35" transform="translate(-98.77 -117.25)"/><path class="cls-20" d="M274.81,555.9c-4.94,5.73-7.4,8.61-7.89,9-3.42,2.33-7.64,2.3-26.22-2.66-10.88-2.91-16.34-4.32-20.15-5.84-6-2.37-13.35-5.83-29.49-16.25-13.46-8.69-20.83-13.45-30.36-21.25-8.69-7.12-19.33-15.86-30-29.84a117.57,117.57,0,0,1-12.31-20.5c-7.12-15.07-5.62-20.11-5.12-21.53s2.51-4.63,6.61-11.3c2.21-3.58,3.89-6.27,4.19-6.12s-1.49,3-2.45,7.66a31.05,31.05,0,0,0-.34,10.29,39.34,39.34,0,0,0,1.57,6.93,72.66,72.66,0,0,0,4.49,11.3c8.49,16.89,21.95,30.48,21.95,30.48,7,7.06,13.28,11.67,22.6,18.54,4.52,3.33,8.27,5.84,15.77,10.87,13.83,9.27,20.75,13.9,27.15,17.32a148.91,148.91,0,0,0,28,11.41c2.12.42,5.14.95,8.79,1.35,4.89.54,7.49.83,11.15.51,3.32-.3,7.3-.64,11.57-3,2.52-1.36,4.23-2.92,4.49-2.63S277.44,552.83,274.81,555.9Z" transform="translate(-98.77 -117.25)"/><path class="cls-21" d="M263.32,440.53c-.22-3.88-.22-4.53-.22-4.53-1.29-3,3.24-.86,3.24-.86l4.52,2.59c3.23,1.72,2.8,6.24,2.8,6.24-.22,6.89,9,37.69,9,37.69,1.08,2.37-1.72,2.59-1.72,2.59l-6.89-.65c-1.08,0-6.25-15.29-6.25-15.29Z" transform="translate(-98.77 -117.25)"/><path class="cls-22" d="M262.89,453.66l6.25-2.58c9,1.08,7.1,13.57,7.1,13.57.86,2.58-3.87,4.52-3.87,4.52" transform="translate(-98.77 -117.25)"/><path class="cls-23" d="M262.89,453.66c8,1.94,8.4,4.74,8.4,4.74a12.94,12.94,0,0,1,1.08,10.77l-6.25-1.29h0Z" transform="translate(-98.77 -117.25)"/><path class="cls-24" d="M260.69,426.43c2.75-3.85,5.69-1.47,5.69-1.47l6.24,3.68c3.49,2,3.49,4.59,3.49,4.59,3.35,28.45,4.21,36.69,4.08,36.71s-.55-4-1.88-10.76c-.43-2.19-.77-3.74-1.37-7-.46-2.52-.72-4-1-6-.42-2.83-.38-3.26-.86-6.32s-.83-4.65-1.85-6.26a10.83,10.83,0,0,0-1.56-1.93c-.68-.52-1.67-1.24-2.9-2.05a21.47,21.47,0,0,0-3.93-2.22A15,15,0,0,0,260.69,426.43Z" transform="translate(-98.77 -117.25)"/><path class="cls-25" d="M441.86,477.72l2.92,2.73a55.68,55.68,0,0,1-4.43,9c-3.87,6.36-8,10.28-12.36,14.32a100.31,100.31,0,0,1-14.62,11.31,97.23,97.23,0,0,1-19.75,9.49,92.75,92.75,0,0,1-34.9,5.3,83.19,83.19,0,0,1-37.45-18.59,80.13,80.13,0,0,1-12.52-13.93,76.12,76.12,0,0,1-7.78-16c-4.84-14-5.65-29.93-5.65-29.93-1.89-15.79,1.65-34.64,1.65-34.64l.94-3.78c1.88-4.24-3.06-5.42-3.06-5.42l-10.61-4.47,8.48,2.12,9.67,1.41,8.72,4.71c-9.19,42.43-3.07,57.28-3.07,57.28,6.6,29.93,33.23,45.48,33.23,45.48,22.63,12.26,40.31,8.72,40.31,8.72,34.64-10.6,42.66-21.21,42.66-21.21Z" transform="translate(-98.77 -117.25)"/><path class="cls-6" d="M477,469.1" transform="translate(-98.77 -117.25)"/><path class="cls-26" d="M400.33,316l-19-10.7-6.84,3.86,6.84,3.57-4.17,12.19,13.09-1.49A13.33,13.33,0,0,0,400.33,316Z" transform="translate(-98.77 -117.25)"/><path class="cls-27" d="M388.73,430.44l3.87-95.14c-1.3,0-2.83.14-4.54.32,0,0-1.92.19-3.82.5-20.61,3.27-39.48,19.28-39.48,19.28a94.39,94.39,0,0,0-14.54,15.51Z" transform="translate(-98.77 -117.25)"/><path class="cls-27" d="M388.08,428.9q-6.31,47.19-12.65,94.37a55.55,55.55,0,0,0,11.26-1.38c7.17-1.63,12.21-4.27,20-8.44,6.78-3.61,10.17-5.42,14-8.29,4.41-3.29,10.66-8.07,15.38-16.43a44.89,44.89,0,0,0,3.44-7.75Z" transform="translate(-98.77 -117.25)"/><path class="cls-27" d="M454.44,503.58" transform="translate(-98.77 -117.25)"/><path class="cls-28" d="M268.22,451.32a45.77,45.77,0,0,1,2.64-13.59,21.32,21.32,0,0,0-7.16-3.79c-1.51-.11-.81,5.79-.81,5.79l1.74,13.44Z" transform="translate(-98.77 -117.25)"/><polygon class="cls-29" points="75.7 156.74 117.34 181.15 114.47 187.75 72.82 161.91 75.7 156.74"/><path class="cls-2" d="M42.28,391.07" transform="translate(-98.77 -117.25)"/></svg>