<svg xmlns="http://www.w3.org/2000/svg" viewBox="0 0 488.5 396.28"><defs><style>.cls-1{fill:#745a5b;}.cls-2{fill:#1d1e1b;}.cls-3{fill:#9b9b9d;}.cls-4{fill:#f9f6f9;}.cls-5{fill:#bca8a9;}.cls-6{fill:#e3d9e1;}.cls-7{fill:#ede8ed;}.cls-8{fill:#231f20;}.cls-9{fill:#737578;}.cls-10{fill:#eee8eb;stroke:#d8d4d6;stroke-miterlimit:10;}.cls-11{fill:#9dbad5;}.cls-12{fill:#686868;}.cls-13{fill:#f9c7d7;}.cls-14{fill:#fff;}.cls-15{fill:#ddbbd9;}.cls-16{fill:#fddfd3;}.cls-17{fill:#c0c3bb;}.cls-18{fill:#1f211a;}</style></defs><title>laptop</title><g id="Layer_2" data-name="Layer 2"><path class="cls-1" d="M486.78,470.32l-.14,8.32-82,105.7c-1.65,3.29-10.77,2-10.77,2L66.65,510.15,56.11,507.9a10.14,10.14,0,0,1-7.26-7.47c6.65,4.05,37.86,9.72,37.86,9.72L309.06,562.2l78,16.45c23.76,7.31,87.72-100.51,87.72-100.51Z" transform="translate(-48.85 -190.33)"/><path class="cls-2" d="M209,229.69c2.42-8.76,3.85-15.91,4.71-20.79,1.65-9.44,2-15.34,6.27-17.65,2.55-1.39,5.49-.94,7.46-.39l302,45.89c12.16,3.14,6.67,14.51,6.67,14.51l-44.33,211c-2,9-12.94,6.28-12.94,6.28L177.19,404.64c-7.46-4.71-1.57-20.79-1.57-20.79Q192.28,306.77,209,229.69Z" transform="translate(-48.85 -190.33)"/><polygon class="cls-3" points="172.27 11.47 478.24 58.94 438.23 248.01 133.83 187.21 172.27 11.47"/><path class="cls-4" d="M173.71,405.89A14.87,14.87,0,0,0,163.6,407a13.7,13.7,0,0,0-3.95,3L53,495.28,49.85,498c-3.63,5,4.53,5.44,4.53,5.44l209.17,49.91,132.94,30.4c6.81.91,11.8-8.16,11.8-8.16l78.49-105.27Z" transform="translate(-48.85 -190.33)"/><path class="cls-5" d="M189.16,407.5c-2,.74-1.76,4-1.76,4l49.4,9.24c-.29-3.08,4.55-3.37,4.55-3.37Z" transform="translate(-48.85 -190.33)"/><path class="cls-5" d="M408.32,452.36c-1.91,0-1.32,3.23-1.32,3.23l54.38,12.16c-.43-2.34,2.5-3.51,2.5-3.51Z" transform="translate(-48.85 -190.33)"/><path class="cls-6" d="M184.88,487.72l-31,28.49c-2.31,3.7,8.11,5.09,8.11,5.09L267.8,545.62c5.79,1.62,9.5-5.09,9.5-5.09l25.48-28c2.08-3.94-7.41-4.63-7.41-4.63l-103.08-22.7c-3-1.86-5.33,1.16-5.33,1.16Z" transform="translate(-48.85 -190.33)"/><path class="cls-7" d="M153.2,430.05c11.11-9.91,12.61-10.21,16.52-14.11s22.53,1.8,22.53,1.8L331.93,446l118.65,24.64,9.31,1.8c8.41,1.2-2.7,12.91-2.7,12.91l-31.54,43c-3.61,4.81-28.54-3.3-28.54-3.3l-277-61c-7.21-1.5,1.5-6.61,1.5-6.61Z" transform="translate(-48.85 -190.33)"/><path class="cls-8" d="M203.14,438.34a1,1,0,0,0-.89-.93c-.39,0-.47.48-1.29,1.36a11.33,11.33,0,0,1-1.17,1.07l-1.45,1.2-2,1.7c-2.08-.33-4.16-.65-6.23-1a22.84,22.84,0,0,0-6.93-1.11,1,1,0,0,0-.7.28.87.87,0,0,0,0,1,.58.58,0,0,0,.24.17,9.13,9.13,0,0,0,3.05.62,32.49,32.49,0,0,1,3.33.51,63.44,63.44,0,0,0,6.37,1h0a11.42,11.42,0,0,0,1.38-.09c.17,0,.54-.11,2.06-1.41.73-.62.67-.61,1.48-1.3l1.34-1.13a5.55,5.55,0,0,0,1.16-1.2C203.14,438.66,203.15,438.45,203.14,438.34Z" transform="translate(-48.85 -190.33)"/><path class="cls-9" d="M187.49,435.85a3.45,3.45,0,0,1,4.07-1l10.1,2.34c.57,0,.76.18.83.32.3.63-1.42,2.07-3.15,3.5-1.27,1-2.36,1.83-3.1,2.34L182.19,441Z" transform="translate(-48.85 -190.33)"/><path class="cls-8" d="M196.8,447.39a1,1,0,0,0-.89-.93c-.39,0-.47.48-1.29,1.37a12.64,12.64,0,0,1-1.17,1.07L192,450.1l-2,1.69c-2.08-.32-4.16-.64-6.23-1a22.89,22.89,0,0,0-6.92-1.1,1,1,0,0,0-.71.27.87.87,0,0,0,0,1,.64.64,0,0,0,.24.18,9,9,0,0,0,3.05.61,33.69,33.69,0,0,1,3.33.52c1.73.3,4.63.93,6.38,1h0a10.39,10.39,0,0,0,1.38-.1c.16,0,.53-.11,2.06-1.4.73-.62.66-.62,1.47-1.31l1.34-1.13a5.36,5.36,0,0,0,1.17-1.2C196.8,447.72,196.81,447.51,196.8,447.39Z" transform="translate(-48.85 -190.33)"/><path class="cls-9" d="M181.15,444.91a3.44,3.44,0,0,1,4.07-1l10.11,2.34c.57,0,.75.18.82.32.3.64-1.42,2.07-3.15,3.5-1.27,1.05-2.36,1.84-3.1,2.35l-14.05-2.35Z" transform="translate(-48.85 -190.33)"/><path class="cls-8" d="M222.39,442.75a1,1,0,0,0-.89-.93c-.4,0-.47.48-1.29,1.37a13.2,13.2,0,0,1-1.18,1.07l-1.44,1.2-2,1.69c-2.07-.33-4.15-.64-6.23-1a22.89,22.89,0,0,0-6.92-1.1.92.92,0,0,0-.7.27.86.86,0,0,0,0,1,.45.45,0,0,0,.24.17,8.84,8.84,0,0,0,3.05.62c.36,0,1.35.17,3.33.52,1.73.3,4.63.93,6.37,1h0a10.29,10.29,0,0,0,1.38-.1c.17,0,.54-.11,2.06-1.4.73-.62.67-.62,1.48-1.31l1.34-1.13a5.33,5.33,0,0,0,1.16-1.2C222.39,443.08,222.4,442.87,222.39,442.75Z" transform="translate(-48.85 -190.33)"/><path class="cls-9" d="M206.74,440.27a3.43,3.43,0,0,1,4.06-1l10.11,2.34c.57,0,.76.18.83.32.3.64-1.42,2.07-3.15,3.5-1.27,1.05-2.36,1.83-3.1,2.35l-14.05-2.35Z" transform="translate(-48.85 -190.33)"/><path class="cls-8" d="M217.13,451.47a1,1,0,0,0-.89-.92c-.39,0-.47.47-1.29,1.36a11.33,11.33,0,0,1-1.17,1.07l-1.45,1.2-2,1.7c-2.08-.33-4.16-.65-6.23-1a23,23,0,0,0-6.93-1.1,1,1,0,0,0-.7.28.87.87,0,0,0,0,1,.58.58,0,0,0,.24.17,9.13,9.13,0,0,0,3,.62,29.58,29.58,0,0,1,3.33.51c1.73.3,4.63.93,6.37,1h0a11.64,11.64,0,0,0,1.39-.09c.16,0,.53-.12,2.05-1.41.73-.62.67-.62,1.48-1.3l1.34-1.14a5.12,5.12,0,0,0,1.16-1.2C217.13,451.8,217.14,451.59,217.13,451.47Z" transform="translate(-48.85 -190.33)"/><path class="cls-9" d="M201.48,449a3.44,3.44,0,0,1,4.07-1l10.1,2.34c.57,0,.76.19.83.32.3.64-1.42,2.08-3.15,3.5-1.27,1-2.36,1.84-3.1,2.35l-14-2.34Z" transform="translate(-48.85 -190.33)"/><path class="cls-8" d="M197.44,457.49a1,1,0,0,0-.89-.92c-.4,0-.47.47-1.29,1.36a11.79,11.79,0,0,1-1.18,1.07l-1.44,1.2-2,1.7c-2.07-.33-4.15-.65-6.23-1a22.89,22.89,0,0,0-6.92-1.1,1,1,0,0,0-.7.28.86.86,0,0,0,0,1,.52.52,0,0,0,.24.17,9.13,9.13,0,0,0,3,.62,32.49,32.49,0,0,1,3.33.51c1.73.3,4.63.93,6.37,1h0a11.42,11.42,0,0,0,1.38-.09c.17,0,.54-.12,2.06-1.41.73-.62.67-.62,1.48-1.3l1.34-1.14a5.12,5.12,0,0,0,1.16-1.2C197.44,457.82,197.45,457.61,197.44,457.49Z" transform="translate(-48.85 -190.33)"/><path class="cls-9" d="M181.79,455a3.43,3.43,0,0,1,4.06-1L196,456.37c.57,0,.76.18.83.31.3.64-1.42,2.08-3.15,3.5-1.27,1.05-2.36,1.84-3.1,2.35l-14-2.34Z" transform="translate(-48.85 -190.33)"/><path class="cls-8" d="M217.69,461.55a1,1,0,0,0-.89-.92c-.4,0-.47.47-1.3,1.36a11.33,11.33,0,0,1-1.17,1.07l-1.44,1.2-2,1.7c-2.08-.33-4.16-.65-6.23-1a22.89,22.89,0,0,0-6.92-1.1,1,1,0,0,0-.7.28.87.87,0,0,0,0,1,.65.65,0,0,0,.24.17,9.16,9.16,0,0,0,3.06.62,29.58,29.58,0,0,1,3.33.51c1.73.3,4.62.93,6.37,1h0a11.42,11.42,0,0,0,1.38-.09c.17,0,.54-.12,2.06-1.41.73-.62.66-.62,1.47-1.3,1.26-1.06,1.34-1.14,1.34-1.14a5,5,0,0,0,1.17-1.2C217.69,461.88,217.7,461.67,217.69,461.55Z" transform="translate(-48.85 -190.33)"/><path class="cls-9" d="M202,459.07a3.44,3.44,0,0,1,4.07-1l10.11,2.34c.57,0,.76.19.82.32.31.64-1.41,2.08-3.14,3.5-1.27,1.05-2.37,1.84-3.1,2.35l-14.06-2.34Z" transform="translate(-48.85 -190.33)"/><path class="cls-8" d="M242.08,447a1,1,0,0,0-.89-.93c-.4,0-.47.48-1.3,1.37a12.64,12.64,0,0,1-1.17,1.07l-1.44,1.2-2,1.69c-2.08-.33-4.16-.64-6.23-1a22.89,22.89,0,0,0-6.92-1.1.92.92,0,0,0-.7.27.87.87,0,0,0,0,1,.65.65,0,0,0,.24.17,8.87,8.87,0,0,0,3.06.62c.36,0,1.35.17,3.33.52,1.73.3,4.62.93,6.37,1h0a10.29,10.29,0,0,0,1.38-.1c.17,0,.54-.11,2.06-1.4.73-.62.66-.62,1.47-1.31L240.6,449a5.15,5.15,0,0,0,1.17-1.2C242.08,447.35,242.09,447.14,242.08,447Z" transform="translate(-48.85 -190.33)"/><path class="cls-9" d="M226.42,444.54a3.44,3.44,0,0,1,4.07-1l10.11,2.34c.57,0,.76.18.82.32.31.64-1.41,2.07-3.14,3.5-1.27,1-2.37,1.83-3.11,2.34l-14-2.34Z" transform="translate(-48.85 -190.33)"/><path class="cls-8" d="M236.82,455.74a1,1,0,0,0-.89-.92c-.4,0-.47.47-1.29,1.36a13.1,13.1,0,0,1-1.18,1.07l-1.44,1.2-2,1.69c-2.07-.32-4.15-.64-6.23-1a22.89,22.89,0,0,0-6.92-1.1,1,1,0,0,0-.7.28.86.86,0,0,0,0,1,.62.62,0,0,0,.24.17,9.13,9.13,0,0,0,3,.62,29.58,29.58,0,0,1,3.33.51c1.73.3,4.63.93,6.37,1h0a11.42,11.42,0,0,0,1.38-.09c.17,0,.54-.12,2.06-1.41.73-.62.67-.62,1.48-1.3l1.33-1.14a5,5,0,0,0,1.17-1.2C236.82,456.07,236.83,455.86,236.82,455.74Z" transform="translate(-48.85 -190.33)"/><path class="cls-9" d="M221.16,453.26a3.44,3.44,0,0,1,4.07-1l10.11,2.34c.57,0,.76.18.83.32.3.64-1.42,2.08-3.15,3.5-1.27,1.05-2.37,1.84-3.1,2.35l-14.06-2.34Z" transform="translate(-48.85 -190.33)"/><path class="cls-8" d="M237.38,465.82a1,1,0,0,0-.9-.92c-.39,0-.47.47-1.29,1.36a11.33,11.33,0,0,1-1.17,1.07l-1.44,1.2-2,1.69c-2.08-.32-4.16-.64-6.23-1a22.89,22.89,0,0,0-6.92-1.1,1,1,0,0,0-.71.28.87.87,0,0,0,0,1,.7.7,0,0,0,.24.17,9.13,9.13,0,0,0,3.05.62,29.24,29.24,0,0,1,3.33.51c1.73.3,4.63.93,6.38,1h0a11.53,11.53,0,0,0,1.38-.09c.16,0,.53-.12,2.06-1.41.73-.62.66-.62,1.47-1.3l1.34-1.14a5.36,5.36,0,0,0,1.17-1.2A1.29,1.29,0,0,0,237.38,465.82Z" transform="translate(-48.85 -190.33)"/><path class="cls-9" d="M221.72,463.34a3.44,3.44,0,0,1,4.07-1l10.11,2.34c.57,0,.75.18.82.32.31.64-1.42,2.08-3.15,3.5-1.27,1.05-2.36,1.84-3.1,2.35l-14.05-2.34Z" transform="translate(-48.85 -190.33)"/><path class="cls-8" d="M261.65,450.54a1,1,0,0,0-.89-.93c-.4,0-.47.47-1.3,1.36a11.33,11.33,0,0,1-1.17,1.07l-1.44,1.2-2,1.7c-2.08-.33-4.16-.65-6.23-1a22.89,22.89,0,0,0-6.92-1.1,1,1,0,0,0-.7.28.87.87,0,0,0,0,1,.65.65,0,0,0,.24.17,9.16,9.16,0,0,0,3.06.62,32.49,32.49,0,0,1,3.33.51c1.73.3,4.62.93,6.37,1h0a11.42,11.42,0,0,0,1.38-.09c.17,0,.53-.11,2.06-1.41.73-.62.66-.61,1.47-1.3l1.34-1.13a5.21,5.21,0,0,0,1.17-1.21C261.65,450.86,261.66,450.65,261.65,450.54Z" transform="translate(-48.85 -190.33)"/><path class="cls-9" d="M246,448.05a3.44,3.44,0,0,1,4.07-1l10.11,2.35c.57,0,.76.18.82.32.31.63-1.41,2.07-3.15,3.49-1.26,1-2.36,1.84-3.1,2.35l-14.05-2.34Z" transform="translate(-48.85 -190.33)"/><path class="cls-8" d="M256.39,460.26a1,1,0,0,0-.89-.93c-.4,0-.47.48-1.29,1.37a15.4,15.4,0,0,1-1.18,1.06L251.59,463l-2,1.69c-2.08-.33-4.16-.64-6.23-1a22.55,22.55,0,0,0-6.92-1.1.92.92,0,0,0-.7.27.87.87,0,0,0,0,1,.65.65,0,0,0,.24.17,8.87,8.87,0,0,0,3.06.62c.36,0,1.35.17,3.33.52,1.73.3,4.63.92,6.37,1h0a11.42,11.42,0,0,0,1.38-.09c.17,0,.54-.11,2.06-1.41.73-.62.66-.61,1.48-1.3l1.33-1.13a5.15,5.15,0,0,0,1.17-1.2C256.39,460.58,256.4,460.37,256.39,460.26Z" transform="translate(-48.85 -190.33)"/><path class="cls-9" d="M240.73,457.77a3.45,3.45,0,0,1,4.07-1l10.11,2.34c.57,0,.76.18.83.32.3.63-1.42,2.07-3.15,3.5-1.27,1-2.37,1.83-3.1,2.34L235.43,463Z" transform="translate(-48.85 -190.33)"/><path class="cls-8" d="M256.94,470.34a1,1,0,0,0-.89-.93c-.39,0-.47.48-1.29,1.36a11.33,11.33,0,0,1-1.17,1.07l-1.44,1.2-2,1.7c-2.08-.33-4.16-.64-6.23-1a22.55,22.55,0,0,0-6.92-1.1.94.94,0,0,0-.71.27.87.87,0,0,0,0,1,.58.58,0,0,0,.24.17,8.84,8.84,0,0,0,3,.62,33.69,33.69,0,0,1,3.33.52c1.73.3,4.63.92,6.38,1h0a11.53,11.53,0,0,0,1.38-.09c.16,0,.53-.11,2.06-1.41.73-.62.66-.61,1.47-1.3l1.34-1.13a5.58,5.58,0,0,0,1.17-1.2C256.94,470.66,257,470.45,256.94,470.34Z" transform="translate(-48.85 -190.33)"/><path class="cls-9" d="M241.29,467.85a3.45,3.45,0,0,1,4.07-1l10.11,2.34c.57,0,.75.18.82.32.3.63-1.42,2.07-3.15,3.5-1.27,1-2.36,1.83-3.1,2.34L236,473Z" transform="translate(-48.85 -190.33)"/><path class="cls-8" d="M281.84,454.93A1,1,0,0,0,281,454c-.4,0-.47.47-1.3,1.36a11.33,11.33,0,0,1-1.17,1.07l-1.44,1.2-2,1.7c-2.08-.33-4.16-.65-6.23-1a22.89,22.89,0,0,0-6.92-1.1,1,1,0,0,0-.7.28.87.87,0,0,0,0,1,.65.65,0,0,0,.24.17,9.16,9.16,0,0,0,3.06.62,32.08,32.08,0,0,1,3.32.51c1.74.3,4.63.93,6.38,1h0a11.42,11.42,0,0,0,1.38-.09c.16,0,.53-.11,2.06-1.41.73-.62.66-.61,1.47-1.3l1.34-1.13a5.21,5.21,0,0,0,1.17-1.21C281.84,455.25,281.85,455,281.84,454.93Z" transform="translate(-48.85 -190.33)"/><path class="cls-9" d="M266.18,452.44a3.44,3.44,0,0,1,4.07-1l10.11,2.35c.57,0,.76.18.82.32.31.63-1.41,2.07-3.15,3.49-1.26,1.05-2.36,1.84-3.1,2.35l-14.05-2.34Z" transform="translate(-48.85 -190.33)"/><path class="cls-8" d="M276.58,463.65a1,1,0,0,0-.89-.93c-.4,0-.47.48-1.29,1.36a13.1,13.1,0,0,1-1.18,1.07l-1.44,1.2-2,1.7c-2.08-.33-4.16-.64-6.23-1a22.55,22.55,0,0,0-6.92-1.1.92.92,0,0,0-.7.27.87.87,0,0,0,0,1,.65.65,0,0,0,.24.17,8.87,8.87,0,0,0,3.06.62c.36,0,1.35.17,3.33.52,1.73.3,4.63.92,6.37,1h0a11.42,11.42,0,0,0,1.38-.09c.17,0,.54-.11,2.06-1.41.73-.62.66-.61,1.48-1.3l1.33-1.13a5.15,5.15,0,0,0,1.17-1.2C276.58,464,276.59,463.76,276.58,463.65Z" transform="translate(-48.85 -190.33)"/><path class="cls-9" d="M260.92,461.16a3.45,3.45,0,0,1,4.07-1l10.11,2.34c.57,0,.76.18.83.32.3.63-1.42,2.07-3.15,3.5-1.27,1-2.37,1.83-3.1,2.34l-14.06-2.34Z" transform="translate(-48.85 -190.33)"/><path class="cls-8" d="M278,474.48a1,1,0,0,0-.89-.93c-.39,0-.47.48-1.29,1.37a12.64,12.64,0,0,1-1.17,1.07l-1.45,1.2-2,1.69c-2.08-.32-4.16-.64-6.23-1a23,23,0,0,0-6.93-1.1,1,1,0,0,0-.7.27.87.87,0,0,0,0,1,.64.64,0,0,0,.24.18,9,9,0,0,0,3.05.61c.36,0,1.35.17,3.33.52,1.73.3,4.63.93,6.37,1h0a10.29,10.29,0,0,0,1.38-.1c.17,0,.54-.11,2.06-1.4.73-.62.67-.62,1.48-1.31l1.34-1.13a5.33,5.33,0,0,0,1.16-1.2C278,474.81,278,474.6,278,474.48Z" transform="translate(-48.85 -190.33)"/><path class="cls-9" d="M262.36,472a3.44,3.44,0,0,1,4.07-1l10.1,2.34c.57,0,.76.18.83.32.3.64-1.42,2.07-3.15,3.5-1.27,1.05-2.36,1.83-3.1,2.35l-14.05-2.35Z" transform="translate(-48.85 -190.33)"/><path class="cls-8" d="M301.4,459.19a1,1,0,0,0-.89-.93c-.39,0-.47.48-1.29,1.36a11.33,11.33,0,0,1-1.17,1.07l-1.45,1.2-2,1.7c-2.08-.33-4.16-.65-6.23-1a22.84,22.84,0,0,0-6.93-1.11,1,1,0,0,0-.7.28.87.87,0,0,0,0,1,.58.58,0,0,0,.24.17,9.13,9.13,0,0,0,3.05.62,32.49,32.49,0,0,1,3.33.51,63.18,63.18,0,0,0,6.38,1h0a11.53,11.53,0,0,0,1.38-.09c.16,0,.53-.11,2.05-1.41.73-.62.67-.61,1.48-1.3l1.34-1.13a5.55,5.55,0,0,0,1.16-1.2C301.4,459.51,301.41,459.3,301.4,459.19Z" transform="translate(-48.85 -190.33)"/><path class="cls-9" d="M285.75,456.7a3.45,3.45,0,0,1,4.07-1l10.1,2.34c.57,0,.76.18.83.32.3.63-1.42,2.07-3.15,3.5-1.27,1-2.36,1.83-3.1,2.34l-14.05-2.34Z" transform="translate(-48.85 -190.33)"/><path class="cls-8" d="M296.9,468a1,1,0,0,0-.89-.92c-.4,0-.47.47-1.3,1.36a11.33,11.33,0,0,1-1.17,1.07l-1.44,1.2-2,1.7c-2.08-.33-4.16-.65-6.23-1a22.89,22.89,0,0,0-6.92-1.1,1,1,0,0,0-.7.28.87.87,0,0,0,0,1,.65.65,0,0,0,.24.17,9.16,9.16,0,0,0,3.06.62,32.49,32.49,0,0,1,3.33.51c1.73.3,4.62.93,6.37,1h0a11.42,11.42,0,0,0,1.38-.09c.17,0,.54-.11,2.06-1.41.73-.62.66-.62,1.47-1.3l1.34-1.13a5.21,5.21,0,0,0,1.17-1.21C296.9,468.36,296.91,468.15,296.9,468Z" transform="translate(-48.85 -190.33)"/><path class="cls-9" d="M281.24,465.55a3.44,3.44,0,0,1,4.07-1l10.11,2.35c.57,0,.76.18.82.32.31.63-1.41,2.07-3.14,3.49-1.27,1-2.37,1.84-3.11,2.35l-14.05-2.34Z" transform="translate(-48.85 -190.33)"/><path class="cls-8" d="M298.33,478.87a1,1,0,0,0-.89-.93c-.4,0-.47.48-1.29,1.36a11.79,11.79,0,0,1-1.18,1.07l-1.44,1.2-2,1.7c-2.07-.33-4.15-.65-6.23-1a22.75,22.75,0,0,0-6.92-1.11,1,1,0,0,0-.7.28.86.86,0,0,0,0,1,.52.52,0,0,0,.24.17,8.84,8.84,0,0,0,3,.62c.36,0,1.35.17,3.33.51a63.44,63.44,0,0,0,6.37,1h0a11.42,11.42,0,0,0,1.38-.09c.17,0,.54-.11,2.06-1.41.73-.62.67-.61,1.48-1.3l1.34-1.13a5.55,5.55,0,0,0,1.16-1.2C298.33,479.19,298.34,479,298.33,478.87Z" transform="translate(-48.85 -190.33)"/><path class="cls-9" d="M282.68,476.38a3.43,3.43,0,0,1,4.06-1l10.11,2.34c.57,0,.76.18.83.32.3.63-1.42,2.07-3.15,3.5-1.27,1-2.36,1.83-3.1,2.34l-14.05-2.34Z" transform="translate(-48.85 -190.33)"/><path class="cls-8" d="M321.47,463.2a1,1,0,0,0-.89-.93c-.4,0-.47.48-1.3,1.36a11.33,11.33,0,0,1-1.17,1.07l-1.44,1.2-2,1.7c-2.08-.33-4.16-.65-6.23-1a22.75,22.75,0,0,0-6.92-1.11,1,1,0,0,0-.7.28.87.87,0,0,0,0,1,.65.65,0,0,0,.24.17,9.16,9.16,0,0,0,3.06.62,32.49,32.49,0,0,1,3.33.51,63,63,0,0,0,6.37,1h0a11.42,11.42,0,0,0,1.38-.09c.17,0,.54-.11,2.06-1.41.73-.62.66-.61,1.47-1.3l1.34-1.13a5.36,5.36,0,0,0,1.17-1.2C321.47,463.52,321.48,463.31,321.47,463.2Z" transform="translate(-48.85 -190.33)"/><path class="cls-9" d="M305.81,460.71a3.45,3.45,0,0,1,4.07-1L320,462.07c.57,0,.76.18.82.32.31.63-1.41,2.07-3.14,3.5-1.27,1-2.37,1.83-3.11,2.34l-14.05-2.34Z" transform="translate(-48.85 -190.33)"/><path class="cls-8" d="M317.05,472.39a1,1,0,0,0-.89-.93c-.4,0-.47.47-1.3,1.36a11.33,11.33,0,0,1-1.17,1.07l-1.44,1.2-2,1.7c-2.08-.33-4.16-.65-6.23-1a22.89,22.89,0,0,0-6.92-1.1,1,1,0,0,0-.7.28.87.87,0,0,0,0,1,.65.65,0,0,0,.24.17,9.16,9.16,0,0,0,3.06.62,32.49,32.49,0,0,1,3.33.51c1.73.3,4.62.93,6.37,1h0a11.42,11.42,0,0,0,1.38-.09c.17,0,.53-.11,2.06-1.41.73-.62.66-.61,1.47-1.3l1.34-1.13a5.21,5.21,0,0,0,1.17-1.21C317.05,472.71,317.06,472.5,317.05,472.39Z" transform="translate(-48.85 -190.33)"/><path class="cls-9" d="M301.39,469.9a3.46,3.46,0,0,1,4.07-1l10.11,2.35c.57,0,.76.18.82.32.31.63-1.41,2.07-3.15,3.49-1.26,1.05-2.36,1.84-3.1,2.35l-14.05-2.34Z" transform="translate(-48.85 -190.33)"/><path class="cls-8" d="M318.85,483.31a1,1,0,0,0-.89-.93c-.39,0-.47.48-1.29,1.37a12.64,12.64,0,0,1-1.17,1.07l-1.45,1.2-2,1.69c-2.08-.32-4.16-.64-6.23-1a23,23,0,0,0-6.93-1.1,1,1,0,0,0-.7.27.87.87,0,0,0,0,1,.64.64,0,0,0,.24.18,9,9,0,0,0,3.05.61c.36,0,1.35.17,3.33.52,1.73.3,4.63.93,6.37,1h0a10.49,10.49,0,0,0,1.39-.1c.16,0,.53-.11,2.05-1.4.73-.62.67-.62,1.48-1.31l1.34-1.13a5.12,5.12,0,0,0,1.16-1.2C318.85,483.64,318.86,483.43,318.85,483.31Z" transform="translate(-48.85 -190.33)"/><path class="cls-9" d="M303.2,480.83a3.44,3.44,0,0,1,4.07-1l10.1,2.34c.57,0,.76.18.83.32.3.64-1.42,2.07-3.15,3.5-1.27,1.05-2.36,1.84-3.1,2.35L297.9,486Z" transform="translate(-48.85 -190.33)"/><path class="cls-8" d="M339.88,487.68a1,1,0,0,0-.89-.92c-.4,0-.47.47-1.3,1.36a11.33,11.33,0,0,1-1.17,1.07l-1.44,1.2-2,1.7c-2.08-.33-4.16-.65-6.23-1a22.89,22.89,0,0,0-6.92-1.1,1,1,0,0,0-.7.28.87.87,0,0,0,0,1,.65.65,0,0,0,.24.17,9.16,9.16,0,0,0,3.06.62,29.58,29.58,0,0,1,3.33.51c1.73.3,4.62.93,6.37,1h0a11.42,11.42,0,0,0,1.38-.09c.17,0,.54-.12,2.06-1.41.73-.62.66-.62,1.48-1.3,1.25-1.06,1.33-1.14,1.33-1.14a5,5,0,0,0,1.17-1.2C339.88,488,339.89,487.8,339.88,487.68Z" transform="translate(-48.85 -190.33)"/><path class="cls-9" d="M324.22,485.2a3.44,3.44,0,0,1,4.07-1l10.11,2.35c.57,0,.76.18.82.31.31.64-1.41,2.08-3.14,3.5-1.27,1.05-2.37,1.84-3.1,2.35l-14.06-2.34Z" transform="translate(-48.85 -190.33)"/><path class="cls-8" d="M361,492.43a1,1,0,0,0-.89-.92c-.4,0-.47.47-1.29,1.36a11.33,11.33,0,0,1-1.17,1.07l-1.45,1.2-2,1.69c-2.07-.32-4.15-.64-6.22-1a23.06,23.06,0,0,0-6.93-1.1,1,1,0,0,0-.7.28.84.84,0,0,0,0,1,.57.57,0,0,0,.24.18,9,9,0,0,0,3.05.61c.36,0,1.35.17,3.33.52,1.73.3,4.63.93,6.37,1h0a11.42,11.42,0,0,0,1.38-.09c.17,0,.54-.12,2.06-1.41.73-.62.67-.62,1.48-1.31l1.34-1.13a5.12,5.12,0,0,0,1.16-1.2C361,492.76,361,492.55,361,492.43Z" transform="translate(-48.85 -190.33)"/><path class="cls-9" d="M345.36,490a3.43,3.43,0,0,1,4.06-1l10.11,2.34c.57,0,.76.18.83.32.3.64-1.42,2.07-3.15,3.5-1.27,1.05-2.36,1.84-3.1,2.35l-14.05-2.35Z" transform="translate(-48.85 -190.33)"/><path class="cls-8" d="M382.15,497.46a1,1,0,0,0-.9-.93c-.39,0-.47.48-1.29,1.37a14.3,14.3,0,0,1-1.17,1.07l-1.44,1.2-2,1.69c-2.08-.33-4.16-.64-6.23-1a22.89,22.89,0,0,0-6.92-1.1.94.94,0,0,0-.71.27.87.87,0,0,0,0,1,.58.58,0,0,0,.24.17,8.84,8.84,0,0,0,3,.62,33.69,33.69,0,0,1,3.33.52c1.73.3,4.63.93,6.38,1h0a10.39,10.39,0,0,0,1.38-.1c.16,0,.53-.11,2.06-1.4.73-.62.66-.62,1.47-1.31l1.34-1.13a5.58,5.58,0,0,0,1.17-1.2A1.31,1.31,0,0,0,382.15,497.46Z" transform="translate(-48.85 -190.33)"/><path class="cls-9" d="M366.49,495a3.45,3.45,0,0,1,4.07-1l10.11,2.34c.57,0,.75.18.82.32.31.64-1.42,2.07-3.15,3.5-1.27,1-2.36,1.83-3.1,2.34l-14.05-2.34Z" transform="translate(-48.85 -190.33)"/><path class="cls-8" d="M338.48,476.79a1,1,0,0,0-.89-.92c-.39,0-.47.47-1.29,1.36a11.33,11.33,0,0,1-1.17,1.07l-1.45,1.2-2,1.69c-2.08-.32-4.16-.64-6.23-1a23,23,0,0,0-6.93-1.1,1,1,0,0,0-.7.28.86.86,0,0,0,0,1,.64.64,0,0,0,.24.18,9,9,0,0,0,3.05.61c.36,0,1.35.17,3.33.52,1.73.3,4.63.93,6.37,1h0a10.29,10.29,0,0,0,1.38-.1c.17,0,.54-.11,2.06-1.4.73-.62.67-.62,1.48-1.31l1.34-1.13a5.12,5.12,0,0,0,1.16-1.2C338.48,477.12,338.49,476.91,338.48,476.79Z" transform="translate(-48.85 -190.33)"/><path class="cls-9" d="M322.83,474.31a3.44,3.44,0,0,1,4.07-1l10.1,2.34c.57,0,.76.18.83.32.3.64-1.42,2.07-3.15,3.5-1.27,1-2.36,1.84-3.1,2.35l-14.05-2.35Z" transform="translate(-48.85 -190.33)"/><path class="cls-8" d="M358.68,480.79a1,1,0,0,0-.89-.92c-.39,0-.47.47-1.29,1.36a11.33,11.33,0,0,1-1.17,1.07l-1.45,1.2-2,1.7c-2.08-.33-4.16-.65-6.23-1a22.89,22.89,0,0,0-6.92-1.1,1,1,0,0,0-.71.28.87.87,0,0,0,0,1,.58.58,0,0,0,.24.17,9.13,9.13,0,0,0,3.05.62,32.49,32.49,0,0,1,3.33.51c1.73.3,4.63.93,6.38,1h0a11.53,11.53,0,0,0,1.38-.09c.16,0,.53-.11,2.06-1.41.73-.62.66-.62,1.47-1.3,1.25-1.06,1.34-1.13,1.34-1.14a5.36,5.36,0,0,0,1.17-1.2C358.68,481.12,358.69,480.91,358.68,480.79Z" transform="translate(-48.85 -190.33)"/><path class="cls-9" d="M343,478.31a3.44,3.44,0,0,1,4.07-1l10.11,2.35c.56,0,.75.18.82.32.3.63-1.42,2.07-3.15,3.49-1.27,1-2.36,1.84-3.1,2.35l-14-2.34Z" transform="translate(-48.85 -190.33)"/><path class="cls-8" d="M380.22,486.12a1,1,0,0,0-.88-.93c-.39,0-.47.48-1.28,1.37a13.54,13.54,0,0,1-1.16,1.07l-1.43,1.2-2,1.69c-2.06-.32-4.12-.64-6.17-1a22.53,22.53,0,0,0-6.86-1.1.91.91,0,0,0-.7.27.87.87,0,0,0,0,1,.57.57,0,0,0,.24.18,8.78,8.78,0,0,0,3,.61,33.32,33.32,0,0,1,3.3.52c1.72.3,4.59.93,6.32,1h0a10,10,0,0,0,1.36-.1c.17,0,.53-.11,2-1.4.73-.62.66-.62,1.47-1.31l1.32-1.13a5.33,5.33,0,0,0,1.16-1.2C380.22,486.45,380.23,486.24,380.22,486.12Z" transform="translate(-48.85 -190.33)"/><path class="cls-9" d="M364.23,483.05a3.37,3.37,0,0,1,4.12-1.05l10.24,2.49c.58,0,.77.19.84.34.3.67-1.44,2.2-3.19,3.72-1.29,1.11-2.4,1.95-3.14,2.49l-14.24-2.49Z" transform="translate(-48.85 -190.33)"/><path class="cls-8" d="M341.74,467.3a1,1,0,0,0-.89-.93c-.4,0-.47.48-1.29,1.36a11.79,11.79,0,0,1-1.18,1.07l-1.44,1.2-2,1.7c-2.07-.33-4.15-.65-6.23-1a22.75,22.75,0,0,0-6.92-1.11,1,1,0,0,0-.7.28.86.86,0,0,0,0,1,.52.52,0,0,0,.24.17,9.13,9.13,0,0,0,3.05.62,32.49,32.49,0,0,1,3.33.51,63.44,63.44,0,0,0,6.37,1h0a11.42,11.42,0,0,0,1.38-.09c.17,0,.54-.11,2.06-1.41.73-.62.67-.61,1.48-1.3l1.34-1.13a5.39,5.39,0,0,0,1.16-1.21C341.74,467.62,341.75,467.41,341.74,467.3Z" transform="translate(-48.85 -190.33)"/><path class="cls-9" d="M326.09,464.81a3.44,3.44,0,0,1,4.06-1l10.11,2.35c.57,0,.76.18.83.32.3.63-1.42,2.07-3.15,3.49-1.27,1-2.36,1.84-3.1,2.35l-14-2.34Z" transform="translate(-48.85 -190.33)"/><path class="cls-8" d="M362.69,471.39a1,1,0,0,0-.89-.92c-.4,0-.47.47-1.3,1.36a11.33,11.33,0,0,1-1.17,1.07l-1.44,1.2-2,1.69c-2.08-.32-4.16-.64-6.23-1a22.89,22.89,0,0,0-6.92-1.1,1,1,0,0,0-.7.28.86.86,0,0,0,0,1,.73.73,0,0,0,.24.18,9,9,0,0,0,3.06.61c.36,0,1.35.17,3.33.52,1.73.3,4.62.93,6.37,1h0a11.42,11.42,0,0,0,1.38-.09c.17,0,.53-.12,2.06-1.41.73-.62.66-.62,1.47-1.31l1.34-1.13a5,5,0,0,0,1.17-1.2C362.69,471.72,362.7,471.51,362.69,471.39Z" transform="translate(-48.85 -190.33)"/><path class="cls-9" d="M347,468.91a3.44,3.44,0,0,1,4.07-1l10.11,2.34c.57,0,.76.18.82.32.31.64-1.41,2.07-3.15,3.5-1.26,1.05-2.36,1.84-3.1,2.35l-14-2.35Z" transform="translate(-48.85 -190.33)"/><path class="cls-8" d="M383.36,476.05a1,1,0,0,0-.9-.93c-.39,0-.47.48-1.29,1.36a11.33,11.33,0,0,1-1.17,1.07l-1.44,1.2-2,1.7c-2.08-.33-4.16-.65-6.23-1a22.75,22.75,0,0,0-6.92-1.11,1,1,0,0,0-.71.28.87.87,0,0,0,0,1,.58.58,0,0,0,.24.17,9.13,9.13,0,0,0,3.05.62,32.07,32.07,0,0,1,3.33.51,63.18,63.18,0,0,0,6.38,1h0a11.42,11.42,0,0,0,1.38-.09c.16,0,.53-.11,2.06-1.41.73-.62.66-.61,1.47-1.3l1.34-1.13a5.82,5.82,0,0,0,1.17-1.2A1.33,1.33,0,0,0,383.36,476.05Z" transform="translate(-48.85 -190.33)"/><path class="cls-9" d="M367.7,473.56a3.45,3.45,0,0,1,4.07-1l10.11,2.34c.57,0,.75.18.82.32.31.63-1.42,2.07-3.15,3.5-1.27,1-2.36,1.83-3.1,2.34l-14.05-2.34Z" transform="translate(-48.85 -190.33)"/><path class="cls-8" d="M333.17,498.1c0-.62-.57-1.24-1.06-1.22s-.55.62-1.53,1.79a13.89,13.89,0,0,1-1.39,1.41l-1.71,1.58-2.42,2.24c-2.47-.43-4.94-.85-7.4-1.32a24.8,24.8,0,0,0-8.22-1.46,1.08,1.08,0,0,0-.83.37,1.25,1.25,0,0,0,0,1.35.81.81,0,0,0,.28.23,9.61,9.61,0,0,0,3.63.81,39.34,39.34,0,0,1,3.95.68,71.1,71.1,0,0,0,7.57,1.35h0a11.23,11.23,0,0,0,1.64-.13c.19,0,.63-.14,2.44-1.85.87-.82.79-.81,1.75-1.72l1.59-1.49a6.83,6.83,0,0,0,1.39-1.58A1.79,1.79,0,0,0,333.17,498.1Z" transform="translate(-48.85 -190.33)"/><path class="cls-9" d="M315.23,494.83a3.82,3.82,0,0,1,4.73-1.22l11.75,2.9c.66,0,.88.22,1,.39.35.79-1.65,2.57-3.66,4.33-1.48,1.3-2.75,2.27-3.61,2.91l-16.34-2.9Z" transform="translate(-48.85 -190.33)"/><path class="cls-8" d="M353.94,502.46c-.05-.61-.58-1.23-1.06-1.22s-.56.63-1.54,1.8a13.89,13.89,0,0,1-1.39,1.41L348.24,506l-2.42,2.24c-2.47-.44-4.94-.85-7.4-1.33a24.89,24.89,0,0,0-8.21-1.45,1.1,1.1,0,0,0-.84.37,1.25,1.25,0,0,0,0,1.35.74.74,0,0,0,.29.23,9.78,9.78,0,0,0,3.62.81,38.84,38.84,0,0,1,3.95.68,68.62,68.62,0,0,0,7.57,1.34h0a12.15,12.15,0,0,0,1.64-.12c.2,0,.64-.15,2.44-1.85.87-.82.79-.81,1.76-1.72,1.48-1.4,1.59-1.49,1.59-1.49a6.67,6.67,0,0,0,1.38-1.59A1.74,1.74,0,0,0,353.94,502.46Z" transform="translate(-48.85 -190.33)"/><path class="cls-9" d="M336,499.2a3.82,3.82,0,0,1,4.73-1.22l11.75,2.9c.67,0,.89.22,1,.39.36.79-1.65,2.57-3.66,4.33-1.47,1.3-2.75,2.27-3.6,2.91l-16.34-2.9Z" transform="translate(-48.85 -190.33)"/><path class="cls-8" d="M401,490.61a1,1,0,0,0-.87-.92c-.39,0-.47.47-1.28,1.36a12.93,12.93,0,0,1-1.15,1.07l-1.43,1.2-2,1.69c-2.05-.33-4.1-.65-6.14-1a22.29,22.29,0,0,0-6.82-1.1.92.92,0,0,0-.7.27.89.89,0,0,0,0,1,.58.58,0,0,0,.24.17,8.87,8.87,0,0,0,3,.62c.35,0,1.33.17,3.28.51a61.27,61.27,0,0,0,6.28,1h0a11.09,11.09,0,0,0,1.36-.09c.16,0,.53-.11,2-1.41.72-.62.65-.61,1.45-1.3l1.32-1.13a5.3,5.3,0,0,0,1.15-1.2C401,490.94,401,490.73,401,490.61Z" transform="translate(-48.85 -190.33)"/><path class="cls-9" d="M385.11,487.53a3.37,3.37,0,0,1,4.12-1L399.47,489c.58,0,.77.19.84.34.31.68-1.44,2.21-3.19,3.72-1.29,1.12-2.39,2-3.14,2.5L379.75,493Z" transform="translate(-48.85 -190.33)"/><path class="cls-8" d="M404.56,480.24a1,1,0,0,0-.89-.93c-.4,0-.47.48-1.29,1.37-.24.24-.54.53-1.18,1.07l-1.44,1.2-2,1.69c-2.07-.33-4.15-.64-6.23-1a22.89,22.89,0,0,0-6.92-1.1.92.92,0,0,0-.7.27.86.86,0,0,0,0,1,.52.52,0,0,0,.24.17,8.84,8.84,0,0,0,3.05.62c.36,0,1.35.17,3.33.52,1.73.3,4.63.93,6.37,1h0a10.29,10.29,0,0,0,1.38-.1c.17,0,.54-.11,2.06-1.4.73-.62.67-.62,1.48-1.31l1.33-1.13a5.15,5.15,0,0,0,1.17-1.2C404.56,480.57,404.57,480.36,404.56,480.24Z" transform="translate(-48.85 -190.33)"/><path class="cls-9" d="M388.9,477.75a3.45,3.45,0,0,1,4.07-1l10.11,2.34c.57,0,.76.18.83.32.3.64-1.42,2.07-3.15,3.5-1.27,1-2.37,1.83-3.1,2.34l-14.06-2.34Z" transform="translate(-48.85 -190.33)"/><path class="cls-8" d="M425.08,485.24a1.05,1.05,0,0,0-.9-.93c-.39,0-.46.48-1.29,1.37a12.64,12.64,0,0,1-1.17,1.07l-1.44,1.2-2,1.69c-2.08-.32-4.16-.64-6.23-1a22.89,22.89,0,0,0-6.92-1.1,1,1,0,0,0-.7.27.87.87,0,0,0,0,1,.73.73,0,0,0,.24.18,9,9,0,0,0,3.06.61c.36,0,1.35.17,3.32.52,1.74.3,4.63.93,6.38,1h0a10.29,10.29,0,0,0,1.38-.1c.16,0,.53-.11,2.06-1.4.73-.62.66-.62,1.47-1.31l1.34-1.13a5,5,0,0,0,1.17-1.2C425.08,485.57,425.09,485.36,425.08,485.24Z" transform="translate(-48.85 -190.33)"/><path class="cls-9" d="M409.42,482.76a3.44,3.44,0,0,1,4.07-1l10.11,2.34c.57,0,.76.18.82.32.31.64-1.41,2.07-3.15,3.5-1.27,1.05-2.36,1.84-3.1,2.35l-14.05-2.35Z" transform="translate(-48.85 -190.33)"/><path class="cls-8" d="M202.56,428.56a1,1,0,0,0-.9-.92c-.39,0-.47.47-1.29,1.36a11.33,11.33,0,0,1-1.17,1.07l-1.44,1.2-2,1.69c-2.08-.32-4.16-.64-6.23-1a22.89,22.89,0,0,0-6.92-1.1,1,1,0,0,0-.7.28.86.86,0,0,0,0,1,.7.7,0,0,0,.24.17,9,9,0,0,0,3.06.61c.36,0,1.35.17,3.32.52,1.74.3,4.63.93,6.38,1h0a11.42,11.42,0,0,0,1.38-.09c.16,0,.53-.12,2.06-1.41.73-.62.66-.62,1.47-1.3l1.34-1.14a5.15,5.15,0,0,0,1.17-1.2C202.56,428.89,202.57,428.68,202.56,428.56Z" transform="translate(-48.85 -190.33)"/><path class="cls-9" d="M186.9,426.08a3.44,3.44,0,0,1,4.07-1l10.11,2.34c.57,0,.76.18.82.32.31.64-1.42,2.08-3.15,3.5-1.27,1.05-2.36,1.84-3.1,2.35l-14.05-2.34Z" transform="translate(-48.85 -190.33)"/><path class="cls-8" d="M221.8,433a1,1,0,0,0-.89-.93c-.39,0-.47.48-1.29,1.36a11.33,11.33,0,0,1-1.17,1.07l-1.45,1.2-2,1.7c-2.08-.33-4.16-.65-6.23-1a22.75,22.75,0,0,0-6.92-1.11,1,1,0,0,0-.71.28.87.87,0,0,0,0,1,.58.58,0,0,0,.24.17,8.84,8.84,0,0,0,3.05.62c.36,0,1.35.17,3.33.51a63.18,63.18,0,0,0,6.38,1h0a11.53,11.53,0,0,0,1.38-.09c.16,0,.53-.11,2.06-1.41.73-.62.66-.61,1.47-1.3l1.34-1.13a5.82,5.82,0,0,0,1.17-1.2C221.8,433.3,221.81,433.09,221.8,433Z" transform="translate(-48.85 -190.33)"/><path class="cls-9" d="M206.15,430.49a3.45,3.45,0,0,1,4.07-1l10.11,2.34c.56,0,.75.18.82.32.3.63-1.42,2.07-3.15,3.5-1.27,1-2.36,1.83-3.1,2.34l-14.05-2.34Z" transform="translate(-48.85 -190.33)"/><path class="cls-8" d="M240.86,436.2a1,1,0,0,0-.89-.93c-.39,0-.47.48-1.29,1.37a14.3,14.3,0,0,1-1.17,1.07l-1.45,1.2-2,1.69c-2.08-.33-4.16-.64-6.23-1a23,23,0,0,0-6.93-1.1.93.93,0,0,0-.7.27.87.87,0,0,0,0,1,.58.58,0,0,0,.24.17,8.84,8.84,0,0,0,3.05.62c.36,0,1.35.17,3.33.52,1.73.3,4.63.93,6.37,1h0a10.29,10.29,0,0,0,1.38-.1c.17,0,.54-.11,2.06-1.4.73-.62.67-.62,1.48-1.31l1.34-1.13a5.33,5.33,0,0,0,1.16-1.2C240.86,436.53,240.87,436.32,240.86,436.2Z" transform="translate(-48.85 -190.33)"/><path class="cls-9" d="M225.21,433.71a3.45,3.45,0,0,1,4.07-1l10.1,2.34c.57,0,.76.18.83.32.3.64-1.42,2.07-3.15,3.5-1.27,1-2.36,1.83-3.1,2.34l-14.05-2.34Z" transform="translate(-48.85 -190.33)"/><path class="cls-8" d="M260.12,440.13a1,1,0,0,0-.89-.92c-.4,0-.47.47-1.3,1.36a11.33,11.33,0,0,1-1.17,1.07l-1.44,1.2-2,1.7c-2.08-.33-4.16-.65-6.23-1a22.89,22.89,0,0,0-6.92-1.1,1,1,0,0,0-.7.28.87.87,0,0,0,0,1,.65.65,0,0,0,.24.17,9.16,9.16,0,0,0,3.06.62A29.58,29.58,0,0,1,246,445c1.73.3,4.62.93,6.37,1h0a11.42,11.42,0,0,0,1.38-.09c.17,0,.54-.12,2.06-1.41.73-.62.66-.62,1.47-1.3l1.34-1.14a5,5,0,0,0,1.17-1.2C260.12,440.46,260.13,440.25,260.12,440.13Z" transform="translate(-48.85 -190.33)"/><path class="cls-9" d="M244.46,437.65a3.44,3.44,0,0,1,4.07-1L258.64,439c.57,0,.76.18.82.32.31.64-1.41,2.08-3.14,3.5-1.27,1.05-2.37,1.84-3.11,2.35l-14.05-2.34Z" transform="translate(-48.85 -190.33)"/><path class="cls-8" d="M279.78,444.42a1,1,0,0,0-.89-.93c-.39,0-.47.48-1.29,1.37a13,13,0,0,1-1.17,1.06L275,447.13l-2,1.69c-2.08-.33-4.16-.64-6.23-1a22.55,22.55,0,0,0-6.92-1.1.94.94,0,0,0-.71.27.87.87,0,0,0,0,1,.58.58,0,0,0,.24.17,8.84,8.84,0,0,0,3.05.62c.36,0,1.35.17,3.33.52,1.73.3,4.63.92,6.38,1h0a11.53,11.53,0,0,0,1.38-.09c.16,0,.53-.11,2.06-1.41.73-.62.66-.61,1.47-1.3l1.34-1.13a5.58,5.58,0,0,0,1.17-1.2C279.78,444.74,279.79,444.53,279.78,444.42Z" transform="translate(-48.85 -190.33)"/><path class="cls-9" d="M264.13,441.93a3.45,3.45,0,0,1,4.07-1l10.1,2.34c.57,0,.76.18.83.32.3.63-1.42,2.07-3.15,3.5-1.27,1-2.36,1.83-3.1,2.34l-14.05-2.34Z" transform="translate(-48.85 -190.33)"/><path class="cls-8" d="M299.46,448.47a1.05,1.05,0,0,0-.9-.93c-.39,0-.47.48-1.29,1.37A12.64,12.64,0,0,1,296.1,450l-1.44,1.2-2,1.69c-2.08-.33-4.16-.64-6.23-1a22.89,22.89,0,0,0-6.92-1.1.94.94,0,0,0-.71.27.87.87,0,0,0,0,1,.49.49,0,0,0,.24.17,8.84,8.84,0,0,0,3,.62,33.69,33.69,0,0,1,3.33.52c1.73.3,4.63.93,6.38,1h0a10.39,10.39,0,0,0,1.38-.1c.16,0,.53-.11,2.06-1.4.73-.62.66-.62,1.47-1.31l1.34-1.13a5.58,5.58,0,0,0,1.17-1.2A1.29,1.29,0,0,0,299.46,448.47Z" transform="translate(-48.85 -190.33)"/><path class="cls-9" d="M283.8,446a3.44,3.44,0,0,1,4.07-1L298,447.34c.57,0,.75.18.82.32.31.64-1.42,2.07-3.15,3.5-1.27,1-2.36,1.83-3.1,2.34l-14.05-2.34Z" transform="translate(-48.85 -190.33)"/><path class="cls-8" d="M319.31,452.48a1.05,1.05,0,0,0-.89-.93c-.4,0-.47.48-1.29,1.37A14.87,14.87,0,0,1,316,454l-1.44,1.2-2,1.69c-2.07-.32-4.15-.64-6.23-1a22.89,22.89,0,0,0-6.92-1.1,1,1,0,0,0-.7.27.86.86,0,0,0,0,1,.57.57,0,0,0,.24.18,9,9,0,0,0,3.05.61c.36,0,1.35.17,3.33.52,1.73.3,4.63.93,6.37,1h0a10.29,10.29,0,0,0,1.38-.1c.17,0,.54-.11,2.06-1.4.73-.62.67-.62,1.48-1.31l1.33-1.13a5.15,5.15,0,0,0,1.17-1.2C319.31,452.81,319.32,452.6,319.31,452.48Z" transform="translate(-48.85 -190.33)"/><path class="cls-9" d="M303.65,450a3.44,3.44,0,0,1,4.07-1l10.11,2.34c.57,0,.76.18.83.32.3.64-1.42,2.07-3.15,3.5-1.27,1.05-2.37,1.83-3.1,2.35l-14.06-2.35Z" transform="translate(-48.85 -190.33)"/><path class="cls-8" d="M339.9,456.47a1,1,0,0,0-.9-.92c-.39,0-.46.47-1.29,1.36a11.33,11.33,0,0,1-1.17,1.07l-1.44,1.2-2,1.7c-2.08-.33-4.16-.65-6.23-1a22.89,22.89,0,0,0-6.92-1.1,1,1,0,0,0-.7.28.87.87,0,0,0,0,1,.65.65,0,0,0,.24.17,9.16,9.16,0,0,0,3.06.62,32.08,32.08,0,0,1,3.32.51c1.74.3,4.63.93,6.38,1h0a11.42,11.42,0,0,0,1.38-.09c.16,0,.53-.11,2.06-1.41.73-.62.66-.62,1.47-1.3l1.34-1.13a5.21,5.21,0,0,0,1.17-1.21C339.9,456.8,339.91,456.59,339.9,456.47Z" transform="translate(-48.85 -190.33)"/><path class="cls-9" d="M324.24,454a3.44,3.44,0,0,1,4.07-1l10.11,2.35c.57,0,.76.18.82.32.31.63-1.41,2.07-3.15,3.49-1.27,1-2.36,1.84-3.1,2.35l-14.05-2.34Z" transform="translate(-48.85 -190.33)"/><path class="cls-8" d="M359.9,460.89A1,1,0,0,0,359,460c-.4,0-.47.47-1.29,1.36a11.79,11.79,0,0,1-1.18,1.07l-1.44,1.2-2,1.7c-2.07-.33-4.15-.65-6.23-1a22.89,22.89,0,0,0-6.92-1.1,1,1,0,0,0-.7.28.86.86,0,0,0,0,1,.52.52,0,0,0,.24.17,9.13,9.13,0,0,0,3.05.62,32.49,32.49,0,0,1,3.33.51c1.73.3,4.63.93,6.37,1h0a11.42,11.42,0,0,0,1.38-.09c.17,0,.54-.11,2.06-1.41.73-.62.67-.61,1.48-1.3l1.34-1.13a5.39,5.39,0,0,0,1.16-1.21C359.9,461.21,359.91,461,359.9,460.89Z" transform="translate(-48.85 -190.33)"/><path class="cls-9" d="M358.42,459.76l-1.24-.29a2.79,2.79,0,0,0,.86,0,8,8,0,0,0-1.76-.26h0v0l-8-1.85a3.44,3.44,0,0,0-4.06,1l-5.3,5.18L353,465.92c.74-.51,1.83-1.3,3.1-2.35,1.73-1.42,3.45-2.86,3.15-3.49C359.18,459.94,359,459.78,358.42,459.76Z" transform="translate(-48.85 -190.33)"/><path class="cls-8" d="M380.05,465a1,1,0,0,0-.9-.93c-.39,0-.47.48-1.29,1.36a11.33,11.33,0,0,1-1.17,1.07l-1.44,1.2-2,1.7c-2.08-.33-4.16-.65-6.23-1a22.75,22.75,0,0,0-6.92-1.11,1,1,0,0,0-.71.28.87.87,0,0,0,0,1,.58.58,0,0,0,.24.17,9.13,9.13,0,0,0,3.05.62,32.07,32.07,0,0,1,3.33.51,63.18,63.18,0,0,0,6.38,1h0a11.53,11.53,0,0,0,1.38-.09c.16,0,.53-.11,2.06-1.41.73-.62.66-.61,1.47-1.3l1.34-1.13a5.82,5.82,0,0,0,1.17-1.2A1.33,1.33,0,0,0,380.05,465Z" transform="translate(-48.85 -190.33)"/><path class="cls-9" d="M364.39,462.53a3.45,3.45,0,0,1,4.07-1l10.11,2.34c.57,0,.75.18.82.32.31.63-1.42,2.07-3.15,3.5-1.27,1-2.36,1.83-3.1,2.34l-14.05-2.34Z" transform="translate(-48.85 -190.33)"/><path class="cls-8" d="M401.15,469.63a1,1,0,0,0-.9-.93c-.39,0-.47.48-1.29,1.36a11.33,11.33,0,0,1-1.17,1.07l-1.44,1.2-2,1.7c-2.08-.33-4.16-.65-6.23-1a22.55,22.55,0,0,0-6.92-1.1.94.94,0,0,0-.71.27.87.87,0,0,0,0,1,.58.58,0,0,0,.24.17,8.84,8.84,0,0,0,3,.62c.37,0,1.35.17,3.33.51a63.18,63.18,0,0,0,6.38,1h0a11.53,11.53,0,0,0,1.38-.09c.16,0,.53-.11,2.06-1.41.73-.62.66-.61,1.47-1.3l1.34-1.13a5.58,5.58,0,0,0,1.17-1.2A1.33,1.33,0,0,0,401.15,469.63Z" transform="translate(-48.85 -190.33)"/><path class="cls-9" d="M385.49,467.14a3.45,3.45,0,0,1,4.07-1l10.11,2.34c.57,0,.75.18.82.32.31.63-1.42,2.07-3.15,3.5-1.27,1-2.36,1.83-3.1,2.34l-14.05-2.34Z" transform="translate(-48.85 -190.33)"/><path class="cls-8" d="M421.87,474a1,1,0,0,0-.89-.92c-.4,0-.47.47-1.29,1.36a11.79,11.79,0,0,1-1.18,1.07l-1.44,1.2-2,1.69c-2.07-.32-4.15-.64-6.23-1a22.89,22.89,0,0,0-6.92-1.1,1,1,0,0,0-.7.28.84.84,0,0,0,0,1,.57.57,0,0,0,.24.18,9,9,0,0,0,3.05.61c.36,0,1.35.17,3.33.52,1.73.3,4.63.93,6.37,1h0a10.29,10.29,0,0,0,1.38-.1c.17,0,.54-.11,2.06-1.4.73-.62.67-.62,1.48-1.31L420.4,476a5.12,5.12,0,0,0,1.16-1.2C421.87,474.33,421.88,474.12,421.87,474Z" transform="translate(-48.85 -190.33)"/><path class="cls-9" d="M406.22,471.52a3.43,3.43,0,0,1,4.06-1l10.11,2.34c.57,0,.76.18.83.32.3.64-1.42,2.07-3.15,3.5-1.27,1.05-2.36,1.84-3.1,2.35l-14.05-2.35Z" transform="translate(-48.85 -190.33)"/><path class="cls-8" d="M456.65,498.46" transform="translate(-48.85 -190.33)"/><path class="cls-8" d="M453.78,481.73a3.48,3.48,0,0,0-3.77-.47,6.56,6.56,0,0,0-2.7,2.83c.14-.14-.79.85-.49.7-.27.14-1.33-.21-1.65-.26-2.32-.37-4.63-.8-6.93-1.31s-4.5-1.29-6.77-1.72-4.2-.38-6.26-1.11c-.86-.31-2.25-.48-2.51.69s1.13,2.26,2,2.57a24,24,0,0,0,3.79,1.06c1.21.21,2.44.22,3.64.44,2.76.49,5.46,1.45,8.2,2a50,50,0,0,0,8.13,1.38,2.76,2.76,0,0,0,1-.14,3.74,3.74,0,0,0,1.73-1.29c2.26-2.69,3.28-2.9,3.2-4.06A2.3,2.3,0,0,0,453.78,481.73Z" transform="translate(-48.85 -190.33)"/><path class="cls-9" d="M429.94,475.2c-2.41-1.27-6.88,5.38-6.88,5.38-1.49,1.38,6.77,2.52,6.77,2.52l17,3.79c3.09.68,4.7-2.64,4.7-2.64l2.29-2.52C453.78,479.55,429.94,475.2,429.94,475.2Z" transform="translate(-48.85 -190.33)"/><path class="cls-8" d="M178.16,433.22c-.26.21-.21.52-.34,1a4.25,4.25,0,0,1-1.76,2c-.63.49-1.74.13-2.48,0-1.15-.23-2.28-.55-3.43-.79-5.85-1.23-11.46-2.94-14.26-2.34a3.08,3.08,0,0,0-2.13,1.24,2.29,2.29,0,0,0-.35,1.48c.37,1.43,3.75,1.24,9.21,2.25a55.42,55.42,0,0,1,7.53,1.73s4.64,1.46,7.29.89a4.73,4.73,0,0,0,2.78-1.72,5,5,0,0,1,1.42-1.27s.16-.13.31-.28,1.87-1.89,1.48-2.87c-.25-.66-1.1-.21-3.72-1.12C179.17,433.18,178.54,432.93,178.16,433.22Z" transform="translate(-48.85 -190.33)"/><path class="cls-9" d="M160,428.87c-1.08.81-2.2,1.73-3.35,2.74s-2,1.8-2.84,2.67c4.1,1,7.41,1.85,9.71,2.46a66.3,66.3,0,0,1,7.8,1.76c4.6,1.51,6.67.47,7.45-.07a42.09,42.09,0,0,0,3.24-2.88c.72-.68,1.3-1.24,1.69-1.62Z" transform="translate(-48.85 -190.33)"/><path class="cls-8" d="M183.14,424.81a1,1,0,0,0-.89-.93c-.4,0-.47.48-1.3,1.36a11.33,11.33,0,0,1-1.17,1.07l-1.44,1.2-2,1.7c-2.08-.33-4.16-.65-6.23-1a22.75,22.75,0,0,0-6.92-1.11,1,1,0,0,0-.7.28.87.87,0,0,0,0,1,.65.65,0,0,0,.24.17,9.16,9.16,0,0,0,3.06.62,32.49,32.49,0,0,1,3.33.51,63,63,0,0,0,6.37,1h0a11.42,11.42,0,0,0,1.38-.09c.17,0,.54-.11,2.06-1.41.73-.62.66-.61,1.48-1.3l1.33-1.13a5.36,5.36,0,0,0,1.17-1.2C183.14,425.13,183.15,424.92,183.14,424.81Z" transform="translate(-48.85 -190.33)"/><path class="cls-9" d="M167.48,422.32a3.45,3.45,0,0,1,4.07-1l10.11,2.34c.57,0,.76.18.82.32.31.63-1.41,2.07-3.14,3.5-1.27,1-2.37,1.83-3.1,2.34l-14.06-2.34Z" transform="translate(-48.85 -190.33)"/><path class="cls-8" d="M171.27,441.69c-.3.21-.24.52-.39,1-.32,1-1.39,1.57-2,2s-2,.13-2.82,0c-1.31-.23-2.59-.55-3.9-.79-6.64-1.23-13-2.94-16.2-2.34a3.5,3.5,0,0,0-2.41,1.24,2,2,0,0,0-.4,1.48c.42,1.43,4.26,1.24,10.46,2.25a70.46,70.46,0,0,1,8.56,1.73s5.27,1.46,8.28.89a5.52,5.52,0,0,0,3.15-1.72,5.64,5.64,0,0,1,1.61-1.27l.36-.28c.25-.23,2.12-1.89,1.68-2.87-.29-.66-1.25-.21-4.23-1.12C172.42,441.65,171.71,441.4,171.27,441.69Z" transform="translate(-48.85 -190.33)"/><path class="cls-9" d="M150.05,437.36c-1.25.81-2.56,1.72-3.89,2.74s-2.28,1.79-3.28,2.66c4.74,1,8.58,1.84,11.24,2.46a89.31,89.31,0,0,1,9,1.75c5.33,1.51,7.72.47,8.63-.07a42.6,42.6,0,0,0,3.75-2.88c.83-.67,1.5-1.23,1.95-1.61Z" transform="translate(-48.85 -190.33)"/><path class="cls-9" d="M407,491.36" transform="translate(-48.85 -190.33)"/><path d="M432.78,508.08a4.66,4.66,0,0,0-1.93-.09c-.39.08-1,.2-1.22.58a15.29,15.29,0,0,1-2.44,3.21c-.69.74-1.4,1.47-2.11,2.2a3.12,3.12,0,0,0-.75.15,6.83,6.83,0,0,1-3.92-.25c-1.66-.44-3.31-.9-5-1.36l-10.13-2.76-20.25-5.52c-.89-.24-2.51-.11-2.78,1s1.26,1.86,2.09,2.08l21.7,5.92,10.61,2.89c3.46.94,7.05,2.15,10.61,1a1.48,1.48,0,0,0,.62-.38,2.12,2.12,0,0,0,.92-.52c1-1.08,2.07-2.14,3.08-3.23a15.15,15.15,0,0,0,2.44-3.2C434.84,508.81,433.47,508.24,432.78,508.08Z" transform="translate(-48.85 -190.33)"/><path class="cls-9" d="M387.13,499.15c.6-1.35,4.34-1,4.34-1l39.81,9.58c1.65.6-2.24,5.09-2.24,5.09l-1.2,1.34c-.45,2.1-8.53.3-8.53.3l-36.07-8.53C380.84,504.39,387.13,499.15,387.13,499.15Z" transform="translate(-48.85 -190.33)"/><path d="M399.63,513.53a26.88,26.88,0,0,0-4.1,4.78c-.25.39-.58.76-.81,1.15l-.15.15-.22,0a32.59,32.59,0,0,0-3.44-.2,36.7,36.7,0,0,1-6.47-1.29c-2.05-.61-4-1.59-6.2-1.66a2.87,2.87,0,0,0-2,.58c-.36.34-.42.8.21.82,2.52.08,5,1.41,7.41,2a37.75,37.75,0,0,0,7.46,1.1c2.06.1,4.28.18,5.85-1.51.74-.81,1.26-1.83,1.93-2.7a23.46,23.46,0,0,1,2.71-3C403,512.73,400.19,513,399.63,513.53Z" transform="translate(-48.85 -190.33)"/><path d="M419.33,524.35a3.31,3.31,0,0,1-1.21,2c-.7.47-1.65.17-2.42,0-1.64-.37-3.26-.71-4.92-1-3.37-.53-6.75-1-9.76-2.75-.72-.41-3.4.69-2.33,1.31,3.88,2.23,8.41,2.46,12.72,3.3,2.23.43,4.39,1.2,6.67.58a5.53,5.53,0,0,0,4.13-3.86C422.44,523,419.55,523.46,419.33,524.35Z" transform="translate(-48.85 -190.33)"/><path class="cls-9" d="M381.52,509.85c1.37-1,2-1.59,1.85-1.93-.05-.12-.2-.2-.43-.24,3,.87,6.25,1.68,9.72,2.39,2.55.52,5,.94,7.34,1.28a1.92,1.92,0,0,1,.6,1.12,2.88,2.88,0,0,1-2.24,2.69l-4,4.47-17.3-2.69h0C374.52,515.57,381.52,509.85,381.52,509.85Z" transform="translate(-48.85 -190.33)"/><path class="cls-9" d="M401.79,520c.45-1.79,2.85-1.5,2.85-1.5l16.61,3.3c2.4.75-2.69,4.19-2.69,4.19-1.35,1-18.26-3-18.26-3C399.25,522.35,401.79,520,401.79,520Z" transform="translate(-48.85 -190.33)"/><path class="cls-8" d="M440.34,499.46c-.5.08-1.37.29-1.63.8-.79,1.57-1.62,3.11-2.52,4.62-.23.4-.46.79-.71,1.18l-.1.15a21.68,21.68,0,0,1-2.14-.59,102.91,102.91,0,0,0-10.09-2.74c-3.38-.78-6.78-1.41-10.21-2a32.9,32.9,0,0,1-9.55-2.63,2.45,2.45,0,0,0-1.8.13c-.13.05-1.29.62-.82.85a36.59,36.59,0,0,0,10.73,2.92c4.14.66,8.23,1.54,12.31,2.52,2,.49,4,.93,5.95,1.61a12.88,12.88,0,0,0,5.17,1.11,4,4,0,0,0,3.43-2c1.12-1.81,2.15-3.69,3.11-5.6C441.71,499.3,440.5,499.43,440.34,499.46Z" transform="translate(-48.85 -190.33)"/><path class="cls-9" d="M409.13,491.66c-2.85-1.34-4.79,2.4-4.79,2.4s-2.55,3.29-2.55,3.74c0,1.8,7.49,3,7.49,3l23.65,5.39c4.19,1.2,6-4.49,6-4.49l1.8-2.24c.3-1.2-18.26-4.49-18.26-4.49Z" transform="translate(-48.85 -190.33)"/><path class="cls-8" d="M446.44,490.43a2.15,2.15,0,0,0-1.63.9l-1.43,2.79a8.41,8.41,0,0,1-1.22,2.09c-.93,1-3,.1-4.15-.16-3.77-.87-7.58-1.65-11.25-2.89a2.55,2.55,0,0,0-2,.3c-.31.17-.93.75-.28,1,2.3.78,4.67,1.38,7,1.94s4.66,1.22,7,1.56a7.19,7.19,0,0,0,5.71-1.25,7.29,7.29,0,0,0,1.59-2.26c.6-1.16,1.18-2.33,1.78-3.5C447.91,490.37,446.66,490.41,446.44,490.43Z" transform="translate(-48.85 -190.33)"/><path class="cls-9" d="M428.59,487.47c.59-2.69,5.68-1.05,5.68-1.05l11.23,2.85c2.69,1.94-3.44,7.78-3.44,7.78-1.8.75-16.47-3.29-16.47-3.29C423.5,492.41,428.59,487.47,428.59,487.47Z" transform="translate(-48.85 -190.33)"/><path class="cls-8" d="M167.16,463.36a1,1,0,0,0-.89-.93c-.39,0-.47.48-1.29,1.37a12.64,12.64,0,0,1-1.17,1.07l-1.45,1.2-2,1.69c-2.08-.33-4.16-.64-6.23-1a23,23,0,0,0-6.93-1.1.93.93,0,0,0-.7.27.87.87,0,0,0,0,1,.58.58,0,0,0,.24.17,8.84,8.84,0,0,0,3,.62c.36,0,1.35.17,3.33.52,1.73.3,4.63.93,6.37,1h0a10.49,10.49,0,0,0,1.39-.1c.16,0,.53-.11,2.05-1.4.73-.62.67-.62,1.48-1.31l1.34-1.13a5.33,5.33,0,0,0,1.16-1.2C167.16,463.69,167.17,463.48,167.16,463.36Z" transform="translate(-48.85 -190.33)"/><path class="cls-9" d="M151.51,460.87a3.45,3.45,0,0,1,4.07-1l10.1,2.34c.57,0,.76.18.83.32.3.64-1.42,2.07-3.15,3.5-1.27,1-2.36,1.83-3.1,2.34l-14-2.34Z" transform="translate(-48.85 -190.33)"/><path class="cls-8" d="M186.92,467.72a1,1,0,0,0-.89-.93c-.39,0-.47.48-1.29,1.37a12.64,12.64,0,0,1-1.17,1.07l-1.45,1.2-2,1.69c-2.08-.33-4.16-.64-6.23-1a22.89,22.89,0,0,0-6.92-1.1.94.94,0,0,0-.71.27.87.87,0,0,0,0,1,.49.49,0,0,0,.24.17,8.84,8.84,0,0,0,3.05.62c.36,0,1.35.17,3.33.52,1.73.3,4.63.93,6.38,1h0a10.39,10.39,0,0,0,1.38-.1c.16,0,.53-.11,2-1.4.74-.62.67-.62,1.48-1.31l1.34-1.13a5.58,5.58,0,0,0,1.17-1.2C186.92,468.05,186.93,467.84,186.92,467.72Z" transform="translate(-48.85 -190.33)"/><path class="cls-9" d="M171.27,465.24a3.44,3.44,0,0,1,4.07-1l10.1,2.34c.57,0,.76.18.83.32.3.64-1.42,2.07-3.15,3.5-1.27,1-2.36,1.83-3.1,2.34L166,470.41Z" transform="translate(-48.85 -190.33)"/><path class="cls-8" d="M207.43,471.8a1,1,0,0,0-.89-.92c-.4,0-.47.47-1.3,1.36a11.33,11.33,0,0,1-1.17,1.07l-1.44,1.2-2,1.69c-2.08-.32-4.16-.64-6.23-1a22.89,22.89,0,0,0-6.92-1.1,1,1,0,0,0-.7.28.87.87,0,0,0,0,1,.81.81,0,0,0,.24.17,9,9,0,0,0,3.06.61c.36,0,1.35.17,3.32.52,1.74.3,4.63.93,6.38,1h0a11.42,11.42,0,0,0,1.38-.09c.16,0,.53-.12,2.06-1.41.73-.62.66-.62,1.47-1.31l1.34-1.13a5,5,0,0,0,1.17-1.2C207.43,472.13,207.44,471.92,207.43,471.8Z" transform="translate(-48.85 -190.33)"/><path class="cls-9" d="M191.77,469.32a3.44,3.44,0,0,1,4.07-1L206,470.67c.57,0,.76.18.82.32.31.64-1.41,2.08-3.15,3.5-1.26,1.05-2.36,1.84-3.1,2.35l-14.05-2.35Z" transform="translate(-48.85 -190.33)"/><path class="cls-8" d="M146.36,458.09a6.67,6.67,0,0,1-2.3,2.21c-.88.67-1.77,1.33-2.67,2l-1.54,1.11-.78.55c-.45.32-.51.37-.19.13a19,19,0,0,1-2.8-1c-4.4-1.3-9.07-1.79-13.57-2.56-1.26-.22-2.91,1.63-1,1.95l8.25,1.43c1.36.23,2.72.48,4.06.84s2.38.86,3.6,1.2c2.35.66,4.42-1.49,6.21-2.8,1.08-.8,2.16-1.61,3.23-2.43a6.73,6.73,0,0,0,2.2-2.42C149.68,456.88,146.85,457,146.36,458.09Z" transform="translate(-48.85 -190.33)"/><path class="cls-9" d="M128.5,454.47a3.45,3.45,0,0,1,4.07-1l10.62,2.05c.34,0,4.65.14,5,1.67.06.23.13,1-3.52,4-1.7,1.41-3.17,2.47-4.18,3.16-2.94-.29-6.15-.74-9.56-1.39s-6.67-1.48-9.55-2.32Z" transform="translate(-48.85 -190.33)"/><path d="M373.11,511.83a2.81,2.81,0,0,0-1.7.74l-1.19,1.57c-.16.21-.33.51-.52.79-.32-.09-.65-.19-.92-.24l-1.91-.38c-1.46-.29-2.92-.6-4.37-.93a82.61,82.61,0,0,1-8.61-2.41,3,3,0,0,0-1.85.21c-.1,0-1.3.6-.89.74a100,100,0,0,0,12.75,3.34c2,.39,4.2,1.22,6.18.77s3-2.44,4.17-4C374.54,511.65,373.19,511.81,373.11,511.83Z" transform="translate(-48.85 -190.33)"/><path class="cls-9" d="M353.47,508.43c.45-1.8,2.85-1.5,2.85-1.5l16.61,3.29c2.39.75-2.69,4.19-2.69,4.19-1.35,1.05-18.26-3-18.26-3C350.93,510.82,353.47,508.43,353.47,508.43Z" transform="translate(-48.85 -190.33)"/><path d="M177.74,452.59a2.27,2.27,0,0,0-2.05.55,47.38,47.38,0,0,1-3.84,3.52c-.32.27-.65.53-1,.79a1,1,0,0,1-1.05.28L167,457.3c-3.51-.53-7-1.09-10.51-1.71a144.8,144.8,0,0,1-20.84-5.15c-1-.35-3.4,1.12-1.75,1.68a152.78,152.78,0,0,0,23.41,5.6c3.83.65,7.69,1.37,11.55,1.81,2,.23,3.29-.64,4.81-1.85a49.44,49.44,0,0,0,4.36-4C178.49,453.26,178.33,452.77,177.74,452.59Z" transform="translate(-48.85 -190.33)"/><path class="cls-9" d="M135.17,451.73c-3.33-.46.65-3.26.65-3.26l3.58-3c2.41-.78,6.13.27,6.13.27l30.29,6.45c1.89,1,1.63.39,1.63.39l-5.34,4.88c-.13,1.76-4.17.91-4.17.91Z" transform="translate(-48.85 -190.33)"/><path d="M310.6,492.24c-.53-.88-3.28.13-2.89.78.81,1.35-.57,2.69-1.44,3.63a11.42,11.42,0,0,1-3.44,2.74c-2.95,1.33-6.75-.72-9.63-1.46-6.74-1.74-13.67-2.83-20.48-4.25q-20.87-4.35-41.57-9.45-11.76-2.91-23.46-6a2.71,2.71,0,0,0-2,.3c-.28.16-1,.82-.29,1q22.37,6,45,11.14,11.24,2.55,22.51,4.89,5.76,1.19,11.52,2.32c3.81.75,7.49,1.72,11.22,2.77,3.47,1,6.91.88,10-1.09a17.49,17.49,0,0,0,3.62-3.19C310.15,495.28,311.48,493.7,310.6,492.24Z" transform="translate(-48.85 -190.33)"/><path class="cls-9" d="M210,473c1.35-2,2.55-2.48,3.45-2.55a19.53,19.53,0,0,1,3,.46l93.23,20.35a1.16,1.16,0,0,1,.68.55c.9,1.75-4.31,6-5.22,6.72a6.25,6.25,0,0,1-3.5,1.5,6.08,6.08,0,0,1-2.77-.41L206,478.9c-1.36-.45,2-3.54,2-3.54" transform="translate(-48.85 -190.33)"/><line class="cls-10" x1="163.94" y1="340.44" x2="171.24" y2="333.14"/><rect class="cls-11" x="291.26" y="225.56" width="70.7" height="7.83" rx="3.92" transform="translate(-7.02 -240.55) rotate(9.39)"/><polygon class="cls-12" points="171.85 11.05 232.57 20.66 197.5 199.76 133.41 186.79 171.85 11.05"/><rect class="cls-13" x="289.83" y="235.19" width="40.81" height="7.83" rx="3.92" transform="translate(-5.67 -237.75) rotate(9.39)"/><rect class="cls-13" x="334.83" y="248.66" width="110.37" height="7.83" rx="3.92" transform="translate(-2.4 -250.58) rotate(9.39)"/><rect class="cls-14" x="288.05" y="247.34" width="40.81" height="7.83" rx="3.92" transform="translate(-3.71 -237.29) rotate(9.39)"/><rect class="cls-14" x="285.79" y="261.35" width="40.81" height="7.83" rx="3.92" transform="translate(-1.46 -236.74) rotate(9.39)"/><rect class="cls-13" x="330.79" y="274.81" width="110.37" height="7.83" rx="3.92" transform="translate(1.81 -249.58) rotate(9.39)"/><rect class="cls-14" x="284.02" y="273.49" width="40.81" height="7.83" rx="3.92" transform="translate(0.5 -236.28) rotate(9.39)"/><rect class="cls-15" x="444.94" y="288.24" width="40.81" height="7.83" rx="3.92" transform="translate(5.06 -262.35) rotate(9.39)"/><rect class="cls-14" x="281.32" y="287.96" width="70.7" height="7.83" rx="3.92" transform="translate(3.03 -238.09) rotate(9.39)"/><rect class="cls-11" x="275.23" y="307.81" width="40.81" height="7.83" rx="3.92" transform="translate(5.98 -234.39) rotate(9.39)"/><rect class="cls-14" x="272.97" y="322.3" width="40.81" height="7.83" rx="3.92" transform="translate(8.32 -233.83) rotate(9.39)"/><rect class="cls-16" x="318.44" y="337.21" width="110.37" height="7.83" rx="3.92" transform="matrix(0.99, 0.16, -0.16, 0.99, 11.83, -246.72)"/><rect class="cls-15" x="432.12" y="351.12" width="40.81" height="7.83" rx="3.92" transform="translate(15.15 -259.41) rotate(9.39)"/><rect class="cls-13" x="277.33" y="302.2" width="110.37" height="7.83" rx="3.92" transform="translate(5.56 -240.49) rotate(9.39)"/><rect class="cls-11" x="269.63" y="341.18" width="110.37" height="7.83" rx="3.92" transform="translate(11.82 -238.71) rotate(9.39)"/></g><g id="Layer_3" data-name="Layer 3"><path class="cls-17" d="M318.61,413.54l-1.11,6.31,2.35.28a3,3,0,0,0,3.12-1.39c1.6-3.88-1.38-4.78-1.38-4.78Z" transform="translate(-48.85 -190.33)"/><path class="cls-18" d="M319.85,415l-.41,3.61a2.58,2.58,0,0,0,2.56-1.32,3.08,3.08,0,0,0-1.11-2.36Z" transform="translate(-48.85 -190.33)"/><polygon class="cls-17" points="274.13 226.61 278.08 224.33 278.98 225.44 275.86 227.51 276.35 228.07 279.33 226.13 280.37 227.31 276.97 229.25 277.66 229.73 280.99 227.86 281.75 228.76 277.32 231.54 274.13 226.61"/><polygon class="cls-17" points="281.41 225.64 282.79 225.64 282.31 230.71 284.46 230.91 284.39 232.37 280.44 231.95 281.41 225.64"/><polygon class="cls-17" points="286.33 226.78 287.72 226.78 287.23 231.85 289.38 232.05 289.31 233.51 285.36 233.09 286.33 226.78"/></g></svg>