<svg id="Layer_2" data-name="Layer 2" xmlns="http://www.w3.org/2000/svg" viewBox="0 0 204.46 408.08"><defs><style>.cls-1{fill:#3a3b40;}.cls-2{fill:#d190bb;}.cls-3{fill:#898989;}.cls-4{fill:#fef3f3;}.cls-5{fill:#f1f9fd;}.cls-6{fill:none;stroke:#6d6d6d;stroke-miterlimit:10;stroke-width:0.5px;}.cls-7{fill:#fffdfb;}.cls-8{font-size:35.73px;}.cls-14,.cls-8,.cls-9{fill:#fff;}.cls-8,.cls-9{font-family:FuturaStd-Book, Futura Std;}.cls-9{font-size:12px;}.cls-10{letter-spacing:-0.06em;}.cls-11{letter-spacing:-0.08em;}.cls-12{letter-spacing:0.04em;}.cls-13{letter-spacing:0em;}</style></defs><title>phone</title><path class="cls-1" d="M254.47,209c-.27-3.53-.9-17.52,9-28.87A36.28,36.28,0,0,1,275,171.33c3.18-.53,5.86-.88,7.8-1.11,11.53-1.36,17.36-.77,38.59-1.11,1.45,0,4-.08,7.56-.09,7.29,0,11.58.22,34,.09,11.94-.08,22.33-.21,36.74,0,6,.08,12.36.22,19.32.45,6.23.21,11.63.45,15.94.66a26.18,26.18,0,0,1,11.5,7.42c2.22,2.52,4.48,6.13,6.31,14.48a83.11,83.11,0,0,1,1.12,28.57q1.21,161.76,2.44,323.52c0,1.58.9,7.13-1.73,13.09-4.25,9.61-14.61,14.28-22.25,16.67q-15.57,0-31.75.35-29.49.72-56.94,2.76l-62.79-.36A29,29,0,0,1,266,567.3a28.48,28.48,0,0,1-5.35-10.2c-.87-8.18-1.92-20.41-2.24-35.32-.31-14.61.24-24.65.56-33.07.53-13.83.17-30.52-.56-63.35-.83-37.48-1.84-64.95-2.24-76.8-1-29.2-2-70.87-1.68-123.32Z" transform="translate(-252.33 -169)"/><path class="cls-2" d="M265.72,215.65c-.26-1.76-2.57-19,9.26-29.27a27.11,27.11,0,0,1,11.09-5.72q53.6-1.18,108.87-.8,12.33.09,24.58.27c3.11,0,15.12.45,19.82,8.19,1.77,2.94,2.16,6.36,2.9,13a83.41,83.41,0,0,1,.49,12.22l2.5,324.15c2.49,21-17.46,25.85-17.46,25.85l-127.65,3.09s-16.46.22-24.16-6.76c-3.3-3-6.48-8.64-5.85-20.36-.56-9.4-.79-17.33-.9-23.36-.08-5.08-.08-8.88-.08-9.86,0-9,.37-15.87.58-21.9.47-13.29.15-29.32-.5-60.85-.74-36-1.63-62.39-2-73.77-.88-28.05-1.74-68.08-1.5-118.46Z" transform="translate(-252.33 -169)"/><circle class="cls-3" cx="50.51" cy="361.08" r="11.77"/><circle class="cls-3" cx="160.42" cy="359.68" r="11.77"/><rect class="cls-4" x="153.71" y="356.17" width="13.86" height="7.89"/><rect class="cls-5" x="157.22" y="353.66" width="6.26" height="3.8"/><ellipse class="cls-6" cx="160.76" cy="360.47" rx="2.1" ry="2.02"/><rect class="cls-7" x="48.17" y="357.64" width="4.29" height="10.69"/><polygon class="cls-4" points="48.14 357.49 45.91 354.59 54.3 354.65 52.45 357.64 48.32 357.7 48.14 357.49"/><text class="cls-8" transform="translate(63.25 93.51)">9:00</text><text class="cls-9" transform="translate(47.69 111.71)"><tspan class="cls-10">T</tspan><tspan x="4.92" y="0">uesda</tspan><tspan class="cls-11" x="35.93" y="0">y</tspan><tspan x="40.94" y="0">, Februa</tspan><tspan class="cls-12" x="84.31" y="0">r</tspan><tspan class="cls-13" x="88.81" y="0">y 18</tspan></text><rect class="cls-14" x="96.4" y="45.88" width="11.71" height="9.82"/><path class="cls-14" d="M348.71,215c2-8.74,6.11-7.95,6.11-7.95,5.25,1.57,5.6,7.95,5.6,7.95Z" transform="translate(-252.33 -169)"/><path class="cls-2" d="M351.71,215.06c1.06-6.61,3.16-6,3.16-6,2.71,1.19,2.89,6,2.89,6Z" transform="translate(-252.33 -169)"/><path class="cls-14" d="M393.14,635.93" transform="translate(-252.33 -169)"/><rect class="cls-1" x="200.15" y="92.53" width="4.31" height="45.37" rx="2.15"/><rect class="cls-1" x="0.28" y="121.38" width="4.31" height="28.35" rx="2.15"/><rect class="cls-1" y="86" width="4.31" height="28.35" rx="2.15"/><rect class="cls-1" x="0.45" y="56.7" width="4.31" height="17.91" rx="2.15"/><path class="cls-2" d="M476.07,205.5" transform="translate(-252.33 -169)"/><path class="cls-1" d="M509,571.1" transform="translate(-252.33 -169)"/><rect class="cls-14" x="75.62" y="383.62" width="65.06" height="4.94" rx="2.47"/></svg>