<svg xmlns="http://www.w3.org/2000/svg" viewBox="0 0 517.66 387.84"><defs><style>.cls-1,.cls-8{fill:#fff;}.cls-1,.cls-10,.cls-11,.cls-12,.cls-13,.cls-3,.cls-4,.cls-5,.cls-6,.cls-9{stroke:#231f20;}.cls-1,.cls-10,.cls-11,.cls-12,.cls-13,.cls-14,.cls-15,.cls-16,.cls-3,.cls-4,.cls-5,.cls-6,.cls-9{stroke-miterlimit:10;}.cls-2{fill:#633d53;}.cls-10,.cls-13,.cls-3{fill:none;}.cls-11,.cls-12,.cls-3,.cls-4,.cls-5,.cls-6{stroke-width:2px;}.cls-4{fill:#87616d;}.cls-5{fill:#896672;}.cls-6{fill:#581b43;}.cls-7{fill:#8d6572;}.cls-9{fill:#231f20;}.cls-11{fill:#8b6679;}.cls-12{fill:#876175;}.cls-13{stroke-width:0.75px;}.cls-14{fill:#b15e65;}.cls-14,.cls-15{stroke:#631d34;}.cls-15,.cls-16{fill:#f8a799;}.cls-16{stroke:#6c3143;}</style></defs><title>sortinghat</title><g id="Layer_4" data-name="Layer 4"><path class="cls-1" d="M244.24,515.82" transform="translate(-57.65 -159.43)"/><path class="cls-2" d="M570.15,516.84l-9.77,13.37s-33.93,29.3-112.06,8.74c0,0-40.61-14.91-204.08-23.13,0,0,98.18-56.55,211.27-53.47C455.51,462.35,513.09,445.9,570.15,516.84Z" transform="translate(-57.65 -159.43)"/><path class="cls-3" d="M244.24,515.82C407.71,524,448.32,539,448.32,539c78.13,20.56,112.06-8.74,112.06-8.74l9.77-13.37c-57.06-70.94-114.64-54.49-114.64-54.49C342.42,459.27,244.24,515.82,244.24,515.82Z" transform="translate(-57.65 -159.43)"/></g><g id="Layer_3" data-name="Layer 3"><path class="cls-4" d="M184.61,428.43C144,446.94,95.68,489.09,95.68,489.09s-15.94,12.34-21.6,20.05-8.73,3.08-8.73,3.08c-16.45-4.62,2.57,15.94,2.57,15.94,32.38,22.1,153.7-4.11,153.7-4.11,133.14-56,158.84-48.84,158.84-48.84,92.53-19.53,125.43,1,125.43,1,31.36-1,59.12,39.58,59.12,39.58l2.06,2.57c8.22,3.6,7.19-12.85,7.19-12.85-6.68-42.67-127.48-89.45-127.48-89.45Z" transform="translate(-57.65 -159.43)"/></g><g id="Layer_2" data-name="Layer 2"><path class="cls-5" d="M289,225.89c-39.07,51.41-83.28,159.87-87.9,173.75s-16.45,17-17,21.08,1,9.25,1,9.25a51.28,51.28,0,0,0,4.68,8.37c.57.83,3.11,4.5,3.88,4.12.33-.16.31-1.06.28-1.07a5.54,5.54,0,0,0-.28,1.07c-.13,3.78,25.37,5,25.37,5,56.71,2.69,60,7.88,82.57,4,15-2.55,28.52-7.69,46.46-15.35,42.15-18,75.05-2.05,94.58-11.31s11.83-17,3.09-20.56-21.59-26.73-21.59-26.73l-46.27-85.85C382,281.41,382,268.05,382,268.05c21.59,6.16,28.78-22.11,28.78-22.11l4.63-43.18v-36c1-19-22.62,10.79-22.62,10.79C383.1,192.12,383,192,383,192c-19.53.52-21.59,11.31-21.59,11.31.52,14.91-10.28,9.26-10.28,9.26-49.86-7.71-53,2.57-53,2.57Z" transform="translate(-57.65 -159.43)"/></g><g id="Layer_5" data-name="Layer 5"><ellipse class="cls-6" cx="377.94" cy="361.75" rx="10.25" ry="14.09" transform="translate(-148.79 -29.34) rotate(-17.46)"/><path class="cls-7" d="M386.54,368.19c-.81,3.58-3.6,6-6.24,5.4s-4.11-4-3.3-7.56,3.6-6,6.24-5.4S387.36,364.61,386.54,368.19Z" transform="translate(-57.65 -159.43)"/><path class="cls-8" d="M376.22,354.75a2.52,2.52,0,1,1-1.86-3.17A2.6,2.6,0,0,1,376.22,354.75Z" transform="translate(-57.65 -159.43)"/><ellipse class="cls-6" cx="259.1" cy="363.03" rx="14.09" ry="10.25" transform="translate(-222.6 341.81) rotate(-72.54)"/><path class="cls-7" d="M250.5,369.47c.8,3.58,3.6,6,6.24,5.41s4.11-4,3.3-7.57-3.6-6-6.24-5.39S249.69,365.9,250.5,369.47Z" transform="translate(-57.65 -159.43)"/><path class="cls-8" d="M260.82,356a2.52,2.52,0,1,0,1.86-3.17A2.6,2.6,0,0,0,260.82,356Z" transform="translate(-57.65 -159.43)"/><line class="cls-9" x1="190.87" y1="221.98" x2="199.24" y2="227.71"/><line class="cls-10" x1="62.73" y1="185.28" x2="63.16" y2="185.28"/><line class="cls-9" x1="196.85" y1="222.32" x2="205.22" y2="228.05"/><line class="cls-9" x1="322.66" y1="220.68" x2="331.03" y2="226.41"/><line class="cls-9" x1="328.64" y1="221.02" x2="337.01" y2="226.75"/></g><g id="Layer_7" data-name="Layer 7"><polygon class="cls-11" points="214.9 90.45 239.49 104.09 217.38 142.41 193.05 130.99 214.9 90.45"/><polygon class="cls-12" points="95.14 374.94 94.5 366.78 123.04 335.66 195.15 308.84 224.99 340.39 179.91 357.77 162.32 365.5 94.28 375.58 95.14 374.94"/><line class="cls-10" x1="222.63" y1="98.24" x2="226.32" y2="91.08"/><line class="cls-10" x1="225.4" y1="99.62" x2="228.86" y2="92.81"/><line class="cls-10" x1="219.5" y1="129.54" x2="226.65" y2="133.23"/><line class="cls-10" x1="218.11" y1="132.31" x2="224.92" y2="135.77"/><line class="cls-10" x1="231.26" y1="112.22" x2="239" y2="114.46"/><line class="cls-10" x1="227.18" y1="118.56" x2="234.34" y2="122.26"/><line class="cls-10" x1="225.8" y1="121.33" x2="232.61" y2="124.8"/><line class="cls-10" x1="204.15" y1="131.78" x2="200.19" y2="138.79"/><line class="cls-10" x1="201.44" y1="130.29" x2="197.71" y2="136.96"/><line class="cls-10" x1="169.44" y1="313.33" x2="172.56" y2="320.75"/><line class="cls-10" x1="166.6" y1="314.57" x2="169.61" y2="321.59"/><line class="cls-10" x1="182.37" y1="309.84" x2="185.5" y2="317.26"/><line class="cls-10" x1="179.54" y1="311.07" x2="182.54" y2="318.1"/><line class="cls-10" x1="131.1" y1="328.29" x2="134.21" y2="335.72"/><line class="cls-10" x1="128.26" y1="329.53" x2="131.25" y2="336.56"/><line class="cls-10" x1="144.04" y1="324.82" x2="147.15" y2="332.25"/><line class="cls-10" x1="141.2" y1="326.05" x2="144.19" y2="333.08"/><line class="cls-10" x1="204.3" y1="312.04" x2="198.34" y2="317.45"/><line class="cls-10" x1="202.19" y1="309.77" x2="196.57" y2="314.94"/><line class="cls-10" x1="215.4" y1="323.77" x2="208.43" y2="327.79"/><line class="cls-10" x1="212.79" y1="320.81" x2="207.16" y2="325.98"/><line class="cls-10" x1="224.08" y1="334.24" x2="216.48" y2="335"/><line class="cls-10" x1="114.17" y1="340.82" x2="117.16" y2="347.85"/><line class="cls-10" x1="100.14" y1="354.21" x2="106.94" y2="358.53"/><line class="cls-10" x1="98.51" y1="356.84" x2="104.98" y2="360.9"/><path class="cls-3" d="M415.61,468.86c49.28,11.67,49.28,14.91,52.52,20.1s-27.23,8.43-27.23,8.43l-.65,2.59" transform="translate(-57.65 -159.43)"/><polyline class="cls-13" points="296.07 87.08 244.2 98.11 301.91 95.51 267.55 111.08"/><polyline class="cls-13" points="333.03 42.35 340.81 62.45 316.82 44.29"/></g><g id="Layer_8" data-name="Layer 8"><path class="cls-14" d="M274.35,401.32c-.22-.81-.39-1.64-.39-1.64h0c-.43-2.18-1.71-8.77,1.94-14a14.12,14.12,0,0,1,8-5.42,27.27,27.27,0,0,1,9.59-.33c6.83,1,8.47,4.37,14.31,6.39,10.05,3.47,20.22-1.06,21.93-1.85,8.05-3.75,7.7-8.14,14.52-9.9,5.64-1.45,13.53-.41,18.29,4.94,6,6.69,3.38,16.75,2.63,19.66a20.89,20.89,0,0,1-3.78,8.09,29.69,29.69,0,0,1-6.12,5.5s-2,1.48-4.08,2.7c-11.61,6.79-29.39,7.41-32.22,7.49h-.34c-6.63.15-16.2.38-25.67-3.72C279,413.22,274.46,401.72,274.35,401.32Z" transform="translate(-57.65 -159.43)"/><path class="cls-15" d="M292.46,418.91l3,1.36a81.42,81.42,0,0,0,21.64,3,79.67,79.67,0,0,0,15.45-1.49,77.85,77.85,0,0,0,16.94-5.44,16.68,16.68,0,0,0-.53-2.71,11.32,11.32,0,0,0-2.78-5.41,14.72,14.72,0,0,0-2.3-1.77s-.95-.62-1.86-1.08a16.11,16.11,0,0,0-10.32-.88c-4.5,1.09-3.85,3-8.09,4.1a17.24,17.24,0,0,1-10.74-.61c-2.56-1.11-4.12-2.71-7.3-2.73a11.76,11.76,0,0,0-3,.42,13.19,13.19,0,0,0-5.85,3.09c-3.35,3.34-3.73,9.18-3.77,10.34,0,.13,0,.2,0,.21h0" transform="translate(-57.65 -159.43)"/><path class="cls-16" d="M295.48,420.27l-3-1.18h0" transform="translate(-57.65 -159.43)"/></g></svg>